GeistPixel.glyphspackage
{
glyphname = exclam;
layers = (
{
background = {
shapes = (
{
closed = 1;
nodes = (
(143,205,l),
(149,275,o),
(158,400,o),
(158,480,cs),
(158,710,l),
(72,710,l),
(72,480,ls),
(72,400,o),
(82,275,o),
(88,205,c)
);
}
);
};
layerId = m01;
shapes = (
{
alignment = -1;
pos = (76,0);
ref = pixel;
},
{
alignment = -1;
pos = (76,38);
ref = pixel;
},
{
alignment = -1;
pos = (114,38);
ref = pixel;
},
{
alignment = -1;
pos = (114,76);
ref = pixel;
},
{
alignment = -1;
pos = (76,76);
ref = pixel;
},
{
alignment = -1;
pos = (114,0);
ref = pixel;
},
{
alignment = -1;
pos = (76,684);
ref = pixel;
},
{
alignment = -1;
pos = (114,684);
ref = pixel;
},
{
alignment = -1;
pos = (114,646);
ref = pixel;
},
{
alignment = -1;
pos = (76,646);
ref = pixel;
},
{
alignment = -1;
pos = (76,608);
ref = pixel;
},
{
alignment = -1;
pos = (76,570);
ref = pixel;
},
{
alignment = -1;
pos = (76,532);
ref = pixel;
},
{
alignment = -1;
pos = (76,494);
ref = pixel;
},
{
alignment = -1;
pos = (76,456);
ref = pixel;
},
{
alignment = -1;
pos = (76,418);
ref = pixel;
},
{
alignment = -1;
pos = (76,380);
ref = pixel;
},
{
alignment = -1;
pos = (76,342);
ref = pixel;
},
{
alignment = -1;
pos = (114,608);
ref = pixel;
},
{
alignment = -1;
pos = (114,570);
ref = pixel;
},
{
alignment = -1;
pos = (114,532);
ref = pixel;
},
{
alignment = -1;
pos = (114,494);
ref = pixel;
},
{
alignment = -1;
pos = (114,456);
ref = pixel;
},
{
alignment = -1;
pos = (114,418);
ref = pixel;
},
{
alignment = -1;
pos = (114,380);
ref = pixel;
},
{
alignment = -1;
pos = (114,342);
ref = pixel;
},
{
alignment = -1;
pos = (76,304);
ref = pixel;
},
{
alignment = -1;
pos = (114,304);
ref = pixel;
},
{
alignment = -1;
pos = (76,266);
ref = pixel;
},
{
alignment = -1;
pos = (76,228);
ref = pixel;
},
{
alignment = -1;
pos = (114,228);
ref = pixel;
},
{
alignment = -1;
pos = (114,266);
ref = pixel;
}
);
width = 266;
}
);
unicode = 33;
}
{
glyphname = quotedbl;
layers = (
{
background = {
shapes = (
{
closed = 1;
nodes = (
(106,456,l),
(112,722,l),
(24,722,l),
(24,642,l),
(44,456,l)
);
},
{
closed = 1;
nodes = (
(260,456,l),
(280,642,l),
(280,722,l),
(192,722,l),
(198,456,l)
);
}
);
};
layerId = m01;
shapes = (
{
alignment = -1;
pos = (38,684);
ref = pixel;
},
{
alignment = -1;
pos = (76,684);
ref = pixel;
},
{
alignment = -1;
pos = (76,646);
ref = pixel;
},
{
alignment = -1;
pos = (76,608);
ref = pixel;
},
{
alignment = -1;
pos = (76,570);
ref = pixel;
},
{
alignment = -1;
pos = (76,532);
ref = pixel;
},
{
alignment = -1;
pos = (76,494);
ref = pixel;
},
{
alignment = -1;
pos = (76,456);
ref = pixel;
},
{
alignment = -1;
pos = (38,646);
ref = pixel;
},
{
alignment = -1;
pos = (38,608);
ref = pixel;
},
{
alignment = -1;
pos = (38,570);
ref = pixel;
},
{
alignment = -1;
pos = (38,532);
ref = pixel;
},
{
alignment = -1;
pos = (38,494);
ref = pixel;
},
{
alignment = -1;
pos = (38,456);
ref = pixel;
},
{
alignment = -1;
pos = (190,684);
ref = pixel;
},
{
alignment = -1;
pos = (190,646);
ref = pixel;
},
{
alignment = -1;
pos = (190,608);
ref = pixel;
},
{
alignment = -1;
pos = (190,570);
ref = pixel;
},
{
alignment = -1;
pos = (190,532);
ref = pixel;
},
{
alignment = -1;
pos = (190,494);
ref = pixel;
},
{
alignment = -1;
pos = (190,456);
ref = pixel;
},
{
alignment = -1;
pos = (228,684);
ref = pixel;
},
{
alignment = -1;
pos = (228,646);
ref = pixel;
},
{
alignment = -1;
pos = (228,608);
ref = pixel;
},
{
alignment = -1;
pos = (228,570);
ref = pixel;
},
{
alignment = -1;
pos = (228,532);
ref = pixel;
},
{
alignment = -1;
pos = (228,494);
ref = pixel;
},
{
alignment = -1;
pos = (228,456);
ref = pixel;
}
);
width = 304;
}
);
metricLeft = o;
metricRight = o;
unicode = 34;
}
{
glyphname = numbersign;
layers = (
{
background = {
shapes = (
{
closed = 1;
nodes = (
(308,0,l),
(440,710,l),
(368,710,l),
(236,0,l)
);
},
{
closed = 1;
nodes = (
(433,197,l),
(445,267,l),
(4,267,l),
(-8,197,l)
);
},
{
closed = 1;
nodes = (
(110,0,l),
(242,710,l),
(170,710,l),
(38,0,l)
);
},
{
closed = 1;
nodes = (
(473,440,l),
(485,510,l),
(44,510,l),
(32,440,l)
);
}
);
};
layerId = m01;
shapes = (
{
alignment = -1;
pos = (38,0);
ref = pixel;
},
{
alignment = -1;
pos = (76,0);
ref = pixel;
},
{
alignment = -1;
pos = (38,38);
ref = pixel;
},
{
alignment = -1;
pos = (76,38);
ref = pixel;
},
{
alignment = -1;
pos = (76,76);
ref = pixel;
},
{
alignment = -1;
pos = (76,114);
ref = pixel;
},
{
alignment = -1;
pos = (114,114);
ref = pixel;
},
{
alignment = -1;
pos = (38,76);
ref = pixel;
},
{
alignment = -1;
pos = (76,152);
ref = pixel;
},
{
alignment = -1;
pos = (114,152);
ref = pixel;
},
{
alignment = -1;
pos = (76,190);
ref = pixel;
},
{
alignment = -1;
pos = (114,190);
ref = pixel;
},
{
alignment = -1;
pos = (114,228);
ref = pixel;
},
{
alignment = -1;
pos = (114,266);
ref = pixel;
},
{
alignment = -1;
pos = (114,304);
ref = pixel;
},
{
alignment = -1;
pos = (152,228);
ref = pixel;
},
{
alignment = -1;
pos = (152,266);
ref = pixel;
},
{
alignment = -1;
pos = (152,304);
ref = pixel;
},
{
alignment = -1;
pos = (152,342);
ref = pixel;
},
{
alignment = -1;
pos = (152,380);
ref = pixel;
},
{
alignment = -1;
pos = (152,418);
ref = pixel;
},
{
alignment = -1;
pos = (114,342);
ref = pixel;
},
{
alignment = -1;
pos = (114,380);
ref = pixel;
},
{
alignment = -1;
pos = (114,418);
ref = pixel;
},
{
alignment = -1;
pos = (152,494);
ref = pixel;
},
{
alignment = -1;
pos = (152,532);
ref = pixel;
},
{
alignment = -1;
pos = (190,608);
ref = pixel;
},
{
alignment = -1;
pos = (190,646);
ref = pixel;
},
{
alignment = -1;
pos = (190,684);
ref = pixel;
},
{
alignment = -1;
pos = (228,684);
ref = pixel;
},
{
alignment = -1;
pos = (228,646);
ref = pixel;
},
{
alignment = -1;
pos = (228,608);
ref = pixel;
},
{
alignment = -1;
pos = (152,570);
ref = pixel;
},
{
alignment = -1;
pos = (190,570);
ref = pixel;
},
{
alignment = -1;
pos = (190,532);
ref = pixel;
},
{
alignment = -1;
pos = (190,494);
ref = pixel;
},
{
alignment = -1;
pos = (114,456);
ref = pixel;
},
{
alignment = -1;
pos = (152,456);
ref = pixel;
},
{
alignment = -1;
pos = (228,0);
ref = pixel;
},
{
alignment = -1;
pos = (266,0);
ref = pixel;
},
{
alignment = -1;
pos = (228,38);
ref = pixel;
},
{
alignment = -1;
pos = (266,38);
ref = pixel;
},
{
alignment = -1;
pos = (266,76);
ref = pixel;
},
{
alignment = -1;
pos = (266,114);
ref = pixel;
},
{
alignment = -1;
pos = (304,114);
ref = pixel;
},
{
alignment = -1;
pos = (228,76);
ref = pixel;
},
{
alignment = -1;
pos = (266,152);
ref = pixel;
},
{
alignment = -1;
pos = (304,152);
ref = pixel;
},
{
alignment = -1;
pos = (266,190);
ref = pixel;
},
{
alignment = -1;
pos = (304,190);
ref = pixel;
},
{
alignment = -1;
pos = (304,228);
ref = pixel;
},
{
alignment = -1;
pos = (304,266);
ref = pixel;
},
{
alignment = -1;
pos = (304,304);
ref = pixel;
},
{
alignment = -1;
pos = (342,228);
ref = pixel;
},
{
alignment = -1;
pos = (342,266);
ref = pixel;
},
{
alignment = -1;
pos = (342,304);
ref = pixel;
},
{
alignment = -1;
pos = (342,342);
ref = pixel;
},
{
alignment = -1;
pos = (342,380);
ref = pixel;
},
{
alignment = -1;
pos = (342,418);
ref = pixel;
},
{
alignment = -1;
pos = (304,342);
ref = pixel;
},
{
alignment = -1;
pos = (304,380);
ref = pixel;
},
{
alignment = -1;
pos = (304,418);
ref = pixel;
},
{
alignment = -1;
pos = (342,494);
ref = pixel;
},
{
alignment = -1;
pos = (342,532);
ref = pixel;
},
{
alignment = -1;
pos = (380,608);
ref = pixel;
},
{
alignment = -1;
pos = (380,646);
ref = pixel;
},
{
alignment = -1;
pos = (380,684);
ref = pixel;
},
{
alignment = -1;
pos = (418,684);
ref = pixel;
},
{
alignment = -1;
pos = (418,646);
ref = pixel;
},
{
alignment = -1;
pos = (418,608);
ref = pixel;
},
{
alignment = -1;
pos = (342,570);
ref = pixel;
},
{
alignment = -1;
pos = (380,570);
ref = pixel;
},
{
alignment = -1;
pos = (380,532);
ref = pixel;
},
{
alignment = -1;
pos = (380,494);
ref = pixel;
},
{
alignment = -1;
pos = (304,456);
ref = pixel;
},
{
alignment = -1;
pos = (342,456);
ref = pixel;
},
{
alignment = -1;
pos = (76,456);
ref = pixel;
},
{
alignment = -1;
pos = (38,418);
ref = pixel;
},
{
alignment = -1;
pos = (76,418);
ref = pixel;
},
{
alignment = -1;
pos = (190,456);
ref = pixel;
},
{
alignment = -1;
pos = (228,456);
ref = pixel;
},
{
alignment = -1;
pos = (266,456);
ref = pixel;
},
{
alignment = -1;
pos = (190,418);
ref = pixel;
},
{
alignment = -1;
pos = (228,418);
ref = pixel;
},
{
alignment = -1;
pos = (266,418);
ref = pixel;
},
{
alignment = -1;
pos = (380,456);
ref = pixel;
},
{
alignment = -1;
pos = (418,456);
ref = pixel;
},
{
alignment = -1;
pos = (456,456);
ref = pixel;
},
{
alignment = -1;
pos = (380,418);
ref = pixel;
},
{
alignment = -1;
pos = (418,418);
ref = pixel;
},
{
alignment = -1;
pos = (38,228);
ref = pixel;
},
{
alignment = -1;
pos = (76,228);
ref = pixel;
},
{
alignment = -1;
pos = (190,228);
ref = pixel;
},
{
alignment = -1;
pos = (228,228);
ref = pixel;
},
{
alignment = -1;
pos = (266,228);
ref = pixel;
},
{
alignment = -1;
pos = (380,228);
ref = pixel;
},
{
alignment = -1;
pos = (418,228);
ref = pixel;
},
{
alignment = -1;
pos = (0,228);
ref = pixel;
},
{
alignment = -1;
pos = (38,266);
ref = pixel;
},
{
alignment = -1;
pos = (76,266);
ref = pixel;
},
{
alignment = -1;
pos = (190,266);
ref = pixel;
},
{
alignment = -1;
pos = (228,266);
ref = pixel;
},
{
alignment = -1;
pos = (266,266);
ref = pixel;
},
{
alignment = -1;
pos = (380,266);
ref = pixel;
},
{
alignment = -1;
pos = (418,266);
ref = pixel;
},
{
alignment = -1;
pos = (456,266);
ref = pixel;
}
);
width = 494;
}
);
unicode = 35;
}
{
glyphname = percent;
layers = (
{
background = {
shapes = (
{
closed = 1;
nodes = (
(272,366,o),
(336,428,o),
(336,542,cs),
(336,656,o),
(272,718,o),
(192,718,cs),
(112,718,o),
(48,656,o),
(48,542,cs),
(48,428,o),
(112,366,o),
(192,366,cs)
);
},
{
closed = 1;
nodes = (
(148,428,o),
(120,470,o),
(120,542,cs),
(120,614,o),
(148,656,o),
(192,656,cs),
(236,656,o),
(264,614,o),
(264,542,cs),
(264,470,o),
(236,428,o),
(192,428,cs)
);
},
{
closed = 1;
nodes = (
(163,0,l),
(589,710,l),
(513,710,l),
(87,0,l)
);
},
{
closed = 1;
nodes = (
(564,-8,o),
(628,54,o),
(628,168,cs),
(628,282,o),
(564,344,o),
(484,344,cs),
(404,344,o),
(340,282,o),
(340,168,cs),
(340,54,o),
(404,-8,o),
(484,-8,cs)
);
},
{
closed = 1;
nodes = (
(440,54,o),
(412,96,o),
(412,168,cs),
(412,240,o),
(440,282,o),
(484,282,cs),
(528,282,o),
(556,240,o),
(556,168,cs),
(556,96,o),
(528,54,o),
(484,54,cs)
);
}
);
};
layerId = m01;
shapes = (
{
alignment = -1;
pos = (152,684);
ref = pixel;
},
{
alignment = -1;
pos = (152,646);
ref = pixel;
},
{
alignment = -1;
pos = (190,646);
ref = pixel;
},
{
alignment = -1;
pos = (190,684);
ref = pixel;
},
{
alignment = -1;
pos = (114,646);
ref = pixel;
},
{
alignment = -1;
pos = (114,608);
ref = pixel;
},
{
alignment = -1;
pos = (76,608);
ref = pixel;
},
{
alignment = -1;
pos = (76,646);
ref = pixel;
},
{
alignment = -1;
pos = (76,570);
ref = pixel;
},
{
alignment = -1;
pos = (76,532);
ref = pixel;
},
{
alignment = -1;
pos = (38,532);
ref = pixel;
},
{
alignment = -1;
pos = (38,570);
ref = pixel;
},
{
alignment = -1;
pos = (228,646);
ref = pixel;
},
{
alignment = -1;
pos = (266,646);
ref = pixel;
},
{
alignment = -1;
pos = (266,608);
ref = pixel;
},
{
alignment = -1;
pos = (228,608);
ref = pixel;
},
{
alignment = -1;
pos = (266,570);
ref = pixel;
},
{
alignment = -1;
pos = (266,532);
ref = pixel;
},
{
alignment = -1;
pos = (304,532);
ref = pixel;
},
{
alignment = -1;
pos = (304,570);
ref = pixel;
},
{
alignment = -1;
pos = (38,494);
ref = pixel;
},
{
alignment = -1;
pos = (76,494);
ref = pixel;
},
{
alignment = -1;
pos = (76,456);
ref = pixel;
},
{
alignment = -1;
pos = (114,456);
ref = pixel;
},
{
alignment = -1;
pos = (114,418);
ref = pixel;
},
{
alignment = -1;
pos = (76,418);
ref = pixel;
},
{
alignment = -1;
pos = (266,494);
ref = pixel;
},
{
alignment = -1;
pos = (304,494);
ref = pixel;
},
{
alignment = -1;
pos = (266,456);
ref = pixel;
},
{
alignment = -1;
pos = (266,418);
ref = pixel;
},
{
alignment = -1;
pos = (228,418);
ref = pixel;
},
{
alignment = -1;
pos = (228,456);
ref = pixel;
},
{
alignment = -1;
pos = (190,380);
ref = pixel;
},
{
alignment = -1;
pos = (152,380);
ref = pixel;
},
{
alignment = -1;
pos = (152,418);
ref = pixel;
},
{
alignment = -1;
pos = (190,418);
ref = pixel;
},
{
alignment = -1;
pos = (532,0);
ref = pixel;
},
{
alignment = -1;
pos = (570,0);
ref = pixel;
},
{
alignment = -1;
pos = (570,38);
ref = pixel;
},
{
alignment = -1;
pos = (532,38);
ref = pixel;
},
{
alignment = -1;
pos = (494,38);
ref = pixel;
},
{
alignment = -1;
pos = (456,38);
ref = pixel;
},
{
alignment = -1;
pos = (456,76);
ref = pixel;
},
{
alignment = -1;
pos = (494,76);
ref = pixel;
},
{
alignment = -1;
pos = (608,38);
ref = pixel;
},
{
alignment = -1;
pos = (646,38);
ref = pixel;
},
{
alignment = -1;
pos = (646,76);
ref = pixel;
},
{
alignment = -1;
pos = (608,76);
ref = pixel;
},
{
alignment = -1;
pos = (456,114);
ref = pixel;
},
{
alignment = -1;
pos = (418,114);
ref = pixel;
},
{
alignment = -1;
pos = (418,152);
ref = pixel;
},
{
alignment = -1;
pos = (418,190);
ref = pixel;
},
{
alignment = -1;
pos = (456,190);
ref = pixel;
},
{
alignment = -1;
pos = (456,152);
ref = pixel;
},
{
alignment = -1;
pos = (646,190);
ref = pixel;
},
{
alignment = -1;
pos = (646,152);
ref = pixel;
},
{
alignment = -1;
pos = (646,114);
ref = pixel;
},
{
alignment = -1;
pos = (684,114);
ref = pixel;
},
{
alignment = -1;
pos = (684,152);
ref = pixel;
},
{
alignment = -1;
pos = (684,190);
ref = pixel;
},
{
alignment = -1;
pos = (456,228);
ref = pixel;
},
{
alignment = -1;
pos = (494,228);
ref = pixel;
},
{
alignment = -1;
pos = (494,266);
ref = pixel;
},
{
alignment = -1;
pos = (456,266);
ref = pixel;
},
{
alignment = -1;
pos = (646,228);
ref = pixel;
},
{
alignment = -1;
pos = (608,228);
ref = pixel;
},
{
alignment = -1;
pos = (608,266);
ref = pixel;
},
{
alignment = -1;
pos = (646,266);
ref = pixel;
},
{
alignment = -1;
pos = (532,266);
ref = pixel;
},
{
alignment = -1;
pos = (570,266);
ref = pixel;
},
{
alignment = -1;
pos = (570,304);
ref = pixel;
},
{
alignment = -1;
pos = (532,304);
ref = pixel;
},
{
pos = (190,0);
ref = fraction;
}
);
width = 760;
},
{
associatedMasterId = m01;
background = {
shapes = (
{
closed = 1;
nodes = (
(272,366,o),
(336,428,o),
(336,542,cs),
(336,656,o),
(272,718,o),
(192,718,cs),
(112,718,o),
(48,656,o),
(48,542,cs),
(48,428,o),
(112,366,o),
(192,366,cs)
);
},
{
closed = 1;
nodes = (
(148,428,o),
(120,470,o),
(120,542,cs),
(120,614,o),
(148,656,o),
(192,656,cs),
(236,656,o),
(264,614,o),
(264,542,cs),
(264,470,o),
(236,428,o),
(192,428,cs)
);
},
{
closed = 1;
nodes = (
(163,0,l),
(589,710,l),
(513,710,l),
(87,0,l)
);
},
{
closed = 1;
nodes = (
(564,-8,o),
(628,54,o),
(628,168,cs),
(628,282,o),
(564,344,o),
(484,344,cs),
(404,344,o),
(340,282,o),
(340,168,cs),
(340,54,o),
(404,-8,o),
(484,-8,cs)
);
},
{
closed = 1;
nodes = (
(440,54,o),
(412,96,o),
(412,168,cs),
(412,240,o),
(440,282,o),
(484,282,cs),
(528,282,o),
(556,240,o),
(556,168,cs),
(556,96,o),
(528,54,o),
(484,54,cs)
);
}
);
};
layerId = "8B4DFCEA-6089-49E8-BD8D-D3A6ED2AAA71";
name = "8 Dec 25 at 08:33";
shapes = (
{
alignment = -1;
pos = (152,684);
ref = pixel;
},
{
alignment = -1;
pos = (152,646);
ref = pixel;
},
{
alignment = -1;
pos = (190,646);
ref = pixel;
},
{
alignment = -1;
pos = (190,684);
ref = pixel;
},
{
alignment = -1;
pos = (114,646);
ref = pixel;
},
{
alignment = -1;
pos = (114,608);
ref = pixel;
},
{
alignment = -1;
pos = (76,608);
ref = pixel;
},
{
alignment = -1;
pos = (76,646);
ref = pixel;
},
{
alignment = -1;
pos = (76,570);
ref = pixel;
},
{
alignment = -1;
pos = (76,532);
ref = pixel;
},
{
alignment = -1;
pos = (38,532);
ref = pixel;
},
{
alignment = -1;
pos = (38,570);
ref = pixel;
},
{
alignment = -1;
pos = (228,646);
ref = pixel;
},
{
alignment = -1;
pos = (266,646);
ref = pixel;
},
{
alignment = -1;
pos = (266,608);
ref = pixel;
},
{
alignment = -1;
pos = (228,608);
ref = pixel;
},
{
alignment = -1;
pos = (266,570);
ref = pixel;
},
{
alignment = -1;
pos = (266,532);
ref = pixel;
},
{
alignment = -1;
pos = (304,532);
ref = pixel;
},
{
alignment = -1;
pos = (304,570);
ref = pixel;
},
{
alignment = -1;
pos = (38,494);
ref = pixel;
},
{
alignment = -1;
pos = (76,494);
ref = pixel;
},
{
alignment = -1;
pos = (76,456);
ref = pixel;
},
{
alignment = -1;
pos = (114,456);
ref = pixel;
},
{
alignment = -1;
pos = (114,418);
ref = pixel;
},
{
alignment = -1;
pos = (76,418);
ref = pixel;
},
{
alignment = -1;
pos = (266,494);
ref = pixel;
},
{
alignment = -1;
pos = (304,494);
ref = pixel;
},
{
alignment = -1;
pos = (266,456);
ref = pixel;
},
{
alignment = -1;
pos = (266,418);
ref = pixel;
},
{
alignment = -1;
pos = (228,418);
ref = pixel;
},
{
alignment = -1;
pos = (228,456);
ref = pixel;
},
{
alignment = -1;
pos = (190,380);
ref = pixel;
},
{
alignment = -1;
pos = (152,380);
ref = pixel;
},
{
alignment = -1;
pos = (152,418);
ref = pixel;
},
{
alignment = -1;
pos = (190,418);
ref = pixel;
},
{
alignment = -1;
pos = (456,0);
ref = pixel;
},
{
alignment = -1;
pos = (494,0);
ref = pixel;
},
{
alignment = -1;
pos = (494,38);
ref = pixel;
},
{
alignment = -1;
pos = (456,38);
ref = pixel;
},
{
alignment = -1;
pos = (418,38);
ref = pixel;
},
{
alignment = -1;
pos = (380,38);
ref = pixel;
},
{
alignment = -1;
pos = (380,76);
ref = pixel;
},
{
alignment = -1;
pos = (418,76);
ref = pixel;
},
{
alignment = -1;
pos = (532,38);
ref = pixel;
},
{
alignment = -1;
pos = (570,38);
ref = pixel;
},
{
alignment = -1;
pos = (570,76);
ref = pixel;
},
{
alignment = -1;
pos = (532,76);
ref = pixel;
},
{
alignment = -1;
pos = (380,114);
ref = pixel;
},
{
alignment = -1;
pos = (342,114);
ref = pixel;
},
{
alignment = -1;
pos = (342,152);
ref = pixel;
},
{
alignment = -1;
pos = (342,190);
ref = pixel;
},
{
alignment = -1;
pos = (380,190);
ref = pixel;
},
{
alignment = -1;
pos = (380,152);
ref = pixel;
},
{
alignment = -1;
pos = (570,190);
ref = pixel;
},
{
alignment = -1;
pos = (570,152);
ref = pixel;
},
{
alignment = -1;
pos = (570,114);
ref = pixel;
},
{
alignment = -1;
pos = (608,114);
ref = pixel;
},
{
alignment = -1;
pos = (608,152);
ref = pixel;
},
{
alignment = -1;
pos = (608,190);
ref = pixel;
},
{
alignment = -1;
pos = (380,228);
ref = pixel;
},
{
alignment = -1;
pos = (418,228);
ref = pixel;
},
{
alignment = -1;
pos = (418,266);
ref = pixel;
},
{
alignment = -1;
pos = (380,266);
ref = pixel;
},
{
alignment = -1;
pos = (570,228);
ref = pixel;
},
{
alignment = -1;
pos = (532,228);
ref = pixel;
},
{
alignment = -1;
pos = (532,266);
ref = pixel;
},
{
alignment = -1;
pos = (570,266);
ref = pixel;
},
{
alignment = -1;
pos = (456,266);
ref = pixel;
},
{
alignment = -1;
pos = (494,266);
ref = pixel;
},
{
alignment = -1;
pos = (494,304);
ref = pixel;
},
{
alignment = -1;
pos = (456,304);
ref = pixel;
},
{
alignment = -1;
pos = (152,76);
ref = pixel;
},
{
alignment = -1;
pos = (190,114);
ref = pixel;
},
{
alignment = -1;
pos = (190,152);
ref = pixel;
},
{
alignment = -1;
pos = (228,152);
ref = pixel;
},
{
alignment = -1;
pos = (228,114);
ref = pixel;
},
{
alignment = -1;
pos = (228,190);
ref = pixel;
},
{
alignment = -1;
pos = (228,228);
ref = pixel;
},
{
alignment = -1;
pos = (266,228);
ref = pixel;
},
{
alignment = -1;
pos = (266,190);
ref = pixel;
},
{
alignment = -1;
pos = (266,304);
ref = pixel;
},
{
alignment = -1;
pos = (304,304);
ref = pixel;
},
{
alignment = -1;
pos = (304,342);
ref = pixel;
},
{
alignment = -1;
pos = (342,380);
ref = pixel;
},
{
alignment = -1;
pos = (380,380);
ref = pixel;
},
{
alignment = -1;
pos = (380,418);
ref = pixel;
},
{
alignment = -1;
pos = (342,418);
ref = pixel;
},
{
alignment = -1;
pos = (380,456);
ref = pixel;
},
{
alignment = -1;
pos = (418,456);
ref = pixel;
},
{
alignment = -1;
pos = (418,494);
ref = pixel;
},
{
alignment = -1;
pos = (380,494);
ref = pixel;
},
{
alignment = -1;
pos = (456,532);
ref = pixel;
},
{
alignment = -1;
pos = (456,570);
ref = pixel;
},
{
alignment = -1;
pos = (494,608);
ref = pixel;
},
{
alignment = -1;
pos = (494,646);
ref = pixel;
},
{
alignment = -1;
pos = (494,684);
ref = pixel;
},
{
alignment = -1;
pos = (418,532);
ref = pixel;
},
{
alignment = -1;
pos = (418,570);
ref = pixel;
},
{
alignment = -1;
pos = (456,608);
ref = pixel;
},
{
alignment = -1;
pos = (190,76);
ref = pixel;
},
{
alignment = -1;
pos = (152,38);
ref = pixel;
},
{
alignment = -1;
pos = (152,0);
ref = pixel;
},
{
alignment = -1;
pos = (304,266);
ref = pixel;
},
{
alignment = -1;
pos = (266,266);
ref = pixel;
},
{
alignment = -1;
pos = (342,342);
ref = pixel;
},
{
alignment = -1;
pos = (190,38);
ref = pixel;
},
{
alignment = -1;
pos = (190,0);
ref = pixel;
},
{
alignment = -1;
pos = (456,684);
ref = pixel;
},
{
alignment = -1;
pos = (456,646);
ref = pixel;
}
);
width = 684;
}
);
metricLeft = o;
metricRight = o;
unicode = 37;
}
{
glyphname = ampersand;
layers = (
{
background = {
shapes = (
{
closed = 1;
nodes = (
(345,-16,o),
(412,8,o),
(451,45,c),
(488,0,l),
(589,0,l),
(504,103,l),
(543,150,o),
(570,230,o),
(571,310,c),
(487,318,l),
(487,250,o),
(475,199,o),
(451,166,c),
(289,373,l),
(396,444,o),
(437,498,o),
(437,574,cs),
(437,668,o),
(377,726,o),
(271,726,cs),
(163,726,o),
(97,664,o),
(97,562,cs),
(97,499,o),
(123,454,o),
(169,394,c),
(63,319,o),
(29,265,o),
(29,174,cs),
(29,52,o),
(113,-16,o),
(249,-16,cs)
);
},
{
closed = 1;
nodes = (
(161,64,o),
(119,107,o),
(119,174,cs),
(119,236,o),
(147,278,o),
(219,328,c),
(395,106,l),
(372,82,o),
(327,64,o),
(259,64,cs)
);
},
{
closed = 1;
nodes = (
(201,488,o),
(187,521,o),
(187,562,cs),
(187,612,o),
(218,642,o),
(271,642,cs),
(319,642,o),
(347,616,o),
(347,568,cs),
(347,517,o),
(319,481,o),
(243,434,c)
);
}
);
};
layerId = m01;
shapes = (
{
alignment = -1;
pos = (38,152);
ref = pixel;
},
{
alignment = -1;
pos = (38,114);
ref = pixel;
},
{
alignment = -1;
pos = (76,114);
ref = pixel;
},
{
alignment = -1;
pos = (76,152);
ref = pixel;
},
{
alignment = -1;
pos = (114,570);
ref = pixel;
},
{
alignment = -1;
pos = (114,532);
ref = pixel;
},
{
alignment = -1;
pos = (380,570);
ref = pixel;
},
{
alignment = -1;
pos = (342,570);
ref = pixel;
},
{
alignment = -1;
pos = (342,532);
ref = pixel;
},
{
alignment = -1;
pos = (380,532);
ref = pixel;
},
{
alignment = -1;
pos = (228,38);
ref = pixel;
},
{
alignment = -1;
pos = (228,0);
ref = pixel;
},
{
alignment = -1;
pos = (266,0);
ref = pixel;
},
{
alignment = -1;
pos = (266,38);
ref = pixel;
},
{
alignment = -1;
pos = (228,380);
ref = pixel;
},
{
alignment = -1;
pos = (228,342);
ref = pixel;
},
{
alignment = -1;
pos = (190,342);
ref = pixel;
},
{
alignment = -1;
pos = (190,380);
ref = pixel;
},
{
alignment = -1;
pos = (38,190);
ref = pixel;
},
{
alignment = -1;
pos = (38,228);
ref = pixel;
},
{
alignment = -1;
pos = (76,228);
ref = pixel;
},
{
alignment = -1;
pos = (76,190);
ref = pixel;
},
{
alignment = -1;
pos = (76,76);
ref = pixel;
},
{
alignment = -1;
pos = (76,38);
ref = pixel;
},
{
alignment = -1;
pos = (114,38);
ref = pixel;
},
{
alignment = -1;
pos = (114,76);
ref = pixel;
},
{
alignment = -1;
pos = (152,38);
ref = pixel;
},
{
alignment = -1;
pos = (152,0);
ref = pixel;
},
{
alignment = -1;
pos = (114,0);
ref = pixel;
},
{
alignment = -1;
pos = (190,38);
ref = pixel;
},
{
alignment = -1;
pos = (190,0);
ref = pixel;
},
{
alignment = -1;
pos = (76,266);
ref = pixel;
},
{
alignment = -1;
pos = (76,304);
ref = pixel;
},
{
alignment = -1;
pos = (114,304);
ref = pixel;
},
{
alignment = -1;
pos = (114,266);
ref = pixel;
},
{
alignment = -1;
pos = (114,342);
ref = pixel;
},
{
alignment = -1;
pos = (152,342);
ref = pixel;
},
{
alignment = -1;
pos = (152,304);
ref = pixel;
},
{
alignment = -1;
pos = (266,380);
ref = pixel;
},
{
alignment = -1;
pos = (304,418);
ref = pixel;
},
{
alignment = -1;
pos = (304,380);
ref = pixel;
},
{
alignment = -1;
pos = (342,456);
ref = pixel;
},
{
alignment = -1;
pos = (342,418);
ref = pixel;
},
{
alignment = -1;
pos = (342,494);
ref = pixel;
},
{
alignment = -1;
pos = (380,494);
ref = pixel;
},
{
alignment = -1;
pos = (380,456);
ref = pixel;
},
{
alignment = -1;
pos = (266,266);
ref = pixel;
},
{
alignment = -1;
pos = (304,266);
ref = pixel;
},
{
alignment = -1;
pos = (266,304);
ref = pixel;
},
{
alignment = -1;
pos = (304,228);
ref = pixel;
},
{
alignment = -1;
pos = (342,228);
ref = pixel;
},
{
alignment = -1;
pos = (342,190);
ref = pixel;
},
{
alignment = -1;
pos = (304,190);
ref = pixel;
},
{
alignment = -1;
pos = (342,152);
ref = pixel;
},
{
alignment = -1;
pos = (380,152);
ref = pixel;
},
{
alignment = -1;
pos = (380,190);
ref = pixel;
},
{
alignment = -1;
pos = (380,114);
ref = pixel;
},
{
alignment = -1;
pos = (418,114);
ref = pixel;
},
{
alignment = -1;
pos = (418,76);
ref = pixel;
},
{
alignment = -1;
pos = (456,38);
ref = pixel;
},
{
alignment = -1;
pos = (494,38);
ref = pixel;
},
{
alignment = -1;
pos = (456,0);
ref = pixel;
},
{
alignment = -1;
pos = (494,0);
ref = pixel;
},
{
alignment = -1;
pos = (304,38);
ref = pixel;
},
{
alignment = -1;
pos = (304,0);
ref = pixel;
},
{
alignment = -1;
pos = (342,38);
ref = pixel;
},
{
alignment = -1;
pos = (380,76);
ref = pixel;
},
{
alignment = -1;
pos = (456,152);
ref = pixel;
},
{
alignment = -1;
pos = (456,190);
ref = pixel;
},
{
alignment = -1;
pos = (494,190);
ref = pixel;
},
{
alignment = -1;
pos = (456,228);
ref = pixel;
},
{
alignment = -1;
pos = (494,228);
ref = pixel;
},
{
alignment = -1;
pos = (456,266);
ref = pixel;
},
{
alignment = -1;
pos = (494,266);
ref = pixel;
},
{
alignment = -1;
pos = (456,76);
ref = pixel;
},
{
alignment = -1;
pos = (418,38);
ref = pixel;
},
{
alignment = -1;
pos = (152,418);
ref = pixel;
},
{
alignment = -1;
pos = (190,418);
ref = pixel;
},
{
alignment = -1;
pos = (152,456);
ref = pixel;
},
{
alignment = -1;
pos = (114,456);
ref = pixel;
},
{
alignment = -1;
pos = (114,494);
ref = pixel;
},
{
alignment = -1;
pos = (152,494);
ref = pixel;
},
{
alignment = -1;
pos = (114,608);
ref = pixel;
},
{
alignment = -1;
pos = (152,646);
ref = pixel;
},
{
alignment = -1;
pos = (152,608);
ref = pixel;
},
{
alignment = -1;
pos = (190,684);
ref = pixel;
},
{
alignment = -1;
pos = (190,646);
ref = pixel;
},
{
alignment = -1;
pos = (228,684);
ref = pixel;
},
{
alignment = -1;
pos = (228,646);
ref = pixel;
},
{
alignment = -1;
pos = (266,646);
ref = pixel;
},
{
alignment = -1;
pos = (266,684);
ref = pixel;
},
{
alignment = -1;
pos = (304,684);
ref = pixel;
},
{
alignment = -1;
pos = (304,646);
ref = pixel;
},
{
alignment = -1;
pos = (342,646);
ref = pixel;
},
{
alignment = -1;
pos = (342,608);
ref = pixel;
},
{
alignment = -1;
pos = (380,608);
ref = pixel;
},
{
alignment = -1;
pos = (266,342);
ref = pixel;
},
{
alignment = -1;
pos = (190,456);
ref = pixel;
},
{
alignment = -1;
pos = (152,570);
ref = pixel;
},
{
alignment = -1;
pos = (152,532);
ref = pixel;
},
{
alignment = -1;
pos = (190,608);
ref = pixel;
},
{
alignment = -1;
pos = (304,608);
ref = pixel;
},
{
alignment = -1;
pos = (304,456);
ref = pixel;
},
{
alignment = -1;
pos = (228,304);
ref = pixel;
},
{
alignment = -1;
pos = (304,304);
ref = pixel;
},
{
alignment = -1;
pos = (38,76);
ref = pixel;
}
);
width = 570;
}
);
metricLeft = O;
metricRight = O;
unicode = 38;
}
{
glyphname = parenleft;
layers = (
{
background = {
shapes = (
{
closed = 1;
nodes = (
(350,-110,l),
(200,34,o),
(157,177,o),
(157,320,cs),
(157,463,o),
(200,607,o),
(350,750,c),
(266,750,l),
(110,612,o),
(70,466,o),
(70,320,cs),
(70,174,o),
(110,28,o),
(266,-110,c)
);
}
);
};
layerId = m01;
shapes = (
{
alignment = -1;
pos = (76,304);
ref = pixel;
},
{
alignment = -1;
pos = (76,342);
ref = pixel;
},
{
alignment = -1;
pos = (76,380);
ref = pixel;
},
{
alignment = -1;
pos = (76,266);
ref = pixel;
},
{
alignment = -1;
pos = (76,228);
ref = pixel;
},
{
alignment = -1;
pos = (76,190);
ref = pixel;
},
{
alignment = -1;
pos = (76,418);
ref = pixel;
},
{
alignment = -1;
pos = (114,418);
ref = pixel;
},
{
alignment = -1;
pos = (114,380);
ref = pixel;
},
{
alignment = -1;
pos = (114,342);
ref = pixel;
},
{
alignment = -1;
pos = (114,304);
ref = pixel;
},
{
alignment = -1;
pos = (114,266);
ref = pixel;
},
{
alignment = -1;
pos = (114,228);
ref = pixel;
},
{
alignment = -1;
pos = (114,190);
ref = pixel;
},
{
alignment = -1;
pos = (114,456);
ref = pixel;
},
{
alignment = -1;
pos = (114,494);
ref = pixel;
},
{
alignment = -1;
pos = (152,494);
ref = pixel;
},
{
alignment = -1;
pos = (114,152);
ref = pixel;
},
{
alignment = -1;
pos = (114,114);
ref = pixel;
},
{
alignment = -1;
pos = (152,114);
ref = pixel;
},
{
alignment = -1;
pos = (152,532);
ref = pixel;
},
{
alignment = -1;
pos = (152,570);
ref = pixel;
},
{
alignment = -1;
pos = (114,532);
ref = pixel;
},
{
alignment = -1;
pos = (114,76);
ref = pixel;
},
{
alignment = -1;
pos = (152,76);
ref = pixel;
},
{
alignment = -1;
pos = (152,38);
ref = pixel;
},
{
alignment = -1;
pos = (190,570);
ref = pixel;
},
{
alignment = -1;
pos = (152,608);
ref = pixel;
},
{
alignment = -1;
pos = (190,608);
ref = pixel;
},
{
alignment = -1;
pos = (266,684);
ref = pixel;
},
{
alignment = -1;
pos = (266,722);
ref = pixel;
},
{
alignment = -1;
pos = (304,722);
ref = pixel;
},
{
alignment = -1;
pos = (304,684);
ref = pixel;
},
{
alignment = -1;
pos = (190,38);
ref = pixel;
},
{
alignment = -1;
pos = (190,0);
ref = pixel;
},
{
alignment = -1;
pos = (152,0);
ref = pixel;
},
{
alignment = -1;
pos = (190,-38);
ref = pixel;
},
{
alignment = -1;
pos = (228,-38);
ref = pixel;
},
{
alignment = -1;
pos = (228,-76);
ref = pixel;
},
{
alignment = -1;
pos = (190,-76);
ref = pixel;
},
{
alignment = -1;
pos = (266,-76);
ref = pixel;
},
{
alignment = -1;
pos = (266,-114);
ref = pixel;
},
{
alignment = -1;
pos = (304,-114);
ref = pixel;
},
{
alignment = -1;
pos = (304,-76);
ref = pixel;
},
{
alignment = -1;
pos = (190,646);
ref = pixel;
},
{
alignment = -1;
pos = (228,646);
ref = pixel;
},
{
alignment = -1;
pos = (228,684);
ref = pixel;
},
{
alignment = -1;
pos = (190,684);
ref = pixel;
},
{
alignment = -1;
pos = (76,456);
ref = pixel;
},
{
alignment = -1;
pos = (76,152);
ref = pixel;
}
);
width = 380;
}
);
metricLeft = H;
metricRight = O;
unicode = 40;
}
{
glyphname = asterisk;
layers = (
{
background = {
shapes = (
{
closed = 1;
nodes = (
(210,488,l),
(277,382,l),
(329,416,l),
(261,518,l),
(381,518,l),
(381,582,l),
(261,582,l),
(329,684,l),
(277,718,l),
(210,611,l),
(144,718,l),
(92,684,l),
(159,582,l),
(39,582,l),
(39,518,l),
(159,518,l),
(92,416,l),
(144,382,l)
);
}
);
};
layerId = m01;
shapes = (
{
alignment = -1;
pos = (76,532);
ref = pixel;
},
{
alignment = -1;
pos = (114,532);
ref = pixel;
},
{
alignment = -1;
pos = (152,532);
ref = pixel;
},
{
alignment = -1;
pos = (190,532);
ref = pixel;
},
{
alignment = -1;
pos = (228,532);
ref = pixel;
},
{
alignment = -1;
pos = (266,532);
ref = pixel;
},
{
alignment = -1;
pos = (304,532);
ref = pixel;
},
{
alignment = -1;
pos = (190,570);
ref = pixel;
},
{
alignment = -1;
pos = (228,608);
ref = pixel;
},
{
alignment = -1;
pos = (190,494);
ref = pixel;
},
{
alignment = -1;
pos = (152,456);
ref = pixel;
},
{
alignment = -1;
pos = (114,418);
ref = pixel;
},
{
alignment = -1;
pos = (228,456);
ref = pixel;
},
{
alignment = -1;
pos = (266,418);
ref = pixel;
},
{
alignment = -1;
pos = (152,570);
ref = pixel;
},
{
alignment = -1;
pos = (152,608);
ref = pixel;
},
{
alignment = -1;
pos = (114,646);
ref = pixel;
},
{
alignment = -1;
pos = (228,570);
ref = pixel;
},
{
alignment = -1;
pos = (152,494);
ref = pixel;
},
{
alignment = -1;
pos = (228,494);
ref = pixel;
},
{
alignment = -1;
pos = (266,646);
ref = pixel;
},
{
alignment = -1;
pos = (114,684);
ref = pixel;
},
{
alignment = -1;
pos = (76,684);
ref = pixel;
},
{
alignment = -1;
pos = (76,646);
ref = pixel;
},
{
alignment = -1;
pos = (266,684);
ref = pixel;
},
{
alignment = -1;
pos = (304,684);
ref = pixel;
},
{
alignment = -1;
pos = (304,646);
ref = pixel;
},
{
alignment = -1;
pos = (76,380);
ref = pixel;
},
{
alignment = -1;
pos = (266,380);
ref = pixel;
},
{
alignment = -1;
pos = (304,418);
ref = pixel;
},
{
alignment = -1;
pos = (304,380);
ref = pixel;
},
{
alignment = -1;
pos = (76,418);
ref = pixel;
},
{
alignment = -1;
pos = (114,380);
ref = pixel;
},
{
alignment = -1;
pos = (114,608);
ref = pixel;
},
{
alignment = -1;
pos = (266,608);
ref = pixel;
},
{
alignment = -1;
pos = (114,456);
ref = pixel;
},
{
alignment = -1;
pos = (266,456);
ref = pixel;
},
{
alignment = -1;
pos = (342,532);
ref = pixel;
},
{
alignment = -1;
pos = (38,532);
ref = pixel;
}
);
width = 418;
}
);
metricLeft = o;
metricRight = o;
unicode = 42;
}
{
glyphname = plus;
layers = (
{
background = {
shapes = (
{
closed = 1;
nodes = (
(305,66,l),
(305,544,l),
(227,544,l),
(227,66,l)
);
},
{
closed = 1;
nodes = (
(505,266,l),
(505,344,l),
(27,344,l),
(27,266,l)
);
}
);
};
layerId = m01;
shapes = (
{
alignment = -1;
pos = (38,304);
ref = pixel;
},
{
alignment = -1;
pos = (38,266);
ref = pixel;
},
{
alignment = -1;
pos = (76,304);
ref = pixel;
},
{
alignment = -1;
pos = (304,304);
ref = pixel;
},
{
alignment = -1;
pos = (342,304);
ref = pixel;
},
{
alignment = -1;
pos = (380,304);
ref = pixel;
},
{
alignment = -1;
pos = (418,304);
ref = pixel;
},
{
alignment = -1;
pos = (456,304);
ref = pixel;
},
{
alignment = -1;
pos = (266,304);
ref = pixel;
},
{
alignment = -1;
pos = (228,304);
ref = pixel;
},
{
alignment = -1;
pos = (190,304);
ref = pixel;
},
{
alignment = -1;
pos = (152,304);
ref = pixel;
},
{
alignment = -1;
pos = (114,304);
ref = pixel;
},
{
alignment = -1;
pos = (456,266);
ref = pixel;
},
{
alignment = -1;
pos = (418,266);
ref = pixel;
},
{
alignment = -1;
pos = (380,266);
ref = pixel;
},
{
alignment = -1;
pos = (342,266);
ref = pixel;
},
{
alignment = -1;
pos = (304,266);
ref = pixel;
},
{
alignment = -1;
pos = (266,266);
ref = pixel;
},
{
alignment = -1;
pos = (228,266);
ref = pixel;
},
{
alignment = -1;
pos = (190,266);
ref = pixel;
},
{
alignment = -1;
pos = (152,266);
ref = pixel;
},
{
alignment = -1;
pos = (114,266);
ref = pixel;
},
{
alignment = -1;
pos = (76,266);
ref = pixel;
},
{
alignment = -1;
pos = (228,494);
ref = pixel;
},
{
alignment = -1;
pos = (266,494);
ref = pixel;
},
{
alignment = -1;
pos = (266,456);
ref = pixel;
},
{
alignment = -1;
pos = (266,418);
ref = pixel;
},
{
alignment = -1;
pos = (266,380);
ref = pixel;
},
{
alignment = -1;
pos = (266,342);
ref = pixel;
},
{
alignment = -1;
pos = (228,342);
ref = pixel;
},
{
alignment = -1;
pos = (228,380);
ref = pixel;
},
{
alignment = -1;
pos = (228,418);
ref = pixel;
},
{
alignment = -1;
pos = (228,456);
ref = pixel;
},
{
alignment = -1;
pos = (228,228);
ref = pixel;
},
{
alignment = -1;
pos = (228,190);
ref = pixel;
},
{
alignment = -1;
pos = (228,152);
ref = pixel;
},
{
alignment = -1;
pos = (228,114);
ref = pixel;
},
{
alignment = -1;
pos = (228,76);
ref = pixel;
},
{
alignment = -1;
pos = (266,76);
ref = pixel;
},
{
alignment = -1;
pos = (266,114);
ref = pixel;
},
{
alignment = -1;
pos = (266,152);
ref = pixel;
},
{
alignment = -1;
pos = (266,190);
ref = pixel;
},
{
alignment = -1;
pos = (266,228);
ref = pixel;
}
);
width = 532;
}
);
metricLeft = o;
metricRight = o;
unicode = 43;
}
{
glyphname = comma;
kernLeft = period;
kernRight = period;
layers = (
{
background = {
shapes = (
{
closed = 1;
nodes = (
(85,-161,l),
(154,0,l),
(85,0,l),
(34,-161,l)
);
},
{
closed = 1;
nodes = (
(157,0,l),
(157,122,l),
(33,122,l),
(33,0,l)
);
}
);
};
layerId = m01;
shapes = (
{
alignment = -1;
pos = (38,0);
ref = pixel;
},
{
alignment = -1;
pos = (76,0);
ref = pixel;
},
{
alignment = -1;
pos = (114,0);
ref = pixel;
},
{
alignment = -1;
pos = (38,38);
ref = pixel;
},
{
alignment = -1;
pos = (76,38);
ref = pixel;
},
{
alignment = -1;
pos = (114,38);
ref = pixel;
},
{
alignment = -1;
pos = (38,76);
ref = pixel;
},
{
alignment = -1;
pos = (76,76);
ref = pixel;
},
{
alignment = -1;
pos = (114,76);
ref = pixel;
},
{
alignment = -1;
pos = (38,-152);
ref = pixel;
},
{
alignment = -1;
pos = (114,-38);
ref = pixel;
},
{
alignment = -1;
pos = (76,-38);
ref = pixel;
},
{
alignment = -1;
pos = (76,-76);
ref = pixel;
},
{
alignment = -1;
pos = (114,-76);
ref = pixel;
},
{
alignment = -1;
pos = (76,-114);
ref = pixel;
}
);
width = 190;
}
);
metricLeft = o;
metricRight = o;
unicode = 44;
}
{
glyphname = hyphen;
kernLeft = hyphen;
kernRight = hyphen;
layers = (
{
background = {
shapes = (
{
closed = 1;
nodes = (
(372,252,l),
(372,331,l),
(12,331,l),
(12,252,l)
);
},
{
closed = 1;
nodes = (
(372,252,l),
(372,331,l),
(12,331,l),
(12,252,l)
);
}
);
};
layerId = m01;
shapes = (
{
alignment = -1;
pos = (38,266);
ref = pixel;
},
{
alignment = -1;
pos = (76,266);
ref = pixel;
},
{
alignment = -1;
pos = (114,266);
ref = pixel;
},
{
alignment = -1;
pos = (152,266);
ref = pixel;
},
{
alignment = -1;
pos = (190,266);
ref = pixel;
},
{
alignment = -1;
pos = (228,266);
ref = pixel;
},
{
alignment = -1;
pos = (266,266);
ref = pixel;
},
{
alignment = -1;
pos = (304,266);
ref = pixel;
},
{
alignment = -1;
pos = (38,304);
ref = pixel;
},
{
alignment = -1;
pos = (76,304);
ref = pixel;
},
{
alignment = -1;
pos = (114,304);
ref = pixel;
},
{
alignment = -1;
pos = (152,304);
ref = pixel;
},
{
alignment = -1;
pos = (190,304);
ref = pixel;
},
{
alignment = -1;
pos = (228,304);
ref = pixel;
},
{
alignment = -1;
pos = (266,304);
ref = pixel;
},
{
alignment = -1;
pos = (304,304);
ref = pixel;
}
);
width = 380;
}
);
metricLeft = o;
metricRight = o;
unicode = 45;
}
{
glyphname = slash;
layers = (
{
background = {
shapes = (
{
closed = 1;
nodes = (
(116,-110,l),
(411,750,l),
(331,750,l),
(36,-110,l)
);
}
);
};
layerId = m01;
shapes = (
{
alignment = -1;
pos = (38,-114);
ref = pixel;
},
{
alignment = -1;
pos = (76,-114);
ref = pixel;
},
{
alignment = -1;
pos = (38,-76);
ref = pixel;
},
{
alignment = -1;
pos = (76,-76);
ref = pixel;
},
{
alignment = -1;
pos = (76,-38);
ref = pixel;
},
{
alignment = -1;
pos = (114,0);
ref = pixel;
},
{
alignment = -1;
pos = (76,0);
ref = pixel;
},
{
alignment = -1;
pos = (114,38);
ref = pixel;
},
{
alignment = -1;
pos = (114,76);
ref = pixel;
},
{
alignment = -1;
pos = (152,114);
ref = pixel;
},
{
alignment = -1;
pos = (152,152);
ref = pixel;
},
{
alignment = -1;
pos = (38,-38);
ref = pixel;
},
{
alignment = -1;
pos = (76,38);
ref = pixel;
},
{
alignment = -1;
pos = (76,76);
ref = pixel;
},
{
alignment = -1;
pos = (114,114);
ref = pixel;
},
{
alignment = -1;
pos = (114,152);
ref = pixel;
},
{
alignment = -1;
pos = (114,190);
ref = pixel;
},
{
alignment = -1;
pos = (152,190);
ref = pixel;
},
{
alignment = -1;
pos = (152,228);
ref = pixel;
},
{
alignment = -1;
pos = (152,266);
ref = pixel;
},
{
alignment = -1;
pos = (152,304);
ref = pixel;
},
{
alignment = -1;
pos = (190,304);
ref = pixel;
},
{
alignment = -1;
pos = (190,266);
ref = pixel;
},
{
alignment = -1;
pos = (190,228);
ref = pixel;
},
{
alignment = -1;
pos = (190,342);
ref = pixel;
},
{
alignment = -1;
pos = (190,380);
ref = pixel;
},
{
alignment = -1;
pos = (190,418);
ref = pixel;
},
{
alignment = -1;
pos = (228,418);
ref = pixel;
},
{
alignment = -1;
pos = (228,380);
ref = pixel;
},
{
alignment = -1;
pos = (228,342);
ref = pixel;
},
{
alignment = -1;
pos = (228,456);
ref = pixel;
},
{
alignment = -1;
pos = (266,456);
ref = pixel;
},
{
alignment = -1;
pos = (266,494);
ref = pixel;
},
{
alignment = -1;
pos = (266,532);
ref = pixel;
},
{
alignment = -1;
pos = (228,532);
ref = pixel;
},
{
alignment = -1;
pos = (228,494);
ref = pixel;
},
{
alignment = -1;
pos = (266,570);
ref = pixel;
},
{
alignment = -1;
pos = (266,608);
ref = pixel;
},
{
alignment = -1;
pos = (266,646);
ref = pixel;
},
{
alignment = -1;
pos = (304,646);
ref = pixel;
},
{
alignment = -1;
pos = (304,608);
ref = pixel;
},
{
alignment = -1;
pos = (304,570);
ref = pixel;
},
{
alignment = -1;
pos = (304,684);
ref = pixel;
},
{
alignment = -1;
pos = (304,722);
ref = pixel;
},
{
alignment = -1;
pos = (304,760);
ref = pixel;
},
{
alignment = -1;
pos = (342,760);
ref = pixel;
},
{
alignment = -1;
pos = (342,722);
ref = pixel;
},
{
alignment = -1;
pos = (342,684);
ref = pixel;
}
);
width = 418;
}
);
metricLeft = o;
metricRight = o;
unicode = 47;
}
{
glyphname = zero;
kernLeft = zero;
kernRight = zero;
layers = (
{
background = {
shapes = (
{
closed = 1;
nodes = (
(436,-8,o),
(531,135,o),
(531,362,cs),
(531,591,o),
(436,734,o),
(281,734,cs),
(126,734,o),
(31,591,o),
(31,362,cs),
(31,135,o),
(126,-8,o),
(281,-8,cs)
);
},
{
closed = 1;
nodes = (
(182,76,o),
(121,187,o),
(121,362,cs),
(121,539,o),
(182,650,o),
(281,650,cs),
(380,650,o),
(441,539,o),
(441,362,cs),
(441,187,o),
(380,76,o),
(281,76,cs)
);
},
{
closed = 1;
nodes = (
(173,98,l),
(453,608,l),
(373,612,l),
(93,102,l)
);
}
);
};
layerId = m01;
shapes = (
{
alignment = -1;
pos = (38,342);
ref = pixel;
},
{
alignment = -1;
pos = (76,342);
ref = pixel;
},
{
alignment = -1;
pos = (76,304);
ref = pixel;
},
{
alignment = -1;
pos = (38,304);
ref = pixel;
},
{
alignment = -1;
pos = (38,380);
ref = pixel;
},
{
alignment = -1;
pos = (76,380);
ref = pixel;
},
{
alignment = -1;
pos = (76,418);
ref = pixel;
},
{
alignment = -1;
pos = (38,418);
ref = pixel;
},
{
alignment = -1;
pos = (38,266);
ref = pixel;
},
{
alignment = -1;
pos = (38,228);
ref = pixel;
},
{
alignment = -1;
pos = (76,228);
ref = pixel;
},
{
alignment = -1;
pos = (76,266);
ref = pixel;
},
{
alignment = -1;
pos = (114,646);
ref = pixel;
},
{
alignment = -1;
pos = (152,646);
ref = pixel;
},
{
alignment = -1;
pos = (190,646);
ref = pixel;
},
{
alignment = -1;
pos = (228,646);
ref = pixel;
},
{
alignment = -1;
pos = (266,646);
ref = pixel;
},
{
alignment = -1;
pos = (304,646);
ref = pixel;
},
{
alignment = -1;
pos = (342,646);
ref = pixel;
},
{
alignment = -1;
pos = (380,646);
ref = pixel;
},
{
alignment = -1;
pos = (418,646);
ref = pixel;
},
{
alignment = -1;
pos = (190,684);
ref = pixel;
},
{
alignment = -1;
pos = (228,684);
ref = pixel;
},
{
alignment = -1;
pos = (266,684);
ref = pixel;
},
{
alignment = -1;
pos = (304,684);
ref = pixel;
},
{
alignment = -1;
pos = (342,684);
ref = pixel;
},
{
alignment = -1;
pos = (114,608);
ref = pixel;
},
{
alignment = -1;
pos = (114,570);
ref = pixel;
},
{
alignment = -1;
pos = (114,532);
ref = pixel;
},
{
alignment = -1;
pos = (76,494);
ref = pixel;
},
{
alignment = -1;
pos = (76,456);
ref = pixel;
},
{
alignment = -1;
pos = (418,608);
ref = pixel;
},
{
alignment = -1;
pos = (418,570);
ref = pixel;
},
{
alignment = -1;
pos = (418,532);
ref = pixel;
},
{
alignment = -1;
pos = (456,494);
ref = pixel;
},
{
alignment = -1;
pos = (456,456);
ref = pixel;
},
{
alignment = -1;
pos = (456,418);
ref = pixel;
},
{
alignment = -1;
pos = (456,380);
ref = pixel;
},
{
alignment = -1;
pos = (456,342);
ref = pixel;
},
{
alignment = -1;
pos = (456,304);
ref = pixel;
},
{
alignment = -1;
pos = (456,266);
ref = pixel;
},
{
alignment = -1;
pos = (456,228);
ref = pixel;
},
{
alignment = -1;
pos = (456,190);
ref = pixel;
},
{
alignment = -1;
pos = (456,152);
ref = pixel;
},
{
alignment = -1;
pos = (456,114);
ref = pixel;
},
{
alignment = -1;
pos = (76,190);
ref = pixel;
},
{
alignment = -1;
pos = (76,152);
ref = pixel;
},
{
alignment = -1;
pos = (76,114);
ref = pixel;
},
{
alignment = -1;
pos = (38,190);
ref = pixel;
},
{
alignment = -1;
pos = (494,190);
ref = pixel;
},
{
alignment = -1;
pos = (494,228);
ref = pixel;
},
{
alignment = -1;
pos = (494,266);
ref = pixel;
},
{
alignment = -1;
pos = (494,304);
ref = pixel;
},
{
alignment = -1;
pos = (494,342);
ref = pixel;
},
{
alignment = -1;
pos = (494,380);
ref = pixel;
},
{
alignment = -1;
pos = (494,418);
ref = pixel;
},
{
alignment = -1;
pos = (494,456);
ref = pixel;
},
{
alignment = -1;
pos = (38,456);
ref = pixel;
},
{
alignment = -1;
pos = (76,532);
ref = pixel;
},
{
alignment = -1;
pos = (76,570);
ref = pixel;
},
{
alignment = -1;
pos = (456,532);
ref = pixel;
},
{
alignment = -1;
pos = (456,570);
ref = pixel;
},
{
alignment = -1;
pos = (38,494);
ref = pixel;
},
{
alignment = -1;
pos = (494,494);
ref = pixel;
},
{
alignment = -1;
pos = (114,152);
ref = pixel;
},
{
alignment = -1;
pos = (114,114);
ref = pixel;
},
{
alignment = -1;
pos = (114,76);
ref = pixel;
},
{
alignment = -1;
pos = (114,38);
ref = pixel;
},
{
alignment = -1;
pos = (418,152);
ref = pixel;
},
{
alignment = -1;
pos = (418,114);
ref = pixel;
},
{
alignment = -1;
pos = (418,76);
ref = pixel;
},
{
alignment = -1;
pos = (418,38);
ref = pixel;
},
{
alignment = -1;
pos = (152,76);
ref = pixel;
},
{
alignment = -1;
pos = (152,38);
ref = pixel;
},
{
alignment = -1;
pos = (380,76);
ref = pixel;
},
{
alignment = -1;
pos = (380,38);
ref = pixel;
},
{
alignment = -1;
pos = (152,608);
ref = pixel;
},
{
alignment = -1;
pos = (380,608);
ref = pixel;
},
{
alignment = -1;
pos = (190,38);
ref = pixel;
},
{
alignment = -1;
pos = (228,0);
ref = pixel;
},
{
alignment = -1;
pos = (228,38);
ref = pixel;
},
{
alignment = -1;
pos = (266,38);
ref = pixel;
},
{
alignment = -1;
pos = (266,0);
ref = pixel;
},
{
alignment = -1;
pos = (304,0);
ref = pixel;
},
{
alignment = -1;
pos = (304,38);
ref = pixel;
},
{
alignment = -1;
pos = (342,38);
ref = pixel;
},
{
alignment = -1;
pos = (190,0);
ref = pixel;
},
{
alignment = -1;
pos = (342,0);
ref = pixel;
},
{
alignment = -1;
pos = (190,190);
ref = pixel;
},
{
alignment = -1;
pos = (190,228);
ref = pixel;
},
{
alignment = -1;
pos = (228,228);
ref = pixel;
},
{
alignment = -1;
pos = (228,266);
ref = pixel;
},
{
alignment = -1;
pos = (228,304);
ref = pixel;
},
{
alignment = -1;
pos = (266,342);
ref = pixel;
},
{
alignment = -1;
pos = (266,380);
ref = pixel;
},
{
alignment = -1;
pos = (304,380);
ref = pixel;
},
{
alignment = -1;
pos = (304,418);
ref = pixel;
},
{
alignment = -1;
pos = (304,456);
ref = pixel;
},
{
alignment = -1;
pos = (342,456);
ref = pixel;
},
{
alignment = -1;
pos = (342,494);
ref = pixel;
},
{
alignment = -1;
pos = (342,532);
ref = pixel;
},
{
alignment = -1;
pos = (380,570);
ref = pixel;
},
{
alignment = -1;
pos = (380,532);
ref = pixel;
},
{
alignment = -1;
pos = (228,190);
ref = pixel;
},
{
alignment = -1;
pos = (266,266);
ref = pixel;
},
{
alignment = -1;
pos = (266,304);
ref = pixel;
},
{
alignment = -1;
pos = (304,342);
ref = pixel;
},
{
alignment = -1;
pos = (342,418);
ref = pixel;
},
{
alignment = -1;
pos = (380,494);
ref = pixel;
},
{
alignment = -1;
pos = (152,152);
ref = pixel;
},
{
alignment = -1;
pos = (190,152);
ref = pixel;
},
{
alignment = -1;
pos = (190,114);
ref = pixel;
},
{
alignment = -1;
pos = (152,114);
ref = pixel;
}
);
width = 570;
},
{
associatedMasterId = m01;
background = {
shapes = (
{
closed = 1;
nodes = (
(474,-8,o),
(569,135,o),
(569,362,cs),
(569,591,o),
(474,734,o),
(319,734,cs),
(164,734,o),
(69,591,o),
(69,362,cs),
(69,135,o),
(164,-8,o),
(319,-8,cs)
);
},
{
closed = 1;
nodes = (
(220,76,o),
(159,187,o),
(159,362,cs),
(159,539,o),
(220,650,o),
(319,650,cs),
(418,650,o),
(479,539,o),
(479,362,cs),
(479,187,o),
(418,76,o),
(319,76,cs)
);
},
{
closed = 1;
nodes = (
(211,98,l),
(491,608,l),
(411,612,l),
(131,102,l)
);
}
);
};
layerId = "243F305E-D636-4674-99A9-BC8DC7AC68C4";
name = "1 Dec 25 at 15:17";
shapes = (
{
alignment = -1;
pos = (76,342);
ref = pixel;
},
{
alignment = -1;
pos = (114,342);
ref = pixel;
},
{
alignment = -1;
pos = (114,304);
ref = pixel;
},
{
alignment = -1;
pos = (76,304);
ref = pixel;
},
{
alignment = -1;
pos = (76,380);
ref = pixel;
},
{
alignment = -1;
pos = (114,380);
ref = pixel;
},
{
alignment = -1;
pos = (114,418);
ref = pixel;
},
{
alignment = -1;
pos = (76,418);
ref = pixel;
},
{
alignment = -1;
pos = (76,266);
ref = pixel;
},
{
alignment = -1;
pos = (76,228);
ref = pixel;
},
{
alignment = -1;
pos = (114,228);
ref = pixel;
},
{
alignment = -1;
pos = (114,266);
ref = pixel;
},
{
alignment = -1;
pos = (152,646);
ref = pixel;
},
{
alignment = -1;
pos = (190,646);
ref = pixel;
},
{
alignment = -1;
pos = (228,646);
ref = pixel;
},
{
alignment = -1;
pos = (266,646);
ref = pixel;
},
{
alignment = -1;
pos = (304,646);
ref = pixel;
},
{
alignment = -1;
pos = (342,646);
ref = pixel;
},
{
alignment = -1;
pos = (380,646);
ref = pixel;
},
{
alignment = -1;
pos = (418,646);
ref = pixel;
},
{
alignment = -1;
pos = (456,646);
ref = pixel;
},
{
alignment = -1;
pos = (228,684);
ref = pixel;
},
{
alignment = -1;
pos = (266,684);
ref = pixel;
},
{
alignment = -1;
pos = (304,684);
ref = pixel;
},
{
alignment = -1;
pos = (342,684);
ref = pixel;
},
{
alignment = -1;
pos = (380,684);
ref = pixel;
},
{
alignment = -1;
pos = (152,608);
ref = pixel;
},
{
alignment = -1;
pos = (152,570);
ref = pixel;
},
{
alignment = -1;
pos = (152,532);
ref = pixel;
},
{
alignment = -1;
pos = (114,494);
ref = pixel;
},
{
alignment = -1;
pos = (114,456);
ref = pixel;
},
{
alignment = -1;
pos = (456,608);
ref = pixel;
},
{
alignment = -1;
pos = (456,570);
ref = pixel;
},
{
alignment = -1;
pos = (456,532);
ref = pixel;
},
{
alignment = -1;
pos = (494,494);
ref = pixel;
},
{
alignment = -1;
pos = (494,456);
ref = pixel;
},
{
alignment = -1;
pos = (494,418);
ref = pixel;
},
{
alignment = -1;
pos = (494,380);
ref = pixel;
},
{
alignment = -1;
pos = (494,342);
ref = pixel;
},
{
alignment = -1;
pos = (494,304);
ref = pixel;
},
{
alignment = -1;
pos = (494,266);
ref = pixel;
},
{
alignment = -1;
pos = (494,228);
ref = pixel;
},
{
alignment = -1;
pos = (494,190);
ref = pixel;
},
{
alignment = -1;
pos = (494,152);
ref = pixel;
},
{
alignment = -1;
pos = (494,114);
ref = pixel;
},
{
alignment = -1;
pos = (114,190);
ref = pixel;
},
{
alignment = -1;
pos = (114,152);
ref = pixel;
},
{
alignment = -1;
pos = (114,114);
ref = pixel;
},
{
alignment = -1;
pos = (76,190);
ref = pixel;
},
{
alignment = -1;
pos = (532,190);
ref = pixel;
},
{
alignment = -1;
pos = (532,228);
ref = pixel;
},
{
alignment = -1;
pos = (532,266);
ref = pixel;
},
{
alignment = -1;
pos = (532,304);
ref = pixel;
},
{
alignment = -1;
pos = (532,342);
ref = pixel;
},
{
alignment = -1;
pos = (532,380);
ref = pixel;
},
{
alignment = -1;
pos = (532,418);
ref = pixel;
},
{
alignment = -1;
pos = (532,456);
ref = pixel;
},
{
alignment = -1;
pos = (76,456);
ref = pixel;
},
{
alignment = -1;
pos = (114,532);
ref = pixel;
},
{
alignment = -1;
pos = (114,570);
ref = pixel;
},
{
alignment = -1;
pos = (494,532);
ref = pixel;
},
{
alignment = -1;
pos = (494,570);
ref = pixel;
},
{
alignment = -1;
pos = (76,494);
ref = pixel;
},
{
alignment = -1;
pos = (532,494);
ref = pixel;
},
{
alignment = -1;
pos = (152,152);
ref = pixel;
},
{
alignment = -1;
pos = (152,114);
ref = pixel;
},
{
alignment = -1;
pos = (152,76);
ref = pixel;
},
{
alignment = -1;
pos = (152,38);
ref = pixel;
},
{
alignment = -1;
pos = (456,152);
ref = pixel;
},
{
alignment = -1;
pos = (456,114);
ref = pixel;
},
{
alignment = -1;
pos = (456,76);
ref = pixel;
},
{
alignment = -1;
pos = (456,38);
ref = pixel;
},
{
alignment = -1;
pos = (190,76);
ref = pixel;
},
{
alignment = -1;
pos = (190,38);
ref = pixel;
},
{
alignment = -1;
pos = (418,76);
ref = pixel;
},
{
alignment = -1;
pos = (418,38);
ref = pixel;
},
{
alignment = -1;
pos = (190,608);
ref = pixel;
},
{
alignment = -1;
pos = (418,608);
ref = pixel;
},
{
alignment = -1;
pos = (228,38);
ref = pixel;
},
{
alignment = -1;
pos = (266,0);
ref = pixel;
},
{
alignment = -1;
pos = (266,38);
ref = pixel;
},
{
alignment = -1;
pos = (304,38);
ref = pixel;
},
{
alignment = -1;
pos = (304,0);
ref = pixel;
},
{
alignment = -1;
pos = (342,0);
ref = pixel;
},
{
alignment = -1;
pos = (342,38);
ref = pixel;
},
{
alignment = -1;
pos = (380,38);
ref = pixel;
},
{
alignment = -1;
pos = (228,0);
ref = pixel;
},
{
alignment = -1;
pos = (380,0);
ref = pixel;
}
);
width = 650;
}
);
metricLeft = O;
metricRight = O;
unicode = 48;
}
{
glyphname = one;
kernLeft = one;
kernRight = H;
layers = (
{
background = {
shapes = (
{
closed = 1;
nodes = (
(309,0,l),
(309,710,l),
(241,710,l),
(241,626,o),
(213,600,o),
(135,600,cs),
(75,600,l),
(75,526,l),
(223,526,l),
(223,0,l)
);
}
);
};
layerId = m01;
shapes = (
{
alignment = -1;
pos = (228,0);
ref = pixel;
},
{
alignment = -1;
pos = (266,0);
ref = pixel;
},
{
alignment = -1;
pos = (266,38);
ref = pixel;
},
{
alignment = -1;
pos = (228,38);
ref = pixel;
},
{
alignment = -1;
pos = (228,608);
ref = pixel;
},
{
alignment = -1;
pos = (228,570);
ref = pixel;
},
{
alignment = -1;
pos = (228,532);
ref = pixel;
},
{
alignment = -1;
pos = (228,494);
ref = pixel;
},
{
alignment = -1;
pos = (228,456);
ref = pixel;
},
{
alignment = -1;
pos = (228,418);
ref = pixel;
},
{
alignment = -1;
pos = (228,380);
ref = pixel;
},
{
alignment = -1;
pos = (228,304);
ref = pixel;
},
{
alignment = -1;
pos = (228,266);
ref = pixel;
},
{
alignment = -1;
pos = (228,228);
ref = pixel;
},
{
alignment = -1;
pos = (228,190);
ref = pixel;
},
{
alignment = -1;
pos = (228,152);
ref = pixel;
},
{
alignment = -1;
pos = (228,114);
ref = pixel;
},
{
alignment = -1;
pos = (228,76);
ref = pixel;
},
{
alignment = -1;
pos = (228,342);
ref = pixel;
},
{
alignment = -1;
pos = (266,684);
ref = pixel;
},
{
alignment = -1;
pos = (266,646);
ref = pixel;
},
{
alignment = -1;
pos = (266,608);
ref = pixel;
},
{
alignment = -1;
pos = (266,570);
ref = pixel;
},
{
alignment = -1;
pos = (266,532);
ref = pixel;
},
{
alignment = -1;
pos = (266,494);
ref = pixel;
},
{
alignment = -1;
pos = (266,456);
ref = pixel;
},
{
alignment = -1;
pos = (266,418);
ref = pixel;
},
{
alignment = -1;
pos = (266,380);
ref = pixel;
},
{
alignment = -1;
pos = (266,342);
ref = pixel;
},
{
alignment = -1;
pos = (266,304);
ref = pixel;
},
{
alignment = -1;
pos = (266,266);
ref = pixel;
},
{
alignment = -1;
pos = (266,228);
ref = pixel;
},
{
alignment = -1;
pos = (266,190);
ref = pixel;
},
{
alignment = -1;
pos = (266,152);
ref = pixel;
},
{
alignment = -1;
pos = (266,114);
ref = pixel;
},
{
alignment = -1;
pos = (266,76);
ref = pixel;
},
{
alignment = -1;
pos = (190,532);
ref = pixel;
},
{
alignment = -1;
pos = (152,532);
ref = pixel;
},
{
alignment = -1;
pos = (114,532);
ref = pixel;
},
{
alignment = -1;
pos = (76,532);
ref = pixel;
},
{
alignment = -1;
pos = (76,570);
ref = pixel;
},
{
alignment = -1;
pos = (114,570);
ref = pixel;
},
{
alignment = -1;
pos = (152,570);
ref = pixel;
},
{
alignment = -1;
pos = (190,570);
ref = pixel;
},
{
alignment = -1;
pos = (228,646);
ref = pixel;
},
{
alignment = -1;
pos = (228,684);
ref = pixel;
},
{
alignment = -1;
pos = (190,38);
ref = pixel;
},
{
alignment = -1;
pos = (190,0);
ref = pixel;
},
{
alignment = -1;
pos = (152,0);
ref = pixel;
},
{
alignment = -1;
pos = (152,38);
ref = pixel;
},
{
alignment = -1;
pos = (114,38);
ref = pixel;
},
{
alignment = -1;
pos = (114,0);
ref = pixel;
},
{
alignment = -1;
pos = (304,38);
ref = pixel;
},
{
alignment = -1;
pos = (304,0);
ref = pixel;
},
{
alignment = -1;
pos = (342,0);
ref = pixel;
},
{
alignment = -1;
pos = (342,38);
ref = pixel;
},
{
alignment = -1;
pos = (380,38);
ref = pixel;
},
{
alignment = -1;
pos = (380,0);
ref = pixel;
},
{
alignment = -1;
pos = (76,38);
ref = pixel;
},
{
alignment = -1;
pos = (76,0);
ref = pixel;
}
);
width = 494;
}
);
metricLeft = H;
metricRight = H;
unicode = 49;
}
{
glyphname = two;
kernLeft = two;
kernRight = two;
layers = (
{
background = {
shapes = (
{
closed = 1;
nodes = (
(575,0,l),
(575,84,l),
(182,84,l),
(186,138,o),
(252,212,o),
(380,280,cs),
(527,358,o),
(575,412,o),
(575,520,cs),
(575,642,o),
(489,726,o),
(343,726,cs),
(189,726,o),
(96,637,o),
(80,498,c),
(170,492,l),
(185,588,o),
(243,642,o),
(343,642,cs),
(437,642,o),
(485,591,o),
(485,518,cs),
(485,446,o),
(446,414,o),
(348,362,cs),
(135,249,o),
(76,150,o),
(76,0,c)
);
}
);
};
layerId = m01;
shapes = (
{
alignment = -1;
pos = (114,0);
ref = pixel;
},
{
alignment = -1;
pos = (114,38);
ref = pixel;
},
{
alignment = -1;
pos = (152,38);
ref = pixel;
},
{
alignment = -1;
pos = (190,38);
ref = pixel;
},
{
alignment = -1;
pos = (228,38);
ref = pixel;
},
{
alignment = -1;
pos = (266,38);
ref = pixel;
},
{
alignment = -1;
pos = (304,38);
ref = pixel;
},
{
alignment = -1;
pos = (342,38);
ref = pixel;
},
{
alignment = -1;
pos = (380,38);
ref = pixel;
},
{
alignment = -1;
pos = (418,38);
ref = pixel;
},
{
alignment = -1;
pos = (456,38);
ref = pixel;
},
{
alignment = -1;
pos = (494,38);
ref = pixel;
},
{
alignment = -1;
pos = (532,38);
ref = pixel;
},
{
alignment = -1;
pos = (532,0);
ref = pixel;
},
{
alignment = -1;
pos = (494,0);
ref = pixel;
},
{
alignment = -1;
pos = (456,0);
ref = pixel;
},
{
alignment = -1;
pos = (418,0);
ref = pixel;
},
{
alignment = -1;
pos = (380,0);
ref = pixel;
},
{
alignment = -1;
pos = (342,0);
ref = pixel;
},
{
alignment = -1;
pos = (304,0);
ref = pixel;
},
{
alignment = -1;
pos = (266,0);
ref = pixel;
},
{
alignment = -1;
pos = (228,0);
ref = pixel;
},
{
alignment = -1;
pos = (190,0);
ref = pixel;
},
{
alignment = -1;
pos = (152,0);
ref = pixel;
},
{
alignment = -1;
pos = (114,76);
ref = pixel;
},
{
alignment = -1;
pos = (152,76);
ref = pixel;
},
{
alignment = -1;
pos = (152,114);
ref = pixel;
},
{
alignment = -1;
pos = (114,114);
ref = pixel;
},
{
alignment = -1;
pos = (152,152);
ref = pixel;
},
{
alignment = -1;
pos = (190,152);
ref = pixel;
},
{
alignment = -1;
pos = (190,190);
ref = pixel;
},
{
alignment = -1;
pos = (152,190);
ref = pixel;
},
{
alignment = -1;
pos = (228,228);
ref = pixel;
},
{
alignment = -1;
pos = (228,266);
ref = pixel;
},
{
alignment = -1;
pos = (266,266);
ref = pixel;
},
{
alignment = -1;
pos = (266,228);
ref = pixel;
},
{
alignment = -1;
pos = (304,304);
ref = pixel;
},
{
alignment = -1;
pos = (342,342);
ref = pixel;
},
{
alignment = -1;
pos = (342,304);
ref = pixel;
},
{
alignment = -1;
pos = (380,304);
ref = pixel;
},
{
alignment = -1;
pos = (380,342);
ref = pixel;
},
{
alignment = -1;
pos = (418,380);
ref = pixel;
},
{
alignment = -1;
pos = (418,342);
ref = pixel;
},
{
alignment = -1;
pos = (456,342);
ref = pixel;
},
{
alignment = -1;
pos = (456,380);
ref = pixel;
},
{
alignment = -1;
pos = (494,418);
ref = pixel;
},
{
alignment = -1;
pos = (494,380);
ref = pixel;
},
{
alignment = -1;
pos = (494,456);
ref = pixel;
},
{
alignment = -1;
pos = (532,456);
ref = pixel;
},
{
alignment = -1;
pos = (532,494);
ref = pixel;
},
{
alignment = -1;
pos = (494,494);
ref = pixel;
},
{
alignment = -1;
pos = (532,532);
ref = pixel;
},
{
alignment = -1;
pos = (494,532);
ref = pixel;
},
{
alignment = -1;
pos = (494,570);
ref = pixel;
},
{
alignment = -1;
pos = (532,570);
ref = pixel;
},
{
alignment = -1;
pos = (494,608);
ref = pixel;
},
{
alignment = -1;
pos = (456,608);
ref = pixel;
},
{
alignment = -1;
pos = (418,646);
ref = pixel;
},
{
alignment = -1;
pos = (456,646);
ref = pixel;
},
{
alignment = -1;
pos = (380,646);
ref = pixel;
},
{
alignment = -1;
pos = (380,684);
ref = pixel;
},
{
alignment = -1;
pos = (342,684);
ref = pixel;
},
{
alignment = -1;
pos = (342,646);
ref = pixel;
},
{
alignment = -1;
pos = (304,684);
ref = pixel;
},
{
alignment = -1;
pos = (304,646);
ref = pixel;
},
{
alignment = -1;
pos = (266,646);
ref = pixel;
},
{
alignment = -1;
pos = (228,646);
ref = pixel;
},
{
alignment = -1;
pos = (190,646);
ref = pixel;
},
{
alignment = -1;
pos = (190,608);
ref = pixel;
},
{
alignment = -1;
pos = (152,608);
ref = pixel;
},
{
alignment = -1;
pos = (152,570);
ref = pixel;
},
{
alignment = -1;
pos = (114,570);
ref = pixel;
},
{
alignment = -1;
pos = (114,608);
ref = pixel;
},
{
alignment = -1;
pos = (114,532);
ref = pixel;
},
{
alignment = -1;
pos = (114,494);
ref = pixel;
},
{
alignment = -1;
pos = (76,532);
ref = pixel;
},
{
alignment = -1;
pos = (76,494);
ref = pixel;
},
{
alignment = -1;
pos = (76,38);
ref = pixel;
},
{
alignment = -1;
pos = (76,0);
ref = pixel;
},
{
alignment = -1;
pos = (304,266);
ref = pixel;
},
{
alignment = -1;
pos = (190,228);
ref = pixel;
},
{
alignment = -1;
pos = (228,190);
ref = pixel;
},
{
alignment = -1;
pos = (266,304);
ref = pixel;
},
{
alignment = -1;
pos = (266,684);
ref = pixel;
},
{
alignment = -1;
pos = (228,684);
ref = pixel;
},
{
alignment = -1;
pos = (152,646);
ref = pixel;
},
{
alignment = -1;
pos = (418,684);
ref = pixel;
},
{
alignment = -1;
pos = (532,418);
ref = pixel;
},
{
alignment = -1;
pos = (456,418);
ref = pixel;
},
{
alignment = -1;
pos = (494,646);
ref = pixel;
}
);
width = 646;
}
);
metricLeft = H;
metricRight = H;
unicode = 50;
}
{
glyphname = three;
kernLeft = three;
kernRight = three;
layers = (
{
background = {
shapes = (
{
closed = 1;
nodes = (
(432,-16,o),
(540,62,o),
(540,198,cs),
(540,302,o),
(467,376,o),
(351,390,c),
(351,372,l),
(459,392,o),
(515,446,o),
(515,534,cs),
(515,652,o),
(427,726,o),
(289,726,cs),
(151,726,o),
(69,653,o),
(56,547,c),
(146,541,l),
(155,604,o),
(199,642,o),
(289,642,cs),
(377,642,o),
(425,603,o),
(425,530,cs),
(425,449,o),
(363,419,o),
(289,419,cs),
(233,419,l),
(233,335,l),
(289,335,ls),
(381,335,o),
(450,292,o),
(450,198,cs),
(450,102,o),
(370,68,o),
(284,68,cs),
(199,68,o),
(137,102,o),
(129,189,c),
(40,183,l),
(46,66,o),
(130,-16,o),
(284,-16,cs)
);
}
);
};
layerId = m01;
shapes = (
{
alignment = -1;
pos = (76,532);
ref = pixel;
},
{
alignment = -1;
pos = (114,532);
ref = pixel;
},
{
alignment = -1;
pos = (76,570);
ref = pixel;
},
{
alignment = -1;
pos = (114,570);
ref = pixel;
},
{
alignment = -1;
pos = (114,608);
ref = pixel;
},
{
alignment = -1;
pos = (152,608);
ref = pixel;
},
{
alignment = -1;
pos = (152,646);
ref = pixel;
},
{
alignment = -1;
pos = (114,646);
ref = pixel;
},
{
alignment = -1;
pos = (190,684);
ref = pixel;
},
{
alignment = -1;
pos = (190,646);
ref = pixel;
},
{
alignment = -1;
pos = (228,646);
ref = pixel;
},
{
alignment = -1;
pos = (228,684);
ref = pixel;
},
{
alignment = -1;
pos = (266,684);
ref = pixel;
},
{
alignment = -1;
pos = (266,646);
ref = pixel;
},
{
alignment = -1;
pos = (304,646);
ref = pixel;
},
{
alignment = -1;
pos = (304,684);
ref = pixel;
},
{
alignment = -1;
pos = (342,684);
ref = pixel;
},
{
alignment = -1;
pos = (380,684);
ref = pixel;
},
{
alignment = -1;
pos = (380,646);
ref = pixel;
},
{
alignment = -1;
pos = (342,646);
ref = pixel;
},
{
alignment = -1;
pos = (418,646);
ref = pixel;
},
{
alignment = -1;
pos = (380,608);
ref = pixel;
},
{
alignment = -1;
pos = (418,608);
ref = pixel;
},
{
alignment = -1;
pos = (456,608);
ref = pixel;
},
{
alignment = -1;
pos = (456,570);
ref = pixel;
},
{
alignment = -1;
pos = (418,570);
ref = pixel;
},
{
alignment = -1;
pos = (418,532);
ref = pixel;
},
{
alignment = -1;
pos = (456,532);
ref = pixel;
},
{
alignment = -1;
pos = (456,494);
ref = pixel;
},
{
alignment = -1;
pos = (418,494);
ref = pixel;
},
{
alignment = -1;
pos = (418,456);
ref = pixel;
},
{
alignment = -1;
pos = (456,456);
ref = pixel;
},
{
alignment = -1;
pos = (418,418);
ref = pixel;
},
{
alignment = -1;
pos = (380,418);
ref = pixel;
},
{
alignment = -1;
pos = (342,380);
ref = pixel;
},
{
alignment = -1;
pos = (304,380);
ref = pixel;
},
{
alignment = -1;
pos = (266,342);
ref = pixel;
},
{
alignment = -1;
pos = (228,342);
ref = pixel;
},
{
alignment = -1;
pos = (228,380);
ref = pixel;
},
{
alignment = -1;
pos = (266,380);
ref = pixel;
},
{
alignment = -1;
pos = (304,342);
ref = pixel;
},
{
alignment = -1;
pos = (342,342);
ref = pixel;
},
{
alignment = -1;
pos = (380,342);
ref = pixel;
},
{
alignment = -1;
pos = (380,304);
ref = pixel;
},
{
alignment = -1;
pos = (418,304);
ref = pixel;
},
{
alignment = -1;
pos = (456,304);
ref = pixel;
},
{
alignment = -1;
pos = (456,266);
ref = pixel;
},
{
alignment = -1;
pos = (418,266);
ref = pixel;
},
{
alignment = -1;
pos = (456,228);
ref = pixel;
},
{
alignment = -1;
pos = (494,228);
ref = pixel;
},
{
alignment = -1;
pos = (494,190);
ref = pixel;
},
{
alignment = -1;
pos = (456,190);
ref = pixel;
},
{
alignment = -1;
pos = (456,152);
ref = pixel;
},
{
alignment = -1;
pos = (494,152);
ref = pixel;
},
{
alignment = -1;
pos = (494,114);
ref = pixel;
},
{
alignment = -1;
pos = (456,114);
ref = pixel;
},
{
alignment = -1;
pos = (456,76);
ref = pixel;
},
{
alignment = -1;
pos = (418,76);
ref = pixel;
},
{
alignment = -1;
pos = (418,38);
ref = pixel;
},
{
alignment = -1;
pos = (380,38);
ref = pixel;
},
{
alignment = -1;
pos = (456,38);
ref = pixel;
},
{
alignment = -1;
pos = (380,0);
ref = pixel;
},
{
alignment = -1;
pos = (342,0);
ref = pixel;
},
{
alignment = -1;
pos = (342,38);
ref = pixel;
},
{
alignment = -1;
pos = (304,38);
ref = pixel;
},
{
alignment = -1;
pos = (266,38);
ref = pixel;
},
{
alignment = -1;
pos = (228,38);
ref = pixel;
},
{
alignment = -1;
pos = (190,38);
ref = pixel;
},
{
alignment = -1;
pos = (152,38);
ref = pixel;
},
{
alignment = -1;
pos = (114,38);
ref = pixel;
},
{
alignment = -1;
pos = (152,0);
ref = pixel;
},
{
alignment = -1;
pos = (190,0);
ref = pixel;
},
{
alignment = -1;
pos = (228,0);
ref = pixel;
},
{
alignment = -1;
pos = (266,0);
ref = pixel;
},
{
alignment = -1;
pos = (304,0);
ref = pixel;
},
{
alignment = -1;
pos = (114,76);
ref = pixel;
},
{
alignment = -1;
pos = (152,76);
ref = pixel;
},
{
alignment = -1;
pos = (76,76);
ref = pixel;
},
{
alignment = -1;
pos = (76,114);
ref = pixel;
},
{
alignment = -1;
pos = (114,114);
ref = pixel;
},
{
alignment = -1;
pos = (76,152);
ref = pixel;
},
{
alignment = -1;
pos = (114,152);
ref = pixel;
},
{
alignment = -1;
pos = (418,342);
ref = pixel;
}
);
width = 608;
}
);
metricLeft = H;
metricRight = H;
unicode = 51;
}
{
glyphname = four;
kernLeft = four;
kernRight = four;
layers = (
{
background = {
shapes = (
{
closed = 1;
nodes = (
(522,-9,l),
(522,145,l),
(608,145,l),
(608,229,l),
(522,229,l),
(522,701,l),
(430,701,l),
(88,223,l),
(88,145,l),
(436,145,l),
(436,-9,l)
);
},
{
closed = 1;
nodes = (
(436,581,l),
(436,229,l),
(176,229,l)
);
}
);
};
layerId = m01;
shapes = (
{
alignment = -1;
pos = (494,0);
ref = pixel;
},
{
alignment = -1;
pos = (456,0);
ref = pixel;
},
{
alignment = -1;
pos = (456,38);
ref = pixel;
},
{
alignment = -1;
pos = (456,76);
ref = pixel;
},
{
alignment = -1;
pos = (456,114);
ref = pixel;
},
{
alignment = -1;
pos = (456,152);
ref = pixel;
},
{
alignment = -1;
pos = (456,228);
ref = pixel;
},
{
alignment = -1;
pos = (456,266);
ref = pixel;
},
{
alignment = -1;
pos = (456,304);
ref = pixel;
},
{
alignment = -1;
pos = (456,342);
ref = pixel;
},
{
alignment = -1;
pos = (494,38);
ref = pixel;
},
{
alignment = -1;
pos = (494,76);
ref = pixel;
},
{
alignment = -1;
pos = (494,114);
ref = pixel;
},
{
alignment = -1;
pos = (494,152);
ref = pixel;
},
{
alignment = -1;
pos = (494,190);
ref = pixel;
},
{
alignment = -1;
pos = (494,228);
ref = pixel;
},
{
alignment = -1;
pos = (494,266);
ref = pixel;
},
{
alignment = -1;
pos = (494,304);
ref = pixel;
},
{
alignment = -1;
pos = (494,342);
ref = pixel;
},
{
alignment = -1;
pos = (494,380);
ref = pixel;
},
{
alignment = -1;
pos = (494,418);
ref = pixel;
},
{
alignment = -1;
pos = (494,456);
ref = pixel;
},
{
alignment = -1;
pos = (494,494);
ref = pixel;
},
{
alignment = -1;
pos = (494,532);
ref = pixel;
},
{
alignment = -1;
pos = (494,570);
ref = pixel;
},
{
alignment = -1;
pos = (494,608);
ref = pixel;
},
{
alignment = -1;
pos = (494,646);
ref = pixel;
},
{
alignment = -1;
pos = (456,646);
ref = pixel;
},
{
alignment = -1;
pos = (456,608);
ref = pixel;
},
{
alignment = -1;
pos = (456,570);
ref = pixel;
},
{
alignment = -1;
pos = (456,532);
ref = pixel;
},
{
alignment = -1;
pos = (456,494);
ref = pixel;
},
{
alignment = -1;
pos = (456,456);
ref = pixel;
},
{
alignment = -1;
pos = (456,418);
ref = pixel;
},
{
alignment = -1;
pos = (456,380);
ref = pixel;
},
{
alignment = -1;
pos = (190,190);
ref = pixel;
},
{
alignment = -1;
pos = (304,494);
ref = pixel;
},
{
alignment = -1;
pos = (342,532);
ref = pixel;
},
{
alignment = -1;
pos = (266,418);
ref = pixel;
},
{
alignment = -1;
pos = (266,380);
ref = pixel;
},
{
alignment = -1;
pos = (266,456);
ref = pixel;
},
{
alignment = -1;
pos = (228,342);
ref = pixel;
},
{
alignment = -1;
pos = (190,342);
ref = pixel;
},
{
alignment = -1;
pos = (190,380);
ref = pixel;
},
{
alignment = -1;
pos = (190,304);
ref = pixel;
},
{
alignment = -1;
pos = (152,266);
ref = pixel;
},
{
alignment = -1;
pos = (152,304);
ref = pixel;
},
{
alignment = -1;
pos = (456,190);
ref = pixel;
},
{
alignment = -1;
pos = (228,190);
ref = pixel;
},
{
alignment = -1;
pos = (266,190);
ref = pixel;
},
{
alignment = -1;
pos = (304,190);
ref = pixel;
},
{
alignment = -1;
pos = (342,190);
ref = pixel;
},
{
alignment = -1;
pos = (380,190);
ref = pixel;
},
{
alignment = -1;
pos = (418,190);
ref = pixel;
},
{
alignment = -1;
pos = (532,190);
ref = pixel;
},
{
alignment = -1;
pos = (114,228);
ref = pixel;
},
{
alignment = -1;
pos = (228,380);
ref = pixel;
},
{
alignment = -1;
pos = (304,418);
ref = pixel;
},
{
alignment = -1;
pos = (304,456);
ref = pixel;
},
{
alignment = -1;
pos = (342,456);
ref = pixel;
},
{
alignment = -1;
pos = (342,494);
ref = pixel;
},
{
alignment = -1;
pos = (380,570);
ref = pixel;
},
{
alignment = -1;
pos = (380,532);
ref = pixel;
},
{
alignment = -1;
pos = (418,570);
ref = pixel;
},
{
alignment = -1;
pos = (228,418);
ref = pixel;
},
{
alignment = -1;
pos = (152,342);
ref = pixel;
},
{
alignment = -1;
pos = (114,266);
ref = pixel;
},
{
alignment = -1;
pos = (152,190);
ref = pixel;
},
{
alignment = -1;
pos = (114,190);
ref = pixel;
},
{
alignment = -1;
pos = (114,152);
ref = pixel;
},
{
alignment = -1;
pos = (152,152);
ref = pixel;
},
{
alignment = -1;
pos = (190,152);
ref = pixel;
},
{
alignment = -1;
pos = (228,152);
ref = pixel;
},
{
alignment = -1;
pos = (266,152);
ref = pixel;
},
{
alignment = -1;
pos = (304,152);
ref = pixel;
},
{
alignment = -1;
pos = (342,152);
ref = pixel;
},
{
alignment = -1;
pos = (380,152);
ref = pixel;
},
{
alignment = -1;
pos = (418,152);
ref = pixel;
},
{
alignment = -1;
pos = (532,152);
ref = pixel;
},
{
alignment = -1;
pos = (380,494);
ref = pixel;
},
{
alignment = -1;
pos = (114,304);
ref = pixel;
},
{
alignment = -1;
pos = (76,228);
ref = pixel;
},
{
alignment = -1;
pos = (76,190);
ref = pixel;
},
{
alignment = -1;
pos = (76,152);
ref = pixel;
},
{
alignment = -1;
pos = (570,190);
ref = pixel;
},
{
alignment = -1;
pos = (570,152);
ref = pixel;
},
{
alignment = -1;
pos = (456,684);
ref = pixel;
},
{
alignment = -1;
pos = (494,684);
ref = pixel;
},
{
alignment = -1;
pos = (418,608);
ref = pixel;
},
{
alignment = -1;
pos = (418,532);
ref = pixel;
}
);
width = 684;
}
);
metricLeft = H;
metricRight = H;
unicode = 52;
}
{
glyphname = five;
kernLeft = five;
kernRight = five;
layers = (
{
background = {
shapes = (
{
closed = 1;
nodes = (
(439,-7,o),
(540,94,o),
(540,237,cs),
(540,379,o),
(448,481,o),
(312,481,cs),
(250,481,o),
(181,450,o),
(150,389,c),
(166,373,l),
(198,635,l),
(497,635,l),
(497,719,l),
(119,719,l),
(72,320,l),
(164,320,l),
(187,370,o),
(244,399,o),
(300,399,cs),
(394,399,o),
(450,337,o),
(450,237,cs),
(450,137,o),
(390,77,o),
(298,77,cs),
(216,77,o),
(160,118,o),
(150,198,c),
(60,192,l),
(70,74,o),
(160,-7,o),
(298,-7,cs)
);
}
);
};
layerId = m01;
shapes = (
{
alignment = -1;
pos = (456,684);
ref = pixel;
},
{
alignment = -1;
pos = (418,684);
ref = pixel;
},
{
alignment = -1;
pos = (380,684);
ref = pixel;
},
{
alignment = -1;
pos = (342,684);
ref = pixel;
},
{
alignment = -1;
pos = (304,684);
ref = pixel;
},
{
alignment = -1;
pos = (266,684);
ref = pixel;
},
{
alignment = -1;
pos = (228,684);
ref = pixel;
},
{
alignment = -1;
pos = (190,684);
ref = pixel;
},
{
alignment = -1;
pos = (152,684);
ref = pixel;
},
{
alignment = -1;
pos = (114,684);
ref = pixel;
},
{
alignment = -1;
pos = (114,646);
ref = pixel;
},
{
alignment = -1;
pos = (152,646);
ref = pixel;
},
{
alignment = -1;
pos = (190,646);
ref = pixel;
},
{
alignment = -1;
pos = (228,646);
ref = pixel;
},
{
alignment = -1;
pos = (266,646);
ref = pixel;
},
{
alignment = -1;
pos = (304,646);
ref = pixel;
},
{
alignment = -1;
pos = (342,646);
ref = pixel;
},
{
alignment = -1;
pos = (380,646);
ref = pixel;
},
{
alignment = -1;
pos = (418,646);
ref = pixel;
},
{
alignment = -1;
pos = (456,646);
ref = pixel;
},
{
alignment = -1;
pos = (114,608);
ref = pixel;
},
{
alignment = -1;
pos = (114,570);
ref = pixel;
},
{
alignment = -1;
pos = (114,494);
ref = pixel;
},
{
alignment = -1;
pos = (114,456);
ref = pixel;
},
{
alignment = -1;
pos = (114,418);
ref = pixel;
},
{
alignment = -1;
pos = (114,380);
ref = pixel;
},
{
alignment = -1;
pos = (114,342);
ref = pixel;
},
{
alignment = -1;
pos = (152,608);
ref = pixel;
},
{
alignment = -1;
pos = (152,570);
ref = pixel;
},
{
alignment = -1;
pos = (114,152);
ref = pixel;
},
{
alignment = -1;
pos = (76,152);
ref = pixel;
},
{
alignment = -1;
pos = (76,114);
ref = pixel;
},
{
alignment = -1;
pos = (114,114);
ref = pixel;
},
{
alignment = -1;
pos = (114,76);
ref = pixel;
},
{
alignment = -1;
pos = (114,38);
ref = pixel;
},
{
alignment = -1;
pos = (152,38);
ref = pixel;
},
{
alignment = -1;
pos = (152,76);
ref = pixel;
},
{
alignment = -1;
pos = (190,38);
ref = pixel;
},
{
alignment = -1;
pos = (190,0);
ref = pixel;
},
{
alignment = -1;
pos = (228,0);
ref = pixel;
},
{
alignment = -1;
pos = (266,0);
ref = pixel;
},
{
alignment = -1;
pos = (304,0);
ref = pixel;
},
{
alignment = -1;
pos = (304,38);
ref = pixel;
},
{
alignment = -1;
pos = (266,38);
ref = pixel;
},
{
alignment = -1;
pos = (228,38);
ref = pixel;
},
{
alignment = -1;
pos = (342,0);
ref = pixel;
},
{
alignment = -1;
pos = (342,38);
ref = pixel;
},
{
alignment = -1;
pos = (380,38);
ref = pixel;
},
{
alignment = -1;
pos = (380,76);
ref = pixel;
},
{
alignment = -1;
pos = (418,38);
ref = pixel;
},
{
alignment = -1;
pos = (418,76);
ref = pixel;
},
{
alignment = -1;
pos = (380,0);
ref = pixel;
},
{
alignment = -1;
pos = (418,114);
ref = pixel;
},
{
alignment = -1;
pos = (456,114);
ref = pixel;
},
{
alignment = -1;
pos = (456,76);
ref = pixel;
},
{
alignment = -1;
pos = (494,152);
ref = pixel;
},
{
alignment = -1;
pos = (456,152);
ref = pixel;
},
{
alignment = -1;
pos = (456,190);
ref = pixel;
},
{
alignment = -1;
pos = (494,190);
ref = pixel;
},
{
alignment = -1;
pos = (494,228);
ref = pixel;
},
{
alignment = -1;
pos = (456,228);
ref = pixel;
},
{
alignment = -1;
pos = (456,266);
ref = pixel;
},
{
alignment = -1;
pos = (494,266);
ref = pixel;
},
{
alignment = -1;
pos = (494,304);
ref = pixel;
},
{
alignment = -1;
pos = (456,304);
ref = pixel;
},
{
alignment = -1;
pos = (418,304);
ref = pixel;
},
{
alignment = -1;
pos = (418,342);
ref = pixel;
},
{
alignment = -1;
pos = (456,342);
ref = pixel;
},
{
alignment = -1;
pos = (380,380);
ref = pixel;
},
{
alignment = -1;
pos = (418,380);
ref = pixel;
},
{
alignment = -1;
pos = (418,418);
ref = pixel;
},
{
alignment = -1;
pos = (380,418);
ref = pixel;
},
{
alignment = -1;
pos = (304,456);
ref = pixel;
},
{
alignment = -1;
pos = (266,456);
ref = pixel;
},
{
alignment = -1;
pos = (228,418);
ref = pixel;
},
{
alignment = -1;
pos = (266,418);
ref = pixel;
},
{
alignment = -1;
pos = (304,418);
ref = pixel;
},
{
alignment = -1;
pos = (342,418);
ref = pixel;
},
{
alignment = -1;
pos = (152,380);
ref = pixel;
},
{
alignment = -1;
pos = (342,456);
ref = pixel;
},
{
alignment = -1;
pos = (76,418);
ref = pixel;
},
{
alignment = -1;
pos = (76,380);
ref = pixel;
},
{
alignment = -1;
pos = (76,342);
ref = pixel;
},
{
alignment = -1;
pos = (76,456);
ref = pixel;
},
{
alignment = -1;
pos = (114,532);
ref = pixel;
},
{
alignment = -1;
pos = (152,532);
ref = pixel;
},
{
alignment = -1;
pos = (190,418);
ref = pixel;
},
{
alignment = -1;
pos = (76,494);
ref = pixel;
},
{
alignment = -1;
pos = (228,456);
ref = pixel;
}
);
width = 570;
}
);
metricLeft = H;
metricRight = O;
unicode = 53;
}
{
glyphname = six;
kernLeft = zero;
kernRight = six;
layers = (
{
background = {
shapes = (
{
closed = 1;
nodes = (
(472,-16,o),
(573,80,o),
(573,236,cs),
(573,382,o),
(481,478,o),
(341,478,cs),
(239,478,o),
(165,416,o),
(143,344,c),
(161,340,l),
(165,542,o),
(235,642,o),
(353,642,cs),
(431,642,o),
(467,606,o),
(483,550,c),
(573,558,l),
(545,658,o),
(479,726,o),
(353,726,cs),
(143,726,o),
(73,534,o),
(73,300,cs),
(73,97,o),
(165,-16,o),
(325,-16,cs)
);
},
{
closed = 1;
nodes = (
(229,68,o),
(167,138,o),
(167,236,cs),
(167,334,o),
(239,396,o),
(335,396,cs),
(424,396,o),
(483,334,o),
(483,236,cs),
(483,130,o),
(420,68,o),
(327,68,cs)
);
}
);
};
layerId = m01;
shapes = (
{
alignment = -1;
pos = (380,0);
ref = pixel;
},
{
alignment = -1;
pos = (342,0);
ref = pixel;
},
{
alignment = -1;
pos = (304,0);
ref = pixel;
},
{
alignment = -1;
pos = (266,0);
ref = pixel;
},
{
alignment = -1;
pos = (228,0);
ref = pixel;
},
{
alignment = -1;
pos = (418,38);
ref = pixel;
},
{
alignment = -1;
pos = (380,38);
ref = pixel;
},
{
alignment = -1;
pos = (342,38);
ref = pixel;
},
{
alignment = -1;
pos = (304,38);
ref = pixel;
},
{
alignment = -1;
pos = (266,38);
ref = pixel;
},
{
alignment = -1;
pos = (228,38);
ref = pixel;
},
{
alignment = -1;
pos = (190,38);
ref = pixel;
},
{
alignment = -1;
pos = (152,38);
ref = pixel;
},
{
alignment = -1;
pos = (418,76);
ref = pixel;
},
{
alignment = -1;
pos = (456,76);
ref = pixel;
},
{
alignment = -1;
pos = (152,76);
ref = pixel;
},
{
alignment = -1;
pos = (114,76);
ref = pixel;
},
{
alignment = -1;
pos = (114,114);
ref = pixel;
},
{
alignment = -1;
pos = (76,152);
ref = pixel;
},
{
alignment = -1;
pos = (114,152);
ref = pixel;
},
{
alignment = -1;
pos = (76,190);
ref = pixel;
},
{
alignment = -1;
pos = (76,228);
ref = pixel;
},
{
alignment = -1;
pos = (76,304);
ref = pixel;
},
{
alignment = -1;
pos = (76,266);
ref = pixel;
},
{
alignment = -1;
pos = (456,114);
ref = pixel;
},
{
alignment = -1;
pos = (494,190);
ref = pixel;
},
{
alignment = -1;
pos = (494,152);
ref = pixel;
},
{
alignment = -1;
pos = (494,228);
ref = pixel;
},
{
alignment = -1;
pos = (494,304);
ref = pixel;
},
{
alignment = -1;
pos = (456,304);
ref = pixel;
},
{
alignment = -1;
pos = (494,266);
ref = pixel;
},
{
alignment = -1;
pos = (456,342);
ref = pixel;
},
{
alignment = -1;
pos = (456,380);
ref = pixel;
},
{
alignment = -1;
pos = (342,418);
ref = pixel;
},
{
alignment = -1;
pos = (380,418);
ref = pixel;
},
{
alignment = -1;
pos = (266,418);
ref = pixel;
},
{
alignment = -1;
pos = (304,418);
ref = pixel;
},
{
alignment = -1;
pos = (228,418);
ref = pixel;
},
{
alignment = -1;
pos = (190,380);
ref = pixel;
},
{
alignment = -1;
pos = (76,342);
ref = pixel;
},
{
alignment = -1;
pos = (76,380);
ref = pixel;
},
{
alignment = -1;
pos = (76,418);
ref = pixel;
},
{
alignment = -1;
pos = (76,456);
ref = pixel;
},
{
alignment = -1;
pos = (266,684);
ref = pixel;
},
{
alignment = -1;
pos = (304,684);
ref = pixel;
},
{
alignment = -1;
pos = (342,684);
ref = pixel;
},
{
alignment = -1;
pos = (190,646);
ref = pixel;
},
{
alignment = -1;
pos = (228,646);
ref = pixel;
},
{
alignment = -1;
pos = (266,646);
ref = pixel;
},
{
alignment = -1;
pos = (304,646);
ref = pixel;
},
{
alignment = -1;
pos = (342,646);
ref = pixel;
},
{
alignment = -1;
pos = (380,646);
ref = pixel;
},
{
alignment = -1;
pos = (418,646);
ref = pixel;
},
{
alignment = -1;
pos = (380,684);
ref = pixel;
},
{
alignment = -1;
pos = (152,608);
ref = pixel;
},
{
alignment = -1;
pos = (190,608);
ref = pixel;
},
{
alignment = -1;
pos = (456,608);
ref = pixel;
},
{
alignment = -1;
pos = (494,570);
ref = pixel;
},
{
alignment = -1;
pos = (152,570);
ref = pixel;
},
{
alignment = -1;
pos = (114,570);
ref = pixel;
},
{
alignment = -1;
pos = (114,532);
ref = pixel;
},
{
alignment = -1;
pos = (114,494);
ref = pixel;
},
{
alignment = -1;
pos = (114,456);
ref = pixel;
},
{
alignment = -1;
pos = (114,304);
ref = pixel;
},
{
alignment = -1;
pos = (152,342);
ref = pixel;
},
{
alignment = -1;
pos = (114,342);
ref = pixel;
},
{
alignment = -1;
pos = (418,380);
ref = pixel;
},
{
alignment = -1;
pos = (418,418);
ref = pixel;
},
{
alignment = -1;
pos = (114,266);
ref = pixel;
},
{
alignment = -1;
pos = (114,190);
ref = pixel;
},
{
alignment = -1;
pos = (114,228);
ref = pixel;
},
{
alignment = -1;
pos = (114,380);
ref = pixel;
},
{
alignment = -1;
pos = (114,418);
ref = pixel;
},
{
alignment = -1;
pos = (152,532);
ref = pixel;
},
{
alignment = -1;
pos = (190,76);
ref = pixel;
},
{
alignment = -1;
pos = (152,114);
ref = pixel;
},
{
alignment = -1;
pos = (456,646);
ref = pixel;
},
{
alignment = -1;
pos = (494,532);
ref = pixel;
},
{
alignment = -1;
pos = (76,494);
ref = pixel;
},
{
alignment = -1;
pos = (532,228);
ref = pixel;
},
{
alignment = -1;
pos = (532,190);
ref = pixel;
},
{
alignment = -1;
pos = (532,570);
ref = pixel;
},
{
alignment = -1;
pos = (532,532);
ref = pixel;
},
{
alignment = -1;
pos = (494,608);
ref = pixel;
},
{
alignment = -1;
pos = (532,266);
ref = pixel;
},
{
alignment = -1;
pos = (532,152);
ref = pixel;
},
{
alignment = -1;
pos = (494,114);
ref = pixel;
},
{
alignment = -1;
pos = (494,342);
ref = pixel;
},
{
alignment = -1;
pos = (228,380);
ref = pixel;
},
{
alignment = -1;
pos = (494,76);
ref = pixel;
},
{
alignment = -1;
pos = (456,38);
ref = pixel;
},
{
alignment = -1;
pos = (266,380);
ref = pixel;
},
{
alignment = -1;
pos = (304,380);
ref = pixel;
},
{
alignment = -1;
pos = (342,380);
ref = pixel;
},
{
alignment = -1;
pos = (380,380);
ref = pixel;
},
{
alignment = -1;
pos = (418,342);
ref = pixel;
},
{
alignment = -1;
pos = (152,646);
ref = pixel;
},
{
alignment = -1;
pos = (228,684);
ref = pixel;
},
{
alignment = -1;
pos = (418,684);
ref = pixel;
},
{
alignment = -1;
pos = (494,646);
ref = pixel;
}
);
width = 646;
}
);
metricLeft = H;
metricRight = H;
unicode = 54;
}
{
glyphname = seven;
kernLeft = T;
kernRight = seven;
layers = (
{
background = {
shapes = (
{
closed = 1;
nodes = (
(273,0,l),
(273,240,o),
(350,428,o),
(529,632,c),
(529,710,l),
(49,710,l),
(49,626,l),
(435,626,l),
(277,444,o),
(181,220,o),
(181,0,c)
);
}
);
};
layerId = m01;
shapes = (
{
alignment = -1;
pos = (76,684);
ref = pixel;
},
{
alignment = -1;
pos = (76,646);
ref = pixel;
},
{
alignment = -1;
pos = (114,646);
ref = pixel;
},
{
alignment = -1;
pos = (152,646);
ref = pixel;
},
{
alignment = -1;
pos = (190,646);
ref = pixel;
},
{
alignment = -1;
pos = (228,646);
ref = pixel;
},
{
alignment = -1;
pos = (266,684);
ref = pixel;
},
{
alignment = -1;
pos = (304,684);
ref = pixel;
},
{
alignment = -1;
pos = (342,684);
ref = pixel;
},
{
alignment = -1;
pos = (380,684);
ref = pixel;
},
{
alignment = -1;
pos = (418,684);
ref = pixel;
},
{
alignment = -1;
pos = (456,684);
ref = pixel;
},
{
alignment = -1;
pos = (494,684);
ref = pixel;
},
{
alignment = -1;
pos = (494,646);
ref = pixel;
},
{
alignment = -1;
pos = (456,646);
ref = pixel;
},
{
alignment = -1;
pos = (418,646);
ref = pixel;
},
{
alignment = -1;
pos = (380,646);
ref = pixel;
},
{
alignment = -1;
pos = (342,646);
ref = pixel;
},
{
alignment = -1;
pos = (304,646);
ref = pixel;
},
{
alignment = -1;
pos = (266,646);
ref = pixel;
},
{
alignment = -1;
pos = (228,684);
ref = pixel;
},
{
alignment = -1;
pos = (190,684);
ref = pixel;
},
{
alignment = -1;
pos = (152,684);
ref = pixel;
},
{
alignment = -1;
pos = (114,684);
ref = pixel;
},
{
alignment = -1;
pos = (456,608);
ref = pixel;
},
{
alignment = -1;
pos = (456,570);
ref = pixel;
},
{
alignment = -1;
pos = (418,570);
ref = pixel;
},
{
alignment = -1;
pos = (380,532);
ref = pixel;
},
{
alignment = -1;
pos = (380,494);
ref = pixel;
},
{
alignment = -1;
pos = (418,532);
ref = pixel;
},
{
alignment = -1;
pos = (418,494);
ref = pixel;
},
{
alignment = -1;
pos = (304,456);
ref = pixel;
},
{
alignment = -1;
pos = (342,456);
ref = pixel;
},
{
alignment = -1;
pos = (342,418);
ref = pixel;
},
{
alignment = -1;
pos = (304,418);
ref = pixel;
},
{
alignment = -1;
pos = (304,380);
ref = pixel;
},
{
alignment = -1;
pos = (304,342);
ref = pixel;
},
{
alignment = -1;
pos = (266,342);
ref = pixel;
},
{
alignment = -1;
pos = (266,380);
ref = pixel;
},
{
alignment = -1;
pos = (266,304);
ref = pixel;
},
{
alignment = -1;
pos = (266,266);
ref = pixel;
},
{
alignment = -1;
pos = (228,266);
ref = pixel;
},
{
alignment = -1;
pos = (228,304);
ref = pixel;
},
{
alignment = -1;
pos = (228,228);
ref = pixel;
},
{
alignment = -1;
pos = (228,190);
ref = pixel;
},
{
alignment = -1;
pos = (228,152);
ref = pixel;
},
{
alignment = -1;
pos = (228,114);
ref = pixel;
},
{
alignment = -1;
pos = (228,76);
ref = pixel;
},
{
alignment = -1;
pos = (228,38);
ref = pixel;
},
{
alignment = -1;
pos = (228,0);
ref = pixel;
},
{
alignment = -1;
pos = (190,0);
ref = pixel;
},
{
alignment = -1;
pos = (190,38);
ref = pixel;
},
{
alignment = -1;
pos = (190,76);
ref = pixel;
},
{
alignment = -1;
pos = (190,114);
ref = pixel;
},
{
alignment = -1;
pos = (266,228);
ref = pixel;
},
{
alignment = -1;
pos = (38,684);
ref = pixel;
},
{
alignment = -1;
pos = (38,646);
ref = pixel;
},
{
alignment = -1;
pos = (266,190);
ref = pixel;
},
{
alignment = -1;
pos = (190,152);
ref = pixel;
},
{
alignment = -1;
pos = (190,190);
ref = pixel;
},
{
alignment = -1;
pos = (304,304);
ref = pixel;
},
{
alignment = -1;
pos = (342,494);
ref = pixel;
},
{
alignment = -1;
pos = (380,456);
ref = pixel;
},
{
alignment = -1;
pos = (418,608);
ref = pixel;
}
);
width = 570;
}
);
metricLeft = O;
metricRight = O;
unicode = 55;
}
{
glyphname = eight;
kernLeft = eight;
kernRight = eight;
layers = (
{
background = {
shapes = (
{
closed = 1;
nodes = (
(463,-16,o),
(572,57,o),
(572,195,cs),
(572,298,o),
(506,367,o),
(404,391,c),
(402,371,l),
(484,393,o),
(538,443,o),
(538,531,cs),
(538,643,o),
(448,726,o),
(322,726,cs),
(196,726,o),
(106,643,o),
(106,531,cs),
(106,443,o),
(160,393,o),
(242,371,c),
(240,391,l),
(138,367,o),
(72,298,o),
(72,195,cs),
(72,57,o),
(181,-16,o),
(322,-16,cs)
);
},
{
closed = 1;
nodes = (
(229,68,o),
(162,110,o),
(162,200,cs),
(162,283,o),
(216,337,o),
(322,337,cs),
(428,337,o),
(482,283,o),
(482,200,cs),
(482,110,o),
(415,68,o),
(322,68,cs)
);
},
{
closed = 1;
nodes = (
(246,417,o),
(196,455,o),
(196,531,cs),
(196,599,o),
(244,642,o),
(322,642,cs),
(400,642,o),
(448,599,o),
(448,531,cs),
(448,455,o),
(398,417,o),
(322,417,cs)
);
}
);
};
layerId = m01;
shapes = (
{
alignment = -1;
pos = (304,646);
ref = pixel;
},
{
alignment = -1;
pos = (304,684);
ref = pixel;
},
{
alignment = -1;
pos = (304,380);
ref = pixel;
},
{
alignment = -1;
pos = (304,342);
ref = pixel;
},
{
alignment = -1;
pos = (304,38);
ref = pixel;
},
{
alignment = -1;
pos = (304,0);
ref = pixel;
},
{
alignment = -1;
pos = (266,0);
ref = pixel;
},
{
alignment = -1;
pos = (266,38);
ref = pixel;
},
{
alignment = -1;
pos = (342,38);
ref = pixel;
},
{
alignment = -1;
pos = (342,0);
ref = pixel;
},
{
alignment = -1;
pos = (228,0);
ref = pixel;
},
{
alignment = -1;
pos = (228,38);
ref = pixel;
},
{
alignment = -1;
pos = (380,38);
ref = pixel;
},
{
alignment = -1;
pos = (380,0);
ref = pixel;
},
{
alignment = -1;
pos = (266,380);
ref = pixel;
},
{
alignment = -1;
pos = (266,342);
ref = pixel;
},
{
alignment = -1;
pos = (342,380);
ref = pixel;
},
{
alignment = -1;
pos = (342,342);
ref = pixel;
},
{
alignment = -1;
pos = (266,684);
ref = pixel;
},
{
alignment = -1;
pos = (266,646);
ref = pixel;
},
{
alignment = -1;
pos = (342,684);
ref = pixel;
},
{
alignment = -1;
pos = (342,646);
ref = pixel;
},
{
alignment = -1;
pos = (228,684);
ref = pixel;
},
{
alignment = -1;
pos = (228,646);
ref = pixel;
},
{
alignment = -1;
pos = (380,684);
ref = pixel;
},
{
alignment = -1;
pos = (380,646);
ref = pixel;
},
{
alignment = -1;
pos = (190,38);
ref = pixel;
},
{
alignment = -1;
pos = (190,0);
ref = pixel;
},
{
alignment = -1;
pos = (418,38);
ref = pixel;
},
{
alignment = -1;
pos = (418,0);
ref = pixel;
},
{
alignment = -1;
pos = (228,380);
ref = pixel;
},
{
alignment = -1;
pos = (228,342);
ref = pixel;
},
{
alignment = -1;
pos = (380,380);
ref = pixel;
},
{
alignment = -1;
pos = (380,342);
ref = pixel;
},
{
alignment = -1;
pos = (190,646);
ref = pixel;
},
{
alignment = -1;
pos = (190,608);
ref = pixel;
},
{
alignment = -1;
pos = (152,608);
ref = pixel;
},
{
alignment = -1;
pos = (152,646);
ref = pixel;
},
{
alignment = -1;
pos = (418,646);
ref = pixel;
},
{
alignment = -1;
pos = (418,608);
ref = pixel;
},
{
alignment = -1;
pos = (456,608);
ref = pixel;
},
{
alignment = -1;
pos = (456,646);
ref = pixel;
},
{
alignment = -1;
pos = (152,38);
ref = pixel;
},
{
alignment = -1;
pos = (152,76);
ref = pixel;
},
{
alignment = -1;
pos = (114,76);
ref = pixel;
},
{
alignment = -1;
pos = (114,38);
ref = pixel;
},
{
alignment = -1;
pos = (456,38);
ref = pixel;
},
{
alignment = -1;
pos = (456,76);
ref = pixel;
},
{
alignment = -1;
pos = (494,76);
ref = pixel;
},
{
alignment = -1;
pos = (494,38);
ref = pixel;
},
{
alignment = -1;
pos = (114,114);
ref = pixel;
},
{
alignment = -1;
pos = (114,152);
ref = pixel;
},
{
alignment = -1;
pos = (76,152);
ref = pixel;
},
{
alignment = -1;
pos = (76,114);
ref = pixel;
},
{
alignment = -1;
pos = (494,114);
ref = pixel;
},
{
alignment = -1;
pos = (494,152);
ref = pixel;
},
{
alignment = -1;
pos = (532,114);
ref = pixel;
},
{
alignment = -1;
pos = (532,152);
ref = pixel;
},
{
alignment = -1;
pos = (76,190);
ref = pixel;
},
{
alignment = -1;
pos = (76,228);
ref = pixel;
},
{
alignment = -1;
pos = (114,228);
ref = pixel;
},
{
alignment = -1;
pos = (114,190);
ref = pixel;
},
{
alignment = -1;
pos = (494,190);
ref = pixel;
},
{
alignment = -1;
pos = (494,228);
ref = pixel;
},
{
alignment = -1;
pos = (532,228);
ref = pixel;
},
{
alignment = -1;
pos = (532,190);
ref = pixel;
},
{
alignment = -1;
pos = (114,266);
ref = pixel;
},
{
alignment = -1;
pos = (152,266);
ref = pixel;
},
{
alignment = -1;
pos = (152,304);
ref = pixel;
},
{
alignment = -1;
pos = (114,304);
ref = pixel;
},
{
alignment = -1;
pos = (494,266);
ref = pixel;
},
{
alignment = -1;
pos = (456,266);
ref = pixel;
},
{
alignment = -1;
pos = (456,304);
ref = pixel;
},
{
alignment = -1;
pos = (494,304);
ref = pixel;
},
{
alignment = -1;
pos = (190,342);
ref = pixel;
},
{
alignment = -1;
pos = (418,342);
ref = pixel;
},
{
alignment = -1;
pos = (190,418);
ref = pixel;
},
{
alignment = -1;
pos = (152,418);
ref = pixel;
},
{
alignment = -1;
pos = (152,456);
ref = pixel;
},
{
alignment = -1;
pos = (114,456);
ref = pixel;
},
{
alignment = -1;
pos = (114,494);
ref = pixel;
},
{
alignment = -1;
pos = (152,494);
ref = pixel;
},
{
alignment = -1;
pos = (152,532);
ref = pixel;
},
{
alignment = -1;
pos = (114,532);
ref = pixel;
},
{
alignment = -1;
pos = (114,570);
ref = pixel;
},
{
alignment = -1;
pos = (152,570);
ref = pixel;
},
{
alignment = -1;
pos = (456,570);
ref = pixel;
},
{
alignment = -1;
pos = (456,532);
ref = pixel;
},
{
alignment = -1;
pos = (456,494);
ref = pixel;
},
{
alignment = -1;
pos = (456,456);
ref = pixel;
},
{
alignment = -1;
pos = (456,418);
ref = pixel;
},
{
alignment = -1;
pos = (494,570);
ref = pixel;
},
{
alignment = -1;
pos = (494,532);
ref = pixel;
},
{
alignment = -1;
pos = (494,494);
ref = pixel;
},
{
alignment = -1;
pos = (494,456);
ref = pixel;
},
{
alignment = -1;
pos = (418,418);
ref = pixel;
},
{
alignment = -1;
pos = (190,304);
ref = pixel;
},
{
alignment = -1;
pos = (418,304);
ref = pixel;
},
{
alignment = -1;
pos = (152,342);
ref = pixel;
},
{
alignment = -1;
pos = (456,342);
ref = pixel;
}
);
width = 646;
}
);
metricLeft = H;
metricRight = H;
unicode = 56;
}
{
glyphname = equal;
layers = (
{
background = {
shapes = (
{
closed = 1;
nodes = (
(500,363,l),
(500,441,l),
(40,441,l),
(40,363,l)
);
},
{
closed = 1;
nodes = (
(500,157,l),
(500,235,l),
(40,235,l),
(40,157,l)
);
}
);
};
layerId = m01;
shapes = (
{
alignment = -1;
pos = (38,418);
ref = pixel;
},
{
alignment = -1;
pos = (38,380);
ref = pixel;
},
{
alignment = -1;
pos = (76,380);
ref = pixel;
},
{
alignment = -1;
pos = (76,418);
ref = pixel;
},
{
alignment = -1;
pos = (114,418);
ref = pixel;
},
{
alignment = -1;
pos = (152,418);
ref = pixel;
},
{
alignment = -1;
pos = (190,418);
ref = pixel;
},
{
alignment = -1;
pos = (228,418);
ref = pixel;
},
{
alignment = -1;
pos = (266,418);
ref = pixel;
},
{
alignment = -1;
pos = (304,418);
ref = pixel;
},
{
alignment = -1;
pos = (342,418);
ref = pixel;
},
{
alignment = -1;
pos = (380,418);
ref = pixel;
},
{
alignment = -1;
pos = (418,418);
ref = pixel;
},
{
alignment = -1;
pos = (456,418);
ref = pixel;
},
{
alignment = -1;
pos = (456,380);
ref = pixel;
},
{
alignment = -1;
pos = (418,380);
ref = pixel;
},
{
alignment = -1;
pos = (380,380);
ref = pixel;
},
{
alignment = -1;
pos = (342,380);
ref = pixel;
},
{
alignment = -1;
pos = (304,380);
ref = pixel;
},
{
alignment = -1;
pos = (266,380);
ref = pixel;
},
{
alignment = -1;
pos = (228,380);
ref = pixel;
},
{
alignment = -1;
pos = (190,380);
ref = pixel;
},
{
alignment = -1;
pos = (152,380);
ref = pixel;
},
{
alignment = -1;
pos = (114,380);
ref = pixel;
},
{
alignment = -1;
pos = (38,190);
ref = pixel;
},
{
alignment = -1;
pos = (76,190);
ref = pixel;
},
{
alignment = -1;
pos = (114,190);
ref = pixel;
},
{
alignment = -1;
pos = (152,190);
ref = pixel;
},
{
alignment = -1;
pos = (190,190);
ref = pixel;
},
{
alignment = -1;
pos = (228,190);
ref = pixel;
},
{
alignment = -1;
pos = (266,190);
ref = pixel;
},
{
alignment = -1;
pos = (418,190);
ref = pixel;
},
{
alignment = -1;
pos = (456,190);
ref = pixel;
},
{
alignment = -1;
pos = (380,190);
ref = pixel;
},
{
alignment = -1;
pos = (342,190);
ref = pixel;
},
{
alignment = -1;
pos = (304,190);
ref = pixel;
},
{
alignment = -1;
pos = (456,152);
ref = pixel;
},
{
alignment = -1;
pos = (418,152);
ref = pixel;
},
{
alignment = -1;
pos = (380,152);
ref = pixel;
},
{
alignment = -1;
pos = (342,152);
ref = pixel;
},
{
alignment = -1;
pos = (304,152);
ref = pixel;
},
{
alignment = -1;
pos = (266,152);
ref = pixel;
},
{
alignment = -1;
pos = (228,152);
ref = pixel;
},
{
alignment = -1;
pos = (190,152);
ref = pixel;
},
{
alignment = -1;
pos = (152,152);
ref = pixel;
},
{
alignment = -1;
pos = (114,152);
ref = pixel;
},
{
alignment = -1;
pos = (76,152);
ref = pixel;
},
{
alignment = -1;
pos = (38,152);
ref = pixel;
}
);
width = 532;
}
);
metricLeft = o;
metricRight = o;
unicode = 61;
}
{
glyphname = greater;
layers = (
{
background = {
shapes = (
{
closed = 1;
nodes = (
(497,236,l),
(497,342,l),
(43,546,l),
(43,462,l),
(441,284,l),
(441,294,l),
(43,116,l),
(43,32,l)
);
}
);
};
layerId = m01;
shapes = (
{
alignment = -1;
pos = (456,304);
ref = pixel;
},
{
alignment = -1;
pos = (456,266);
ref = pixel;
},
{
alignment = -1;
pos = (456,228);
ref = pixel;
},
{
alignment = -1;
pos = (418,304);
ref = pixel;
},
{
alignment = -1;
pos = (380,342);
ref = pixel;
},
{
alignment = -1;
pos = (380,304);
ref = pixel;
},
{
alignment = -1;
pos = (418,228);
ref = pixel;
},
{
alignment = -1;
pos = (380,190);
ref = pixel;
},
{
alignment = -1;
pos = (380,228);
ref = pixel;
},
{
alignment = -1;
pos = (418,266);
ref = pixel;
},
{
alignment = -1;
pos = (342,342);
ref = pixel;
},
{
alignment = -1;
pos = (342,304);
ref = pixel;
},
{
alignment = -1;
pos = (342,228);
ref = pixel;
},
{
alignment = -1;
pos = (342,190);
ref = pixel;
},
{
alignment = -1;
pos = (304,342);
ref = pixel;
},
{
alignment = -1;
pos = (304,380);
ref = pixel;
},
{
alignment = -1;
pos = (266,380);
ref = pixel;
},
{
alignment = -1;
pos = (266,342);
ref = pixel;
},
{
alignment = -1;
pos = (304,190);
ref = pixel;
},
{
alignment = -1;
pos = (304,152);
ref = pixel;
},
{
alignment = -1;
pos = (266,152);
ref = pixel;
},
{
alignment = -1;
pos = (266,190);
ref = pixel;
},
{
alignment = -1;
pos = (228,380);
ref = pixel;
},
{
alignment = -1;
pos = (228,418);
ref = pixel;
},
{
alignment = -1;
pos = (190,418);
ref = pixel;
},
{
alignment = -1;
pos = (190,380);
ref = pixel;
},
{
alignment = -1;
pos = (228,152);
ref = pixel;
},
{
alignment = -1;
pos = (228,114);
ref = pixel;
},
{
alignment = -1;
pos = (190,114);
ref = pixel;
},
{
alignment = -1;
pos = (190,152);
ref = pixel;
},
{
alignment = -1;
pos = (152,418);
ref = pixel;
},
{
alignment = -1;
pos = (152,456);
ref = pixel;
},
{
alignment = -1;
pos = (114,456);
ref = pixel;
},
{
alignment = -1;
pos = (114,418);
ref = pixel;
},
{
alignment = -1;
pos = (152,114);
ref = pixel;
},
{
alignment = -1;
pos = (114,114);
ref = pixel;
},
{
alignment = -1;
pos = (114,76);
ref = pixel;
},
{
alignment = -1;
pos = (152,76);
ref = pixel;
},
{
alignment = -1;
pos = (76,456);
ref = pixel;
},
{
alignment = -1;
pos = (38,456);
ref = pixel;
},
{
alignment = -1;
pos = (38,494);
ref = pixel;
},
{
alignment = -1;
pos = (76,494);
ref = pixel;
},
{
alignment = -1;
pos = (76,76);
ref = pixel;
},
{
alignment = -1;
pos = (38,76);
ref = pixel;
},
{
alignment = -1;
pos = (38,38);
ref = pixel;
},
{
alignment = -1;
pos = (76,38);
ref = pixel;
}
);
width = 532;
}
);
metricLeft = o;
metricRight = o;
unicode = 62;
}
{
glyphname = question;
layers = (
{
background = {
shapes = (
{
closed = 1;
nodes = (
(308,201,l),
(308,271,o),
(323,303,o),
(377,338,cs),
(463,394,o),
(503,438,o),
(503,522,cs),
(503,641,o),
(413,726,o),
(283,726,cs),
(137,726,o),
(44,632,o),
(32,500,c),
(122,494,l),
(132,590,o),
(184,642,o),
(283,642,cs),
(364,642,o),
(413,591,o),
(413,522,cs),
(413,462,o),
(397,438,o),
(319,390,cs),
(250,347,o),
(222,297,o),
(222,201,c)
);
}
);
};
layerId = m01;
shapes = (
{
alignment = -1;
pos = (228,0);
ref = pixel;
},
{
alignment = -1;
pos = (266,0);
ref = pixel;
},
{
alignment = -1;
pos = (228,38);
ref = pixel;
},
{
alignment = -1;
pos = (266,38);
ref = pixel;
},
{
alignment = -1;
pos = (266,76);
ref = pixel;
},
{
alignment = -1;
pos = (228,76);
ref = pixel;
},
{
alignment = -1;
pos = (266,190);
ref = pixel;
},
{
alignment = -1;
pos = (228,190);
ref = pixel;
},
{
alignment = -1;
pos = (228,228);
ref = pixel;
},
{
alignment = -1;
pos = (266,228);
ref = pixel;
},
{
alignment = -1;
pos = (266,266);
ref = pixel;
},
{
alignment = -1;
pos = (266,304);
ref = pixel;
},
{
alignment = -1;
pos = (228,266);
ref = pixel;
},
{
alignment = -1;
pos = (304,342);
ref = pixel;
},
{
alignment = -1;
pos = (304,304);
ref = pixel;
},
{
alignment = -1;
pos = (304,266);
ref = pixel;
},
{
alignment = -1;
pos = (342,342);
ref = pixel;
},
{
alignment = -1;
pos = (304,380);
ref = pixel;
},
{
alignment = -1;
pos = (342,380);
ref = pixel;
},
{
alignment = -1;
pos = (380,380);
ref = pixel;
},
{
alignment = -1;
pos = (418,380);
ref = pixel;
},
{
alignment = -1;
pos = (418,418);
ref = pixel;
},
{
alignment = -1;
pos = (380,418);
ref = pixel;
},
{
alignment = -1;
pos = (418,456);
ref = pixel;
},
{
alignment = -1;
pos = (456,456);
ref = pixel;
},
{
alignment = -1;
pos = (456,494);
ref = pixel;
},
{
alignment = -1;
pos = (418,494);
ref = pixel;
},
{
alignment = -1;
pos = (456,532);
ref = pixel;
},
{
alignment = -1;
pos = (418,532);
ref = pixel;
},
{
alignment = -1;
pos = (418,570);
ref = pixel;
},
{
alignment = -1;
pos = (456,570);
ref = pixel;
},
{
alignment = -1;
pos = (418,608);
ref = pixel;
},
{
alignment = -1;
pos = (380,608);
ref = pixel;
},
{
alignment = -1;
pos = (380,570);
ref = pixel;
},
{
alignment = -1;
pos = (342,608);
ref = pixel;
},
{
alignment = -1;
pos = (342,646);
ref = pixel;
},
{
alignment = -1;
pos = (380,646);
ref = pixel;
},
{
alignment = -1;
pos = (304,646);
ref = pixel;
},
{
alignment = -1;
pos = (304,684);
ref = pixel;
},
{
alignment = -1;
pos = (266,684);
ref = pixel;
},
{
alignment = -1;
pos = (266,646);
ref = pixel;
},
{
alignment = -1;
pos = (228,646);
ref = pixel;
},
{
alignment = -1;
pos = (228,684);
ref = pixel;
},
{
alignment = -1;
pos = (190,684);
ref = pixel;
},
{
alignment = -1;
pos = (190,646);
ref = pixel;
},
{
alignment = -1;
pos = (152,646);
ref = pixel;
},
{
alignment = -1;
pos = (114,646);
ref = pixel;
},
{
alignment = -1;
pos = (114,608);
ref = pixel;
},
{
alignment = -1;
pos = (152,608);
ref = pixel;
},
{
alignment = -1;
pos = (76,608);
ref = pixel;
},
{
alignment = -1;
pos = (76,570);
ref = pixel;
},
{
alignment = -1;
pos = (114,570);
ref = pixel;
},
{
alignment = -1;
pos = (38,570);
ref = pixel;
},
{
alignment = -1;
pos = (38,532);
ref = pixel;
},
{
alignment = -1;
pos = (76,532);
ref = pixel;
},
{
alignment = -1;
pos = (38,494);
ref = pixel;
},
{
alignment = -1;
pos = (76,494);
ref = pixel;
}
);
width = 532;
}
);
metricLeft = o;
metricRight = o;
unicode = 63;
}
{
glyphname = at;
layers = (
{
background = {
shapes = (
{
closed = 1;
nodes = (
(605,0,l),
(546,-26,o),
(474,-40,o),
(402,-40,cs),
(213,-40,o),
(107,65,o),
(107,252,cs),
(107,483,o),
(256,640,o),
(476,640,cs),
(671,640,o),
(779,536,o),
(779,350,cs),
(779,224,o),
(738,148,o),
(670,148,cs),
(638,148,o),
(622,164,o),
(622,194,cs),
(622,218,o),
(626,261,o),
(628,290,cs),
(644,500,l),
(571,500,l),
(564,407,l),
(574,417,l),
(560,467,o),
(506,502,o),
(436,502,cs),
(308,502,o),
(224,394,o),
(224,260,cs),
(224,152,o),
(288,78,o),
(406,78,cs),
(476,78,o),
(546,127,o),
(571,186,c),
(556,182,l),
(560,121,o),
(602,82,o),
(664,82,cs),
(774,82,o),
(851,193,o),
(851,353,cs),
(851,570,o),
(704,710,o),
(478,710,cs),
(217,710,o),
(35,521,o),
(35,250,cs),
(35,23,o),
(170,-110,o),
(400,-110,cs),
(483,-110,o),
(555,-96,o),
(622,-68,c)
);
},
{
closed = 1;
nodes = (
(334,144,o),
(306,196,o),
(306,266,cs),
(306,357,o),
(354,436,o),
(444,436,cs),
(527,436,o),
(560,381,o),
(560,311,cs),
(560,229,o),
(515,144,o),
(416,144,cs)
);
}
);
};
layerId = m01;
shapes = (
{
alignment = -1;
pos = (190,266);
ref = pixel;
},
{
alignment = -1;
pos = (190,228);
ref = pixel;
},
{
alignment = -1;
pos = (228,228);
ref = pixel;
},
{
alignment = -1;
pos = (228,266);
ref = pixel;
},
{
alignment = -1;
pos = (190,304);
ref = pixel;
},
{
alignment = -1;
pos = (228,304);
ref = pixel;
},
{
alignment = -1;
pos = (228,342);
ref = pixel;
},
{
alignment = -1;
pos = (190,190);
ref = pixel;
},
{
alignment = -1;
pos = (228,190);
ref = pixel;
},
{
alignment = -1;
pos = (228,152);
ref = pixel;
},
{
alignment = -1;
pos = (228,114);
ref = pixel;
},
{
alignment = -1;
pos = (266,114);
ref = pixel;
},
{
alignment = -1;
pos = (266,152);
ref = pixel;
},
{
alignment = -1;
pos = (228,380);
ref = pixel;
},
{
alignment = -1;
pos = (266,380);
ref = pixel;
},
{
alignment = -1;
pos = (266,342);
ref = pixel;
},
{
alignment = -1;
pos = (266,418);
ref = pixel;
},
{
alignment = -1;
pos = (304,418);
ref = pixel;
},
{
alignment = -1;
pos = (304,456);
ref = pixel;
},
{
alignment = -1;
pos = (304,114);
ref = pixel;
},
{
alignment = -1;
pos = (304,76);
ref = pixel;
},
{
alignment = -1;
pos = (342,114);
ref = pixel;
},
{
alignment = -1;
pos = (342,76);
ref = pixel;
},
{
alignment = -1;
pos = (342,418);
ref = pixel;
},
{
alignment = -1;
pos = (342,456);
ref = pixel;
},
{
alignment = -1;
pos = (380,456);
ref = pixel;
},
{
alignment = -1;
pos = (380,418);
ref = pixel;
},
{
alignment = -1;
pos = (418,418);
ref = pixel;
},
{
alignment = -1;
pos = (418,456);
ref = pixel;
},
{
alignment = -1;
pos = (380,114);
ref = pixel;
},
{
alignment = -1;
pos = (380,76);
ref = pixel;
},
{
alignment = -1;
pos = (418,114);
ref = pixel;
},
{
alignment = -1;
pos = (456,152);
ref = pixel;
},
{
alignment = -1;
pos = (494,190);
ref = pixel;
},
{
alignment = -1;
pos = (456,418);
ref = pixel;
},
{
alignment = -1;
pos = (532,418);
ref = pixel;
},
{
alignment = -1;
pos = (532,456);
ref = pixel;
},
{
alignment = -1;
pos = (570,456);
ref = pixel;
},
{
alignment = -1;
pos = (570,418);
ref = pixel;
},
{
alignment = -1;
pos = (532,380);
ref = pixel;
},
{
alignment = -1;
pos = (532,342);
ref = pixel;
},
{
alignment = -1;
pos = (532,304);
ref = pixel;
},
{
alignment = -1;
pos = (532,266);
ref = pixel;
},
{
alignment = -1;
pos = (532,228);
ref = pixel;
},
{
alignment = -1;
pos = (532,190);
ref = pixel;
},
{
alignment = -1;
pos = (532,152);
ref = pixel;
},
{
alignment = -1;
pos = (532,114);
ref = pixel;
},
{
alignment = -1;
pos = (570,114);
ref = pixel;
},
{
alignment = -1;
pos = (494,228);
ref = pixel;
},
{
alignment = -1;
pos = (570,76);
ref = pixel;
},
{
alignment = -1;
pos = (608,76);
ref = pixel;
},
{
alignment = -1;
pos = (608,114);
ref = pixel;
},
{
alignment = -1;
pos = (646,114);
ref = pixel;
},
{
alignment = -1;
pos = (646,76);
ref = pixel;
},
{
alignment = -1;
pos = (570,152);
ref = pixel;
},
{
alignment = -1;
pos = (494,266);
ref = pixel;
},
{
alignment = -1;
pos = (570,380);
ref = pixel;
},
{
alignment = -1;
pos = (570,342);
ref = pixel;
},
{
alignment = -1;
pos = (494,304);
ref = pixel;
},
{
alignment = -1;
pos = (494,380);
ref = pixel;
},
{
alignment = -1;
pos = (684,114);
ref = pixel;
},
{
alignment = -1;
pos = (684,152);
ref = pixel;
},
{
alignment = -1;
pos = (722,152);
ref = pixel;
},
{
alignment = -1;
pos = (722,190);
ref = pixel;
},
{
alignment = -1;
pos = (722,228);
ref = pixel;
},
{
alignment = -1;
pos = (722,266);
ref = pixel;
},
{
alignment = -1;
pos = (722,304);
ref = pixel;
},
{
alignment = -1;
pos = (722,342);
ref = pixel;
},
{
alignment = -1;
pos = (722,380);
ref = pixel;
},
{
alignment = -1;
pos = (722,418);
ref = pixel;
},
{
alignment = -1;
pos = (722,456);
ref = pixel;
},
{
alignment = -1;
pos = (722,494);
ref = pixel;
},
{
alignment = -1;
pos = (722,532);
ref = pixel;
},
{
alignment = -1;
pos = (76,304);
ref = pixel;
},
{
alignment = -1;
pos = (76,266);
ref = pixel;
},
{
alignment = -1;
pos = (76,228);
ref = pixel;
},
{
alignment = -1;
pos = (76,190);
ref = pixel;
},
{
alignment = -1;
pos = (76,152);
ref = pixel;
},
{
alignment = -1;
pos = (38,152);
ref = pixel;
},
{
alignment = -1;
pos = (38,304);
ref = pixel;
},
{
alignment = -1;
pos = (38,266);
ref = pixel;
},
{
alignment = -1;
pos = (38,228);
ref = pixel;
},
{
alignment = -1;
pos = (38,190);
ref = pixel;
},
{
alignment = -1;
pos = (38,342);
ref = pixel;
},
{
alignment = -1;
pos = (76,342);
ref = pixel;
},
{
alignment = -1;
pos = (76,380);
ref = pixel;
},
{
alignment = -1;
pos = (38,380);
ref = pixel;
},
{
alignment = -1;
pos = (76,418);
ref = pixel;
},
{
alignment = -1;
pos = (76,114);
ref = pixel;
},
{
alignment = -1;
pos = (76,76);
ref = pixel;
},
{
alignment = -1;
pos = (38,114);
ref = pixel;
},
{
alignment = -1;
pos = (304,646);
ref = pixel;
},
{
alignment = -1;
pos = (342,646);
ref = pixel;
},
{
alignment = -1;
pos = (380,646);
ref = pixel;
},
{
alignment = -1;
pos = (418,646);
ref = pixel;
},
{
alignment = -1;
pos = (456,646);
ref = pixel;
},
{
alignment = -1;
pos = (494,646);
ref = pixel;
},
{
alignment = -1;
pos = (532,646);
ref = pixel;
},
{
alignment = -1;
pos = (570,646);
ref = pixel;
},
{
alignment = -1;
pos = (418,-76);
ref = pixel;
},
{
alignment = -1;
pos = (380,-76);
ref = pixel;
},
{
alignment = -1;
pos = (342,-76);
ref = pixel;
},
{
alignment = -1;
pos = (304,-76);
ref = pixel;
},
{
alignment = -1;
pos = (266,-76);
ref = pixel;
},
{
alignment = -1;
pos = (228,-76);
ref = pixel;
},
{
alignment = -1;
pos = (418,-114);
ref = pixel;
},
{
alignment = -1;
pos = (380,-114);
ref = pixel;
},
{
alignment = -1;
pos = (342,-114);
ref = pixel;
},
{
alignment = -1;
pos = (304,-114);
ref = pixel;
},
{
alignment = -1;
pos = (266,-114);
ref = pixel;
},
{
alignment = -1;
pos = (456,-76);
ref = pixel;
},
{
alignment = -1;
pos = (494,-76);
ref = pixel;
},
{
alignment = -1;
pos = (456,-114);
ref = pixel;
},
{
alignment = -1;
pos = (190,-76);
ref = pixel;
},
{
alignment = -1;
pos = (190,-38);
ref = pixel;
},
{
alignment = -1;
pos = (152,-38);
ref = pixel;
},
{
alignment = -1;
pos = (114,-38);
ref = pixel;
},
{
alignment = -1;
pos = (114,0);
ref = pixel;
},
{
alignment = -1;
pos = (76,38);
ref = pixel;
},
{
alignment = -1;
pos = (114,38);
ref = pixel;
},
{
alignment = -1;
pos = (152,0);
ref = pixel;
},
{
alignment = -1;
pos = (228,-38);
ref = pixel;
},
{
alignment = -1;
pos = (532,-76);
ref = pixel;
},
{
alignment = -1;
pos = (494,-114);
ref = pixel;
},
{
alignment = -1;
pos = (570,-38);
ref = pixel;
},
{
alignment = -1;
pos = (114,494);
ref = pixel;
},
{
alignment = -1;
pos = (76,456);
ref = pixel;
},
{
alignment = -1;
pos = (152,494);
ref = pixel;
},
{
alignment = -1;
pos = (114,532);
ref = pixel;
},
{
alignment = -1;
pos = (152,532);
ref = pixel;
},
{
alignment = -1;
pos = (114,456);
ref = pixel;
},
{
alignment = -1;
pos = (114,418);
ref = pixel;
},
{
alignment = -1;
pos = (190,570);
ref = pixel;
},
{
alignment = -1;
pos = (228,570);
ref = pixel;
},
{
alignment = -1;
pos = (228,608);
ref = pixel;
},
{
alignment = -1;
pos = (190,608);
ref = pixel;
},
{
alignment = -1;
pos = (266,608);
ref = pixel;
},
{
alignment = -1;
pos = (304,608);
ref = pixel;
},
{
alignment = -1;
pos = (380,684);
ref = pixel;
},
{
alignment = -1;
pos = (418,684);
ref = pixel;
},
{
alignment = -1;
pos = (456,684);
ref = pixel;
},
{
alignment = -1;
pos = (494,684);
ref = pixel;
},
{
alignment = -1;
pos = (532,684);
ref = pixel;
},
{
alignment = -1;
pos = (342,608);
ref = pixel;
},
{
alignment = -1;
pos = (266,646);
ref = pixel;
},
{
alignment = -1;
pos = (760,190);
ref = pixel;
},
{
alignment = -1;
pos = (760,228);
ref = pixel;
},
{
alignment = -1;
pos = (760,266);
ref = pixel;
},
{
alignment = -1;
pos = (760,304);
ref = pixel;
},
{
alignment = -1;
pos = (760,342);
ref = pixel;
},
{
alignment = -1;
pos = (760,456);
ref = pixel;
},
{
alignment = -1;
pos = (760,418);
ref = pixel;
},
{
alignment = -1;
pos = (760,380);
ref = pixel;
},
{
alignment = -1;
pos = (760,494);
ref = pixel;
},
{
alignment = -1;
pos = (684,570);
ref = pixel;
},
{
alignment = -1;
pos = (722,570);
ref = pixel;
},
{
alignment = -1;
pos = (684,608);
ref = pixel;
},
{
alignment = -1;
pos = (646,608);
ref = pixel;
},
{
alignment = -1;
pos = (646,570);
ref = pixel;
},
{
alignment = -1;
pos = (570,608);
ref = pixel;
},
{
alignment = -1;
pos = (608,608);
ref = pixel;
},
{
alignment = -1;
pos = (608,646);
ref = pixel;
},
{
alignment = -1;
pos = (684,532);
ref = pixel;
},
{
alignment = -1;
pos = (114,76);
ref = pixel;
}
);
width = 836;
}
);
metricLeft = O;
metricRight = O;
unicode = 64;
}
{
glyphname = A;
kernLeft = A;
kernRight = A;
layers = (
{
anchors = (
{
name = bottom;
pos = (304,0);
},
{
name = ogonek;
pos = (570,38);
},
{
name = top;
pos = (304,722);
}
);
background = {
shapes = (
{
closed = 1;
nodes = (
(84,0,l),
(155,202,l),
(453,202,l),
(524,0,l),
(618,0,l),
(362,710,l),
(246,710,l),
(-10,0,l)
);
},
{
closed = 1;
nodes = (
(304,635,l),
(424,286,l),
(184,286,l)
);
},
{
closed = 1;
nodes = (
(123,0,l),
(305,632,l),
(487,0,l),
(579,0,l),
(363,710,l),
(247,710,l),
(31,0,l)
);
},
{
closed = 1;
nodes = (
(470,202,l),
(440,286,l),
(170,286,l),
(140,202,l)
);
}
);
};
layerId = m01;
shapes = (
{
alignment = -1;
pos = (266,684);
ref = pixel;
},
{
alignment = -1;
pos = (304,684);
ref = pixel;
},
{
alignment = -1;
pos = (266,646);
ref = pixel;
},
{
alignment = -1;
pos = (304,646);
ref = pixel;
},
{
alignment = -1;
pos = (266,608);
ref = pixel;
},
{
alignment = -1;
pos = (228,608);
ref = pixel;
},
{
alignment = -1;
pos = (228,570);
ref = pixel;
},
{
alignment = -1;
pos = (266,570);
ref = pixel;
},
{
alignment = -1;
pos = (304,608);
ref = pixel;
},
{
alignment = -1;
pos = (304,570);
ref = pixel;
},
{
alignment = -1;
pos = (342,570);
ref = pixel;
},
{
alignment = -1;
pos = (342,608);
ref = pixel;
},
{
alignment = -1;
pos = (228,532);
ref = pixel;
},
{
alignment = -1;
pos = (228,494);
ref = pixel;
},
{
alignment = -1;
pos = (228,456);
ref = pixel;
},
{
alignment = -1;
pos = (190,456);
ref = pixel;
},
{
alignment = -1;
pos = (190,494);
ref = pixel;
},
{
alignment = -1;
pos = (190,532);
ref = pixel;
},
{
alignment = -1;
pos = (342,532);
ref = pixel;
},
{
alignment = -1;
pos = (342,494);
ref = pixel;
},
{
alignment = -1;
pos = (342,456);
ref = pixel;
},
{
alignment = -1;
pos = (380,532);
ref = pixel;
},
{
alignment = -1;
pos = (380,494);
ref = pixel;
},
{
alignment = -1;
pos = (380,456);
ref = pixel;
},
{
alignment = -1;
pos = (190,418);
ref = pixel;
},
{
alignment = -1;
pos = (152,418);
ref = pixel;
},
{
alignment = -1;
pos = (380,418);
ref = pixel;
},
{
alignment = -1;
pos = (418,418);
ref = pixel;
},
{
alignment = -1;
pos = (190,380);
ref = pixel;
},
{
alignment = -1;
pos = (190,342);
ref = pixel;
},
{
alignment = -1;
pos = (152,342);
ref = pixel;
},
{
alignment = -1;
pos = (152,380);
ref = pixel;
},
{
alignment = -1;
pos = (380,380);
ref = pixel;
},
{
alignment = -1;
pos = (380,342);
ref = pixel;
},
{
alignment = -1;
pos = (418,342);
ref = pixel;
},
{
alignment = -1;
pos = (418,380);
ref = pixel;
},
{
alignment = -1;
pos = (418,304);
ref = pixel;
},
{
alignment = -1;
pos = (152,304);
ref = pixel;
},
{
alignment = -1;
pos = (114,304);
ref = pixel;
},
{
alignment = -1;
pos = (114,266);
ref = pixel;
},
{
alignment = -1;
pos = (152,266);
ref = pixel;
},
{
alignment = -1;
pos = (418,266);
ref = pixel;
},
{
alignment = -1;
pos = (456,266);
ref = pixel;
},
{
alignment = -1;
pos = (456,304);
ref = pixel;
},
{
alignment = -1;
pos = (114,228);
ref = pixel;
},
{
alignment = -1;
pos = (114,190);
ref = pixel;
},
{
alignment = -1;
pos = (152,228);
ref = pixel;
},
{
alignment = -1;
pos = (190,228);
ref = pixel;
},
{
alignment = -1;
pos = (228,228);
ref = pixel;
},
{
alignment = -1;
pos = (266,228);
ref = pixel;
},
{
alignment = -1;
pos = (304,228);
ref = pixel;
},
{
alignment = -1;
pos = (342,228);
ref = pixel;
},
{
alignment = -1;
pos = (380,228);
ref = pixel;
},
{
alignment = -1;
pos = (418,228);
ref = pixel;
},
{
alignment = -1;
pos = (456,228);
ref = pixel;
},
{
alignment = -1;
pos = (456,190);
ref = pixel;
},
{
alignment = -1;
pos = (76,190);
ref = pixel;
},
{
alignment = -1;
pos = (76,152);
ref = pixel;
},
{
alignment = -1;
pos = (76,114);
ref = pixel;
},
{
alignment = -1;
pos = (76,38);
ref = pixel;
},
{
alignment = -1;
pos = (76,0);
ref = pixel;
},
{
alignment = -1;
pos = (494,190);
ref = pixel;
},
{
alignment = -1;
pos = (494,152);
ref = pixel;
},
{
alignment = -1;
pos = (494,114);
ref = pixel;
},
{
alignment = -1;
pos = (494,38);
ref = pixel;
},
{
alignment = -1;
pos = (494,0);
ref = pixel;
},
{
alignment = -1;
pos = (114,152);
ref = pixel;
},
{
alignment = -1;
pos = (114,114);
ref = pixel;
},
{
alignment = -1;
pos = (456,152);
ref = pixel;
},
{
alignment = -1;
pos = (456,114);
ref = pixel;
},
{
alignment = -1;
pos = (190,266);
ref = pixel;
},
{
alignment = -1;
pos = (228,266);
ref = pixel;
},
{
alignment = -1;
pos = (266,266);
ref = pixel;
},
{
alignment = -1;
pos = (304,266);
ref = pixel;
},
{
alignment = -1;
pos = (342,266);
ref = pixel;
},
{
alignment = -1;
pos = (380,266);
ref = pixel;
},
{
alignment = -1;
pos = (76,76);
ref = pixel;
},
{
alignment = -1;
pos = (494,76);
ref = pixel;
},
{
alignment = -1;
pos = (38,76);
ref = pixel;
},
{
alignment = -1;
pos = (38,38);
ref = pixel;
},
{
alignment = -1;
pos = (38,0);
ref = pixel;
},
{
alignment = -1;
pos = (532,76);
ref = pixel;
},
{
alignment = -1;
pos = (532,38);
ref = pixel;
},
{
alignment = -1;
pos = (532,0);
ref = pixel;
}
);
width = 608;
},
{
associatedMasterId = m01;
background = {
shapes = (
{
closed = 1;
nodes = (
(141,0,l),
(212,202,l),
(510,202,l),
(581,0,l),
(675,0,l),
(419,710,l),
(303,710,l),
(47,0,l)
);
},
{
closed = 1;
nodes = (
(361,635,l),
(481,286,l),
(241,286,l)
);
},
{
closed = 1;
nodes = (
(180,0,l),
(362,632,l),
(544,0,l),
(636,0,l),
(420,710,l),
(304,710,l),
(88,0,l)
);
},
{
closed = 1;
nodes = (
(527,202,l),
(497,286,l),
(227,286,l),
(197,202,l)
);
}
);
};
layerId = "9EB20F64-BE69-49E6-8970-94053AC50ABC";
name = "25 Nov 25 at 17:19";
shapes = (
{
alignment = -1;
pos = (304,684);
ref = pixel;
},
{
alignment = -1;
pos = (342,684);
ref = pixel;
},
{
alignment = -1;
pos = (380,684);
ref = pixel;
},
{
alignment = -1;
pos = (304,646);
ref = pixel;
},
{
alignment = -1;
pos = (342,646);
ref = pixel;
},
{
alignment = -1;
pos = (380,646);
ref = pixel;
},
{
alignment = -1;
pos = (304,608);
ref = pixel;
},
{
alignment = -1;
pos = (266,608);
ref = pixel;
},
{
alignment = -1;
pos = (266,570);
ref = pixel;
},
{
alignment = -1;
pos = (304,570);
ref = pixel;
},
{
alignment = -1;
pos = (380,608);
ref = pixel;
},
{
alignment = -1;
pos = (380,570);
ref = pixel;
},
{
alignment = -1;
pos = (418,570);
ref = pixel;
},
{
alignment = -1;
pos = (418,608);
ref = pixel;
},
{
alignment = -1;
pos = (266,532);
ref = pixel;
},
{
alignment = -1;
pos = (266,494);
ref = pixel;
},
{
alignment = -1;
pos = (266,456);
ref = pixel;
},
{
alignment = -1;
pos = (228,456);
ref = pixel;
},
{
alignment = -1;
pos = (228,494);
ref = pixel;
},
{
alignment = -1;
pos = (228,532);
ref = pixel;
},
{
alignment = -1;
pos = (418,532);
ref = pixel;
},
{
alignment = -1;
pos = (418,494);
ref = pixel;
},
{
alignment = -1;
pos = (418,456);
ref = pixel;
},
{
alignment = -1;
pos = (456,532);
ref = pixel;
},
{
alignment = -1;
pos = (456,494);
ref = pixel;
},
{
alignment = -1;
pos = (456,456);
ref = pixel;
},
{
alignment = -1;
pos = (228,418);
ref = pixel;
},
{
alignment = -1;
pos = (190,418);
ref = pixel;
},
{
alignment = -1;
pos = (456,418);
ref = pixel;
},
{
alignment = -1;
pos = (494,418);
ref = pixel;
},
{
alignment = -1;
pos = (228,380);
ref = pixel;
},
{
alignment = -1;
pos = (228,342);
ref = pixel;
},
{
alignment = -1;
pos = (190,342);
ref = pixel;
},
{
alignment = -1;
pos = (190,380);
ref = pixel;
},
{
alignment = -1;
pos = (456,380);
ref = pixel;
},
{
alignment = -1;
pos = (456,342);
ref = pixel;
},
{
alignment = -1;
pos = (494,342);
ref = pixel;
},
{
alignment = -1;
pos = (494,380);
ref = pixel;
},
{
alignment = -1;
pos = (494,304);
ref = pixel;
},
{
alignment = -1;
pos = (190,304);
ref = pixel;
},
{
alignment = -1;
pos = (152,304);
ref = pixel;
},
{
alignment = -1;
pos = (152,266);
ref = pixel;
},
{
alignment = -1;
pos = (190,266);
ref = pixel;
},
{
alignment = -1;
pos = (494,266);
ref = pixel;
},
{
alignment = -1;
pos = (532,266);
ref = pixel;
},
{
alignment = -1;
pos = (532,304);
ref = pixel;
},
{
alignment = -1;
pos = (152,228);
ref = pixel;
},
{
alignment = -1;
pos = (152,190);
ref = pixel;
},
{
alignment = -1;
pos = (190,228);
ref = pixel;
},
{
alignment = -1;
pos = (228,228);
ref = pixel;
},
{
alignment = -1;
pos = (266,228);
ref = pixel;
},
{
alignment = -1;
pos = (304,228);
ref = pixel;
},
{
alignment = -1;
pos = (342,228);
ref = pixel;
},
{
alignment = -1;
pos = (380,228);
ref = pixel;
},
{
alignment = -1;
pos = (418,228);
ref = pixel;
},
{
alignment = -1;
pos = (456,228);
ref = pixel;
},
{
alignment = -1;
pos = (494,228);
ref = pixel;
},
{
alignment = -1;
pos = (532,228);
ref = pixel;
},
{
alignment = -1;
pos = (532,190);
ref = pixel;
},
{
alignment = -1;
pos = (114,190);
ref = pixel;
},
{
alignment = -1;
pos = (114,152);
ref = pixel;
},
{
alignment = -1;
pos = (114,114);
ref = pixel;
},
{
alignment = -1;
pos = (114,38);
ref = pixel;
},
{
alignment = -1;
pos = (114,0);
ref = pixel;
},
{
alignment = -1;
pos = (570,190);
ref = pixel;
},
{
alignment = -1;
pos = (570,152);
ref = pixel;
},
{
alignment = -1;
pos = (570,114);
ref = pixel;
},
{
alignment = -1;
pos = (570,38);
ref = pixel;
},
{
alignment = -1;
pos = (570,0);
ref = pixel;
},
{
alignment = -1;
pos = (152,152);
ref = pixel;
},
{
alignment = -1;
pos = (152,114);
ref = pixel;
},
{
alignment = -1;
pos = (532,152);
ref = pixel;
},
{
alignment = -1;
pos = (532,114);
ref = pixel;
},
{
alignment = -1;
pos = (228,266);
ref = pixel;
},
{
alignment = -1;
pos = (266,266);
ref = pixel;
},
{
alignment = -1;
pos = (304,266);
ref = pixel;
},
{
alignment = -1;
pos = (342,266);
ref = pixel;
},
{
alignment = -1;
pos = (380,266);
ref = pixel;
},
{
alignment = -1;
pos = (418,266);
ref = pixel;
},
{
alignment = -1;
pos = (456,266);
ref = pixel;
},
{
alignment = -1;
pos = (114,76);
ref = pixel;
},
{
alignment = -1;
pos = (570,76);
ref = pixel;
},
{
alignment = -1;
pos = (76,76);
ref = pixel;
},
{
alignment = -1;
pos = (76,38);
ref = pixel;
},
{
alignment = -1;
pos = (76,0);
ref = pixel;
},
{
alignment = -1;
pos = (608,76);
ref = pixel;
},
{
alignment = -1;
pos = (608,38);
ref = pixel;
},
{
alignment = -1;
pos = (608,0);
ref = pixel;
}
);
width = 722;
}
);
metricLeft = O;
metricRight = O;
unicode = 65;
}
{
glyphname = B;
kernLeft = b;
kernRight = B;
layers = (
{
anchors = (
{
name = bottom;
pos = (323,0);
},
{
name = center;
pos = (162,217);
},
{
name = top;
pos = (323,722);
}
);
background = {
shapes = (
{
closed = 1;
nodes = (
(336,12,ls),
(486,12,o),
(577,87,o),
(577,210,cs),
(577,314,o),
(503,380,o),
(379,380,c),
(379,374,l),
(479,374,o),
(547,439,o),
(547,528,cs),
(547,648,o),
(467,722,o),
(311,722,cs),
(111,722,l),
(111,12,l)
);
},
{
closed = 1;
nodes = (
(197,331,l),
(337,331,ls),
(435,331,o),
(487,286,o),
(487,210,cs),
(487,138,o),
(439,96,o),
(337,96,cs),
(197,96,l)
);
},
{
closed = 1;
nodes = (
(197,638,l),
(315,638,ls),
(413,638,o),
(457,598,o),
(457,526,cs),
(457,455,o),
(413,415,o),
(315,415,cs),
(197,415,l)
);
}
);
};
layerId = m01;
shapes = (
{
alignment = -1;
pos = (76,684);
ref = pixel;
},
{
alignment = -1;
pos = (76,646);
ref = pixel;
},
{
alignment = -1;
pos = (76,608);
ref = pixel;
},
{
alignment = -1;
pos = (76,570);
ref = pixel;
},
{
alignment = -1;
pos = (76,532);
ref = pixel;
},
{
alignment = -1;
pos = (76,494);
ref = pixel;
},
{
alignment = -1;
pos = (76,456);
ref = pixel;
},
{
alignment = -1;
pos = (76,418);
ref = pixel;
},
{
alignment = -1;
pos = (76,380);
ref = pixel;
},
{
alignment = -1;
pos = (76,342);
ref = pixel;
},
{
alignment = -1;
pos = (76,304);
ref = pixel;
},
{
alignment = -1;
pos = (114,304);
ref = pixel;
},
{
alignment = -1;
pos = (114,266);
ref = pixel;
},
{
alignment = -1;
pos = (76,228);
ref = pixel;
},
{
alignment = -1;
pos = (76,190);
ref = pixel;
},
{
alignment = -1;
pos = (76,152);
ref = pixel;
},
{
alignment = -1;
pos = (76,114);
ref = pixel;
},
{
alignment = -1;
pos = (76,76);
ref = pixel;
},
{
alignment = -1;
pos = (76,38);
ref = pixel;
},
{
alignment = -1;
pos = (76,266);
ref = pixel;
},
{
alignment = -1;
pos = (76,0);
ref = pixel;
},
{
alignment = -1;
pos = (114,0);
ref = pixel;
},
{
alignment = -1;
pos = (114,38);
ref = pixel;
},
{
alignment = -1;
pos = (114,76);
ref = pixel;
},
{
alignment = -1;
pos = (114,114);
ref = pixel;
},
{
alignment = -1;
pos = (114,152);
ref = pixel;
},
{
alignment = -1;
pos = (114,190);
ref = pixel;
},
{
alignment = -1;
pos = (114,228);
ref = pixel;
},
{
alignment = -1;
pos = (114,342);
ref = pixel;
},
{
alignment = -1;
pos = (114,380);
ref = pixel;
},
{
alignment = -1;
pos = (114,418);
ref = pixel;
},
{
alignment = -1;
pos = (114,456);
ref = pixel;
},
{
alignment = -1;
pos = (114,494);
ref = pixel;
},
{
alignment = -1;
pos = (114,532);
ref = pixel;
},
{
alignment = -1;
pos = (114,570);
ref = pixel;
},
{
alignment = -1;
pos = (114,608);
ref = pixel;
},
{
alignment = -1;
pos = (114,646);
ref = pixel;
},
{
alignment = -1;
pos = (114,684);
ref = pixel;
},
{
alignment = -1;
pos = (152,684);
ref = pixel;
},
{
alignment = -1;
pos = (190,684);
ref = pixel;
},
{
alignment = -1;
pos = (228,684);
ref = pixel;
},
{
alignment = -1;
pos = (266,684);
ref = pixel;
},
{
alignment = -1;
pos = (304,684);
ref = pixel;
},
{
alignment = -1;
pos = (152,646);
ref = pixel;
},
{
alignment = -1;
pos = (190,646);
ref = pixel;
},
{
alignment = -1;
pos = (228,646);
ref = pixel;
},
{
alignment = -1;
pos = (266,646);
ref = pixel;
},
{
alignment = -1;
pos = (304,646);
ref = pixel;
},
{
alignment = -1;
pos = (342,646);
ref = pixel;
},
{
alignment = -1;
pos = (152,38);
ref = pixel;
},
{
alignment = -1;
pos = (190,38);
ref = pixel;
},
{
alignment = -1;
pos = (228,38);
ref = pixel;
},
{
alignment = -1;
pos = (228,0);
ref = pixel;
},
{
alignment = -1;
pos = (266,0);
ref = pixel;
},
{
alignment = -1;
pos = (304,0);
ref = pixel;
},
{
alignment = -1;
pos = (342,0);
ref = pixel;
},
{
alignment = -1;
pos = (342,38);
ref = pixel;
},
{
alignment = -1;
pos = (304,38);
ref = pixel;
},
{
alignment = -1;
pos = (266,38);
ref = pixel;
},
{
alignment = -1;
pos = (190,0);
ref = pixel;
},
{
alignment = -1;
pos = (152,0);
ref = pixel;
},
{
alignment = -1;
pos = (380,38);
ref = pixel;
},
{
alignment = -1;
pos = (380,0);
ref = pixel;
},
{
alignment = -1;
pos = (380,342);
ref = pixel;
},
{
alignment = -1;
pos = (342,342);
ref = pixel;
},
{
alignment = -1;
pos = (304,342);
ref = pixel;
},
{
alignment = -1;
pos = (266,342);
ref = pixel;
},
{
alignment = -1;
pos = (228,342);
ref = pixel;
},
{
alignment = -1;
pos = (190,342);
ref = pixel;
},
{
alignment = -1;
pos = (152,342);
ref = pixel;
},
{
alignment = -1;
pos = (380,646);
ref = pixel;
},
{
alignment = -1;
pos = (342,684);
ref = pixel;
},
{
alignment = -1;
pos = (380,684);
ref = pixel;
},
{
alignment = -1;
pos = (380,380);
ref = pixel;
},
{
alignment = -1;
pos = (342,380);
ref = pixel;
},
{
alignment = -1;
pos = (304,380);
ref = pixel;
},
{
alignment = -1;
pos = (266,380);
ref = pixel;
},
{
alignment = -1;
pos = (228,380);
ref = pixel;
},
{
alignment = -1;
pos = (190,380);
ref = pixel;
},
{
alignment = -1;
pos = (152,380);
ref = pixel;
},
{
alignment = -1;
pos = (456,532);
ref = pixel;
},
{
alignment = -1;
pos = (456,494);
ref = pixel;
},
{
alignment = -1;
pos = (494,532);
ref = pixel;
},
{
alignment = -1;
pos = (494,494);
ref = pixel;
},
{
alignment = -1;
pos = (494,570);
ref = pixel;
},
{
alignment = -1;
pos = (456,570);
ref = pixel;
},
{
alignment = -1;
pos = (456,608);
ref = pixel;
},
{
alignment = -1;
pos = (418,608);
ref = pixel;
},
{
alignment = -1;
pos = (418,646);
ref = pixel;
},
{
alignment = -1;
pos = (456,646);
ref = pixel;
},
{
alignment = -1;
pos = (456,456);
ref = pixel;
},
{
alignment = -1;
pos = (456,418);
ref = pixel;
},
{
alignment = -1;
pos = (418,418);
ref = pixel;
},
{
alignment = -1;
pos = (418,456);
ref = pixel;
},
{
alignment = -1;
pos = (418,304);
ref = pixel;
},
{
alignment = -1;
pos = (418,342);
ref = pixel;
},
{
alignment = -1;
pos = (456,342);
ref = pixel;
},
{
alignment = -1;
pos = (456,304);
ref = pixel;
},
{
alignment = -1;
pos = (494,266);
ref = pixel;
},
{
alignment = -1;
pos = (532,266);
ref = pixel;
},
{
alignment = -1;
pos = (494,228);
ref = pixel;
},
{
alignment = -1;
pos = (532,228);
ref = pixel;
},
{
alignment = -1;
pos = (494,304);
ref = pixel;
},
{
alignment = -1;
pos = (456,266);
ref = pixel;
},
{
alignment = -1;
pos = (494,190);
ref = pixel;
},
{
alignment = -1;
pos = (532,190);
ref = pixel;
},
{
alignment = -1;
pos = (532,152);
ref = pixel;
},
{
alignment = -1;
pos = (494,152);
ref = pixel;
},
{
alignment = -1;
pos = (532,114);
ref = pixel;
},
{
alignment = -1;
pos = (494,76);
ref = pixel;
},
{
alignment = -1;
pos = (456,76);
ref = pixel;
},
{
alignment = -1;
pos = (456,38);
ref = pixel;
},
{
alignment = -1;
pos = (418,38);
ref = pixel;
},
{
alignment = -1;
pos = (418,76);
ref = pixel;
},
{
alignment = -1;
pos = (494,114);
ref = pixel;
},
{
alignment = -1;
pos = (456,114);
ref = pixel;
}
);
width = 646;
},
{
associatedMasterId = m01;
background = {
shapes = (
{
closed = 1;
nodes = (
(354,0,ls),
(509,0,o),
(596,66,o),
(596,195,cs),
(596,299,o),
(521,370,o),
(400,370,c),
(401,364,l),
(503,364,o),
(566,427,o),
(566,519,cs),
(566,651,o),
(482,710,o),
(314,710,cs),
(70,710,l),
(70,0,l)
);
},
{
closed = 1;
nodes = (
(156,319,l),
(354,319,ls),
(451,319,o),
(506,275,o),
(506,200,cs),
(506,125,o),
(451,84,o),
(354,84,cs),
(156,84,l)
);
},
{
closed = 1;
nodes = (
(156,626,l),
(314,626,ls),
(422,626,o),
(476,590,o),
(476,515,cs),
(476,444,o),
(418,403,o),
(314,403,cs),
(156,403,l)
);
},
{
closed = 1;
nodes = (
(295,0,ls),
(445,0,o),
(536,75,o),
(536,198,cs),
(536,302,o),
(462,368,o),
(338,368,c),
(338,362,l),
(438,362,o),
(506,427,o),
(506,516,cs),
(506,636,o),
(426,710,o),
(270,710,cs),
(70,710,l),
(70,0,l)
);
},
{
closed = 1;
nodes = (
(156,319,l),
(296,319,ls),
(394,319,o),
(446,274,o),
(446,198,cs),
(446,126,o),
(398,84,o),
(296,84,cs),
(156,84,l)
);
},
{
closed = 1;
nodes = (
(156,626,l),
(274,626,ls),
(372,626,o),
(416,586,o),
(416,514,cs),
(416,443,o),
(372,403,o),
(274,403,cs),
(156,403,l)
);
}
);
};
layerId = "592E0615-1CB9-4E70-8E2F-487BE478904C";
name = "25 Nov 25 at 18:20";
shapes = (
{
alignment = -1;
pos = (76,684);
ref = pixel;
},
{
alignment = -1;
pos = (76,646);
ref = pixel;
},
{
alignment = -1;
pos = (76,608);
ref = pixel;
},
{
alignment = -1;
pos = (76,570);
ref = pixel;
},
{
alignment = -1;
pos = (76,532);
ref = pixel;
},
{
alignment = -1;
pos = (76,494);
ref = pixel;
},
{
alignment = -1;
pos = (76,456);
ref = pixel;
},
{
alignment = -1;
pos = (76,418);
ref = pixel;
},
{
alignment = -1;
pos = (76,380);
ref = pixel;
},
{
alignment = -1;
pos = (76,342);
ref = pixel;
},
{
alignment = -1;
pos = (76,304);
ref = pixel;
},
{
alignment = -1;
pos = (114,304);
ref = pixel;
},
{
alignment = -1;
pos = (114,266);
ref = pixel;
},
{
alignment = -1;
pos = (76,228);
ref = pixel;
},
{
alignment = -1;
pos = (76,190);
ref = pixel;
},
{
alignment = -1;
pos = (76,152);
ref = pixel;
},
{
alignment = -1;
pos = (76,114);
ref = pixel;
},
{
alignment = -1;
pos = (76,76);
ref = pixel;
},
{
alignment = -1;
pos = (76,38);
ref = pixel;
},
{
alignment = -1;
pos = (76,266);
ref = pixel;
},
{
alignment = -1;
pos = (76,0);
ref = pixel;
},
{
alignment = -1;
pos = (114,0);
ref = pixel;
},
{
alignment = -1;
pos = (114,38);
ref = pixel;
},
{
alignment = -1;
pos = (114,76);
ref = pixel;
},
{
alignment = -1;
pos = (114,114);
ref = pixel;
},
{
alignment = -1;
pos = (114,152);
ref = pixel;
},
{
alignment = -1;
pos = (114,190);
ref = pixel;
},
{
alignment = -1;
pos = (114,228);
ref = pixel;
},
{
alignment = -1;
pos = (114,342);
ref = pixel;
},
{
alignment = -1;
pos = (114,380);
ref = pixel;
},
{
alignment = -1;
pos = (114,418);
ref = pixel;
},
{
alignment = -1;
pos = (114,456);
ref = pixel;
},
{
alignment = -1;
pos = (114,494);
ref = pixel;
},
{
alignment = -1;
pos = (114,532);
ref = pixel;
},
{
alignment = -1;
pos = (114,570);
ref = pixel;
},
{
alignment = -1;
pos = (114,608);
ref = pixel;
},
{
alignment = -1;
pos = (114,646);
ref = pixel;
},
{
alignment = -1;
pos = (114,684);
ref = pixel;
},
{
alignment = -1;
pos = (152,684);
ref = pixel;
},
{
alignment = -1;
pos = (190,684);
ref = pixel;
},
{
alignment = -1;
pos = (228,684);
ref = pixel;
},
{
alignment = -1;
pos = (266,684);
ref = pixel;
},
{
alignment = -1;
pos = (304,684);
ref = pixel;
},
{
alignment = -1;
pos = (152,646);
ref = pixel;
},
{
alignment = -1;
pos = (190,646);
ref = pixel;
},
{
alignment = -1;
pos = (228,646);
ref = pixel;
},
{
alignment = -1;
pos = (266,646);
ref = pixel;
},
{
alignment = -1;
pos = (304,646);
ref = pixel;
},
{
alignment = -1;
pos = (342,646);
ref = pixel;
},
{
alignment = -1;
pos = (152,38);
ref = pixel;
},
{
alignment = -1;
pos = (190,38);
ref = pixel;
},
{
alignment = -1;
pos = (228,38);
ref = pixel;
},
{
alignment = -1;
pos = (228,0);
ref = pixel;
},
{
alignment = -1;
pos = (266,0);
ref = pixel;
},
{
alignment = -1;
pos = (304,0);
ref = pixel;
},
{
alignment = -1;
pos = (342,0);
ref = pixel;
},
{
alignment = -1;
pos = (342,38);
ref = pixel;
},
{
alignment = -1;
pos = (304,38);
ref = pixel;
},
{
alignment = -1;
pos = (266,38);
ref = pixel;
},
{
alignment = -1;
pos = (190,0);
ref = pixel;
},
{
alignment = -1;
pos = (152,0);
ref = pixel;
},
{
alignment = -1;
pos = (380,38);
ref = pixel;
},
{
alignment = -1;
pos = (380,0);
ref = pixel;
},
{
alignment = -1;
pos = (380,342);
ref = pixel;
},
{
alignment = -1;
pos = (342,342);
ref = pixel;
},
{
alignment = -1;
pos = (304,342);
ref = pixel;
},
{
alignment = -1;
pos = (266,342);
ref = pixel;
},
{
alignment = -1;
pos = (228,342);
ref = pixel;
},
{
alignment = -1;
pos = (190,342);
ref = pixel;
},
{
alignment = -1;
pos = (152,342);
ref = pixel;
},
{
alignment = -1;
pos = (380,646);
ref = pixel;
},
{
alignment = -1;
pos = (418,646);
ref = pixel;
},
{
alignment = -1;
pos = (418,608);
ref = pixel;
},
{
alignment = -1;
pos = (456,646);
ref = pixel;
},
{
alignment = -1;
pos = (456,608);
ref = pixel;
},
{
alignment = -1;
pos = (456,570);
ref = pixel;
},
{
alignment = -1;
pos = (494,608);
ref = pixel;
},
{
alignment = -1;
pos = (494,570);
ref = pixel;
},
{
alignment = -1;
pos = (494,532);
ref = pixel;
},
{
alignment = -1;
pos = (532,228);
ref = pixel;
},
{
alignment = -1;
pos = (532,190);
ref = pixel;
},
{
alignment = -1;
pos = (532,152);
ref = pixel;
},
{
alignment = -1;
pos = (532,114);
ref = pixel;
},
{
alignment = -1;
pos = (532,76);
ref = pixel;
},
{
alignment = -1;
pos = (494,494);
ref = pixel;
},
{
alignment = -1;
pos = (494,456);
ref = pixel;
},
{
alignment = -1;
pos = (456,418);
ref = pixel;
},
{
alignment = -1;
pos = (456,304);
ref = pixel;
},
{
alignment = -1;
pos = (494,266);
ref = pixel;
},
{
alignment = -1;
pos = (418,342);
ref = pixel;
},
{
alignment = -1;
pos = (456,38);
ref = pixel;
},
{
alignment = -1;
pos = (494,38);
ref = pixel;
},
{
alignment = -1;
pos = (494,76);
ref = pixel;
},
{
alignment = -1;
pos = (456,76);
ref = pixel;
},
{
alignment = -1;
pos = (494,228);
ref = pixel;
},
{
alignment = -1;
pos = (494,114);
ref = pixel;
},
{
alignment = -1;
pos = (494,190);
ref = pixel;
},
{
alignment = -1;
pos = (494,152);
ref = pixel;
},
{
alignment = -1;
pos = (380,608);
ref = pixel;
},
{
alignment = -1;
pos = (342,684);
ref = pixel;
},
{
alignment = -1;
pos = (380,684);
ref = pixel;
},
{
alignment = -1;
pos = (418,0);
ref = pixel;
},
{
alignment = -1;
pos = (418,38);
ref = pixel;
},
{
alignment = -1;
pos = (418,76);
ref = pixel;
},
{
alignment = -1;
pos = (532,266);
ref = pixel;
},
{
alignment = -1;
pos = (494,304);
ref = pixel;
},
{
alignment = -1;
pos = (456,266);
ref = pixel;
},
{
alignment = -1;
pos = (418,380);
ref = pixel;
},
{
alignment = -1;
pos = (380,380);
ref = pixel;
},
{
alignment = -1;
pos = (342,380);
ref = pixel;
},
{
alignment = -1;
pos = (304,380);
ref = pixel;
},
{
alignment = -1;
pos = (266,380);
ref = pixel;
},
{
alignment = -1;
pos = (228,380);
ref = pixel;
},
{
alignment = -1;
pos = (190,380);
ref = pixel;
},
{
alignment = -1;
pos = (152,380);
ref = pixel;
},
{
alignment = -1;
pos = (418,304);
ref = pixel;
},
{
alignment = -1;
pos = (418,418);
ref = pixel;
},
{
alignment = -1;
pos = (456,380);
ref = pixel;
},
{
alignment = -1;
pos = (494,418);
ref = pixel;
},
{
alignment = -1;
pos = (532,570);
ref = pixel;
},
{
alignment = -1;
pos = (532,532);
ref = pixel;
},
{
alignment = -1;
pos = (532,494);
ref = pixel;
},
{
alignment = -1;
pos = (532,456);
ref = pixel;
}
);
width = 646;
}
);
unicode = 66;
}
{
glyphname = C;
kernLeft = O;
kernRight = O;
layers = (
{
anchors = (
{
name = bottom;
pos = (342,0);
},
{
name = top;
pos = (342,722);
}
);
background = {
shapes = (
{
closed = 1;
nodes = (
(519,-16,o),
(622,88,o),
(648,242,c),
(557,248,l),
(539,137,o),
(473,68,o),
(349,68,cs),
(213,68,o),
(120,174,o),
(120,354,cs),
(120,534,o),
(213,642,o),
(349,642,cs),
(467,642,o),
(531,579,o),
(551,478,c),
(642,484,l),
(612,633,o),
(521,726,o),
(349,726,cs),
(159,726,o),
(30,584,o),
(30,354,cs),
(30,124,o),
(159,-16,o),
(349,-16,cs)
);
}
);
};
layerId = m01;
shapes = (
{
alignment = -1;
pos = (190,646);
ref = pixel;
},
{
alignment = -1;
pos = (228,646);
ref = pixel;
},
{
alignment = -1;
pos = (266,646);
ref = pixel;
},
{
alignment = -1;
pos = (228,684);
ref = pixel;
},
{
alignment = -1;
pos = (190,608);
ref = pixel;
},
{
alignment = -1;
pos = (152,608);
ref = pixel;
},
{
alignment = -1;
pos = (152,570);
ref = pixel;
},
{
alignment = -1;
pos = (114,570);
ref = pixel;
},
{
alignment = -1;
pos = (114,532);
ref = pixel;
},
{
alignment = -1;
pos = (76,532);
ref = pixel;
},
{
alignment = -1;
pos = (114,494);
ref = pixel;
},
{
alignment = -1;
pos = (76,494);
ref = pixel;
},
{
alignment = -1;
pos = (76,456);
ref = pixel;
},
{
alignment = -1;
pos = (76,418);
ref = pixel;
},
{
alignment = -1;
pos = (76,380);
ref = pixel;
},
{
alignment = -1;
pos = (76,342);
ref = pixel;
},
{
alignment = -1;
pos = (76,304);
ref = pixel;
},
{
alignment = -1;
pos = (76,266);
ref = pixel;
},
{
alignment = -1;
pos = (76,228);
ref = pixel;
},
{
alignment = -1;
pos = (76,190);
ref = pixel;
},
{
alignment = -1;
pos = (76,152);
ref = pixel;
},
{
alignment = -1;
pos = (114,190);
ref = pixel;
},
{
alignment = -1;
pos = (114,152);
ref = pixel;
},
{
alignment = -1;
pos = (152,646);
ref = pixel;
},
{
alignment = -1;
pos = (114,608);
ref = pixel;
},
{
alignment = -1;
pos = (266,684);
ref = pixel;
},
{
alignment = -1;
pos = (114,114);
ref = pixel;
},
{
alignment = -1;
pos = (152,114);
ref = pixel;
},
{
alignment = -1;
pos = (152,76);
ref = pixel;
},
{
alignment = -1;
pos = (114,76);
ref = pixel;
},
{
alignment = -1;
pos = (152,38);
ref = pixel;
},
{
alignment = -1;
pos = (190,38);
ref = pixel;
},
{
alignment = -1;
pos = (190,76);
ref = pixel;
},
{
alignment = -1;
pos = (228,38);
ref = pixel;
},
{
alignment = -1;
pos = (228,0);
ref = pixel;
},
{
alignment = -1;
pos = (266,0);
ref = pixel;
},
{
alignment = -1;
pos = (266,38);
ref = pixel;
},
{
alignment = -1;
pos = (494,646);
ref = pixel;
},
{
alignment = -1;
pos = (380,646);
ref = pixel;
},
{
alignment = -1;
pos = (342,646);
ref = pixel;
},
{
alignment = -1;
pos = (380,684);
ref = pixel;
},
{
alignment = -1;
pos = (494,608);
ref = pixel;
},
{
alignment = -1;
pos = (532,608);
ref = pixel;
},
{
alignment = -1;
pos = (532,570);
ref = pixel;
},
{
alignment = -1;
pos = (570,570);
ref = pixel;
},
{
alignment = -1;
pos = (570,532);
ref = pixel;
},
{
alignment = -1;
pos = (608,532);
ref = pixel;
},
{
alignment = -1;
pos = (570,494);
ref = pixel;
},
{
alignment = -1;
pos = (456,646);
ref = pixel;
},
{
alignment = -1;
pos = (456,38);
ref = pixel;
},
{
alignment = -1;
pos = (608,152);
ref = pixel;
},
{
alignment = -1;
pos = (570,190);
ref = pixel;
},
{
alignment = -1;
pos = (570,152);
ref = pixel;
},
{
alignment = -1;
pos = (532,646);
ref = pixel;
},
{
alignment = -1;
pos = (570,608);
ref = pixel;
},
{
alignment = -1;
pos = (342,684);
ref = pixel;
},
{
alignment = -1;
pos = (570,114);
ref = pixel;
},
{
alignment = -1;
pos = (532,114);
ref = pixel;
},
{
alignment = -1;
pos = (532,76);
ref = pixel;
},
{
alignment = -1;
pos = (570,76);
ref = pixel;
},
{
alignment = -1;
pos = (532,38);
ref = pixel;
},
{
alignment = -1;
pos = (494,38);
ref = pixel;
},
{
alignment = -1;
pos = (494,76);
ref = pixel;
},
{
alignment = -1;
pos = (380,38);
ref = pixel;
},
{
alignment = -1;
pos = (380,0);
ref = pixel;
},
{
alignment = -1;
pos = (342,0);
ref = pixel;
},
{
alignment = -1;
pos = (342,38);
ref = pixel;
},
{
alignment = -1;
pos = (304,646);
ref = pixel;
},
{
alignment = -1;
pos = (304,684);
ref = pixel;
},
{
alignment = -1;
pos = (304,38);
ref = pixel;
},
{
alignment = -1;
pos = (304,0);
ref = pixel;
},
{
alignment = -1;
pos = (38,456);
ref = pixel;
},
{
alignment = -1;
pos = (38,418);
ref = pixel;
},
{
alignment = -1;
pos = (38,380);
ref = pixel;
},
{
alignment = -1;
pos = (38,342);
ref = pixel;
},
{
alignment = -1;
pos = (38,304);
ref = pixel;
},
{
alignment = -1;
pos = (38,266);
ref = pixel;
},
{
alignment = -1;
pos = (38,228);
ref = pixel;
},
{
alignment = -1;
pos = (418,646);
ref = pixel;
},
{
alignment = -1;
pos = (418,38);
ref = pixel;
},
{
alignment = -1;
pos = (418,0);
ref = pixel;
},
{
alignment = -1;
pos = (418,684);
ref = pixel;
},
{
alignment = -1;
pos = (570,228);
ref = pixel;
},
{
alignment = -1;
pos = (608,494);
ref = pixel;
},
{
alignment = -1;
pos = (608,456);
ref = pixel;
},
{
alignment = -1;
pos = (570,456);
ref = pixel;
},
{
alignment = -1;
pos = (608,190);
ref = pixel;
},
{
alignment = -1;
pos = (608,228);
ref = pixel;
}
);
width = 684;
}
);
metricLeft = O;
metricRight = O;
unicode = 67;
}
{
glyphname = E;
kernLeft = b;
kernRight = E;
layers = (
{
anchors = (
{
name = bottom;
pos = (304,0);
},
{
name = ogonek;
pos = (532,38);
},
{
name = top;
pos = (304,722);
},
{
name = topleft;
pos = (20,722);
}
);
background = {
shapes = (
{
closed = 1;
nodes = (
(511,0,l),
(511,84,l),
(157,84,l),
(157,315,l),
(491,315,l),
(491,397,l),
(157,397,l),
(157,626,l),
(503,626,l),
(503,710,l),
(71,710,l),
(71,0,l)
);
}
);
};
layerId = m01;
shapes = (
{
alignment = -1;
pos = (76,0);
ref = pixel;
},
{
alignment = -1;
pos = (114,0);
ref = pixel;
},
{
alignment = -1;
pos = (114,38);
ref = pixel;
},
{
alignment = -1;
pos = (76,38);
ref = pixel;
},
{
alignment = -1;
pos = (76,76);
ref = pixel;
},
{
alignment = -1;
pos = (114,76);
ref = pixel;
},
{
alignment = -1;
pos = (114,114);
ref = pixel;
},
{
alignment = -1;
pos = (76,114);
ref = pixel;
},
{
alignment = -1;
pos = (114,152);
ref = pixel;
},
{
alignment = -1;
pos = (76,152);
ref = pixel;
},
{
alignment = -1;
pos = (76,190);
ref = pixel;
},
{
alignment = -1;
pos = (76,228);
ref = pixel;
},
{
alignment = -1;
pos = (76,266);
ref = pixel;
},
{
alignment = -1;
pos = (76,304);
ref = pixel;
},
{
alignment = -1;
pos = (76,342);
ref = pixel;
},
{
alignment = -1;
pos = (76,380);
ref = pixel;
},
{
alignment = -1;
pos = (76,418);
ref = pixel;
},
{
alignment = -1;
pos = (76,456);
ref = pixel;
},
{
alignment = -1;
pos = (76,494);
ref = pixel;
},
{
alignment = -1;
pos = (76,532);
ref = pixel;
},
{
alignment = -1;
pos = (76,570);
ref = pixel;
},
{
alignment = -1;
pos = (76,608);
ref = pixel;
},
{
alignment = -1;
pos = (76,684);
ref = pixel;
},
{
alignment = -1;
pos = (76,646);
ref = pixel;
},
{
alignment = -1;
pos = (114,646);
ref = pixel;
},
{
alignment = -1;
pos = (114,684);
ref = pixel;
},
{
alignment = -1;
pos = (114,608);
ref = pixel;
},
{
alignment = -1;
pos = (114,570);
ref = pixel;
},
{
alignment = -1;
pos = (114,532);
ref = pixel;
},
{
alignment = -1;
pos = (114,494);
ref = pixel;
},
{
alignment = -1;
pos = (114,456);
ref = pixel;
},
{
alignment = -1;
pos = (114,418);
ref = pixel;
},
{
alignment = -1;
pos = (114,380);
ref = pixel;
},
{
alignment = -1;
pos = (114,342);
ref = pixel;
},
{
alignment = -1;
pos = (114,304);
ref = pixel;
},
{
alignment = -1;
pos = (114,266);
ref = pixel;
},
{
alignment = -1;
pos = (114,228);
ref = pixel;
},
{
alignment = -1;
pos = (114,190);
ref = pixel;
},
{
alignment = -1;
pos = (152,684);
ref = pixel;
},
{
alignment = -1;
pos = (190,684);
ref = pixel;
},
{
alignment = -1;
pos = (228,684);
ref = pixel;
},
{
alignment = -1;
pos = (266,684);
ref = pixel;
},
{
alignment = -1;
pos = (304,684);
ref = pixel;
},
{
alignment = -1;
pos = (342,684);
ref = pixel;
},
{
alignment = -1;
pos = (380,684);
ref = pixel;
},
{
alignment = -1;
pos = (418,684);
ref = pixel;
},
{
alignment = -1;
pos = (456,684);
ref = pixel;
},
{
alignment = -1;
pos = (418,646);
ref = pixel;
},
{
alignment = -1;
pos = (456,646);
ref = pixel;
},
{
alignment = -1;
pos = (380,646);
ref = pixel;
},
{
alignment = -1;
pos = (342,646);
ref = pixel;
},
{
alignment = -1;
pos = (304,646);
ref = pixel;
},
{
alignment = -1;
pos = (266,646);
ref = pixel;
},
{
alignment = -1;
pos = (228,646);
ref = pixel;
},
{
alignment = -1;
pos = (190,646);
ref = pixel;
},
{
alignment = -1;
pos = (152,646);
ref = pixel;
},
{
alignment = -1;
pos = (152,342);
ref = pixel;
},
{
alignment = -1;
pos = (190,342);
ref = pixel;
},
{
alignment = -1;
pos = (228,342);
ref = pixel;
},
{
alignment = -1;
pos = (266,342);
ref = pixel;
},
{
alignment = -1;
pos = (304,342);
ref = pixel;
},
{
alignment = -1;
pos = (342,342);
ref = pixel;
},
{
alignment = -1;
pos = (380,342);
ref = pixel;
},
{
alignment = -1;
pos = (418,342);
ref = pixel;
},
{
alignment = -1;
pos = (456,342);
ref = pixel;
},
{
alignment = -1;
pos = (456,38);
ref = pixel;
},
{
alignment = -1;
pos = (418,38);
ref = pixel;
},
{
alignment = -1;
pos = (380,38);
ref = pixel;
},
{
alignment = -1;
pos = (342,38);
ref = pixel;
},
{
alignment = -1;
pos = (304,38);
ref = pixel;
},
{
alignment = -1;
pos = (266,38);
ref = pixel;
},
{
alignment = -1;
pos = (228,38);
ref = pixel;
},
{
alignment = -1;
pos = (190,38);
ref = pixel;
},
{
alignment = -1;
pos = (152,38);
ref = pixel;
},
{
alignment = -1;
pos = (456,0);
ref = pixel;
},
{
alignment = -1;
pos = (418,0);
ref = pixel;
},
{
alignment = -1;
pos = (380,0);
ref = pixel;
},
{
alignment = -1;
pos = (342,0);
ref = pixel;
},
{
alignment = -1;
pos = (266,0);
ref = pixel;
},
{
alignment = -1;
pos = (228,0);
ref = pixel;
},
{
alignment = -1;
pos = (190,0);
ref = pixel;
},
{
alignment = -1;
pos = (152,0);
ref = pixel;
},
{
alignment = -1;
pos = (304,0);
ref = pixel;
},
{
alignment = -1;
pos = (456,380);
ref = pixel;
},
{
alignment = -1;
pos = (418,380);
ref = pixel;
},
{
alignment = -1;
pos = (380,380);
ref = pixel;
},
{
alignment = -1;
pos = (342,380);
ref = pixel;
},
{
alignment = -1;
pos = (304,380);
ref = pixel;
},
{
alignment = -1;
pos = (266,380);
ref = pixel;
},
{
alignment = -1;
pos = (228,380);
ref = pixel;
},
{
alignment = -1;
pos = (190,380);
ref = pixel;
},
{
alignment = -1;
pos = (152,380);
ref = pixel;
},
{
alignment = -1;
pos = (494,684);
ref = pixel;
},
{
alignment = -1;
pos = (494,646);
ref = pixel;
},
{
alignment = -1;
pos = (494,380);
ref = pixel;
},
{
alignment = -1;
pos = (494,342);
ref = pixel;
},
{
alignment = -1;
pos = (494,38);
ref = pixel;
},
{
alignment = -1;
pos = (494,0);
ref = pixel;
}
);
width = 608;
}
);
unicode = 69;
}
{
color = 7;
glyphname = H;
kernLeft = b;
kernRight = d;
layers = (
{
anchors = (
{
name = bottom;
pos = (342,0);
},
{
name = center;
pos = (342,578);
},
{
name = top;
pos = (342,722);
},
{
name = topleft;
pos = (20,722);
}
);
background = {
shapes = (
{
closed = 1;
nodes = (
(157,0,l),
(157,349,l),
(113,315,l),
(509,315,l),
(465,349,l),
(465,0,l),
(551,0,l),
(551,710,l),
(465,710,l),
(465,365,l),
(509,399,l),
(113,399,l),
(157,365,l),
(157,710,l),
(71,710,l),
(71,0,l)
);
},
{
closed = 1;
nodes = (
(143,0,l),
(143,349,l),
(99,315,l),
(544,315,l),
(500,349,l),
(500,0,l),
(586,0,l),
(586,710,l),
(500,710,l),
(500,365,l),
(544,399,l),
(99,399,l),
(143,365,l),
(143,710,l),
(57,710,l),
(57,0,l)
);
}
);
};
layerId = m01;
shapes = (
{
alignment = -1;
pos = (76,0);
ref = pixel;
},
{
alignment = -1;
pos = (114,0);
ref = pixel;
},
{
alignment = -1;
pos = (76,38);
ref = pixel;
},
{
alignment = -1;
pos = (76,76);
ref = pixel;
},
{
alignment = -1;
pos = (76,114);
ref = pixel;
},
{
alignment = -1;
pos = (76,152);
ref = pixel;
},
{
alignment = -1;
pos = (76,190);
ref = pixel;
},
{
alignment = -1;
pos = (76,228);
ref = pixel;
},
{
alignment = -1;
pos = (76,266);
ref = pixel;
},
{
alignment = -1;
pos = (76,304);
ref = pixel;
},
{
alignment = -1;
pos = (76,342);
ref = pixel;
},
{
alignment = -1;
pos = (76,380);
ref = pixel;
},
{
alignment = -1;
pos = (76,418);
ref = pixel;
},
{
alignment = -1;
pos = (76,456);
ref = pixel;
},
{
alignment = -1;
pos = (76,494);
ref = pixel;
},
{
alignment = -1;
pos = (76,532);
ref = pixel;
},
{
alignment = -1;
pos = (76,570);
ref = pixel;
},
{
alignment = -1;
pos = (76,608);
ref = pixel;
},
{
alignment = -1;
pos = (76,646);
ref = pixel;
},
{
alignment = -1;
pos = (76,684);
ref = pixel;
},
{
alignment = -1;
pos = (114,684);
ref = pixel;
},
{
alignment = -1;
pos = (114,646);
ref = pixel;
},
{
alignment = -1;
pos = (114,608);
ref = pixel;
},
{
alignment = -1;
pos = (114,570);
ref = pixel;
},
{
alignment = -1;
pos = (114,532);
ref = pixel;
},
{
alignment = -1;
pos = (114,494);
ref = pixel;
},
{
alignment = -1;
pos = (114,456);
ref = pixel;
},
{
alignment = -1;
pos = (114,418);
ref = pixel;
},
{
alignment = -1;
pos = (114,380);
ref = pixel;
},
{
alignment = -1;
pos = (114,342);
ref = pixel;
},
{
alignment = -1;
pos = (114,304);
ref = pixel;
},
{
alignment = -1;
pos = (114,266);
ref = pixel;
},
{
alignment = -1;
pos = (114,228);
ref = pixel;
},
{
alignment = -1;
pos = (114,190);
ref = pixel;
},
{
alignment = -1;
pos = (114,152);
ref = pixel;
},
{
alignment = -1;
pos = (114,114);
ref = pixel;
},
{
alignment = -1;
pos = (114,76);
ref = pixel;
},
{
alignment = -1;
pos = (114,38);
ref = pixel;
},
{
alignment = -1;
pos = (152,342);
ref = pixel;
},
{
alignment = -1;
pos = (190,342);
ref = pixel;
},
{
alignment = -1;
pos = (228,342);
ref = pixel;
},
{
alignment = -1;
pos = (266,342);
ref = pixel;
},
{
alignment = -1;
pos = (304,342);
ref = pixel;
},
{
alignment = -1;
pos = (342,342);
ref = pixel;
},
{
alignment = -1;
pos = (380,342);
ref = pixel;
},
{
alignment = -1;
pos = (418,342);
ref = pixel;
},
{
alignment = -1;
pos = (456,342);
ref = pixel;
},
{
alignment = -1;
pos = (494,342);
ref = pixel;
},
{
alignment = -1;
pos = (570,684);
ref = pixel;
},
{
alignment = -1;
pos = (532,646);
ref = pixel;
},
{
alignment = -1;
pos = (532,608);
ref = pixel;
},
{
alignment = -1;
pos = (532,570);
ref = pixel;
},
{
alignment = -1;
pos = (532,494);
ref = pixel;
},
{
alignment = -1;
pos = (532,418);
ref = pixel;
},
{
alignment = -1;
pos = (532,380);
ref = pixel;
},
{
alignment = -1;
pos = (532,304);
ref = pixel;
},
{
alignment = -1;
pos = (532,266);
ref = pixel;
},
{
alignment = -1;
pos = (532,228);
ref = pixel;
},
{
alignment = -1;
pos = (532,190);
ref = pixel;
},
{
alignment = -1;
pos = (532,152);
ref = pixel;
},
{
alignment = -1;
pos = (532,114);
ref = pixel;
},
{
alignment = -1;
pos = (532,76);
ref = pixel;
},
{
alignment = -1;
pos = (532,38);
ref = pixel;
},
{
alignment = -1;
pos = (570,0);
ref = pixel;
},
{
alignment = -1;
pos = (532,532);
ref = pixel;
},
{
alignment = -1;
pos = (532,456);
ref = pixel;
},
{
alignment = -1;
pos = (532,342);
ref = pixel;
},
{
alignment = -1;
pos = (532,0);
ref = pixel;
},
{
alignment = -1;
pos = (532,684);
ref = pixel;
},
{
alignment = -1;
pos = (570,646);
ref = pixel;
},
{
alignment = -1;
pos = (570,608);
ref = pixel;
},
{
alignment = -1;
pos = (570,570);
ref = pixel;
},
{
alignment = -1;
pos = (570,532);
ref = pixel;
},
{
alignment = -1;
pos = (570,494);
ref = pixel;
},
{
alignment = -1;
pos = (570,456);
ref = pixel;
},
{
alignment = -1;
pos = (570,418);
ref = pixel;
},
{
alignment = -1;
pos = (570,380);
ref = pixel;
},
{
alignment = -1;
pos = (570,342);
ref = pixel;
},
{
alignment = -1;
pos = (570,304);
ref = pixel;
},
{
alignment = -1;
pos = (570,266);
ref = pixel;
},
{
alignment = -1;
pos = (570,228);
ref = pixel;
},
{
alignment = -1;
pos = (570,190);
ref = pixel;
},
{
alignment = -1;
pos = (570,152);
ref = pixel;
},
{
alignment = -1;
pos = (570,114);
ref = pixel;
},
{
alignment = -1;
pos = (570,76);
ref = pixel;
},
{
alignment = -1;
pos = (570,38);
ref = pixel;
},
{
alignment = -1;
pos = (152,380);
ref = pixel;
},
{
alignment = -1;
pos = (190,380);
ref = pixel;
},
{
alignment = -1;
pos = (228,380);
ref = pixel;
},
{
alignment = -1;
pos = (266,380);
ref = pixel;
},
{
alignment = -1;
pos = (304,380);
ref = pixel;
},
{
alignment = -1;
pos = (342,380);
ref = pixel;
},
{
alignment = -1;
pos = (380,380);
ref = pixel;
},
{
alignment = -1;
pos = (418,380);
ref = pixel;
},
{
alignment = -1;
pos = (456,380);
ref = pixel;
},
{
alignment = -1;
pos = (494,380);
ref = pixel;
}
);
width = 684;
}
);
unicode = 72;
}
{
glyphname = J;
kernLeft = J;
kernRight = U;
layers = (
{
anchors = (
{
name = bottom;
pos = (304,0);
},
{
name = top;
pos = (494,722);
}
);
background = {
shapes = (
{
closed = 1;
nodes = (
(454,-16,o),
(542,86,o),
(542,248,cs),
(542,710,l),
(456,710,l),
(456,248,ls),
(456,133,o),
(405,68,o),
(315,68,cs),
(228,68,o),
(178,129,o),
(177,238,c),
(89,232,l),
(90,86,o),
(183,-16,o),
(315,-16,cs)
);
}
);
};
layerId = m01;
shapes = (
{
alignment = -1;
pos = (456,684);
ref = pixel;
},
{
alignment = -1;
pos = (494,684);
ref = pixel;
},
{
alignment = -1;
pos = (494,646);
ref = pixel;
},
{
alignment = -1;
pos = (494,608);
ref = pixel;
},
{
alignment = -1;
pos = (494,570);
ref = pixel;
},
{
alignment = -1;
pos = (494,532);
ref = pixel;
},
{
alignment = -1;
pos = (494,494);
ref = pixel;
},
{
alignment = -1;
pos = (494,456);
ref = pixel;
},
{
alignment = -1;
pos = (494,418);
ref = pixel;
},
{
alignment = -1;
pos = (494,380);
ref = pixel;
},
{
alignment = -1;
pos = (494,342);
ref = pixel;
},
{
alignment = -1;
pos = (456,304);
ref = pixel;
},
{
alignment = -1;
pos = (456,266);
ref = pixel;
},
{
alignment = -1;
pos = (456,228);
ref = pixel;
},
{
alignment = -1;
pos = (456,190);
ref = pixel;
},
{
alignment = -1;
pos = (456,608);
ref = pixel;
},
{
alignment = -1;
pos = (456,570);
ref = pixel;
},
{
alignment = -1;
pos = (456,532);
ref = pixel;
},
{
alignment = -1;
pos = (456,494);
ref = pixel;
},
{
alignment = -1;
pos = (456,456);
ref = pixel;
},
{
alignment = -1;
pos = (456,418);
ref = pixel;
},
{
alignment = -1;
pos = (456,380);
ref = pixel;
},
{
alignment = -1;
pos = (456,342);
ref = pixel;
},
{
alignment = -1;
pos = (456,646);
ref = pixel;
},
{
alignment = -1;
pos = (494,304);
ref = pixel;
},
{
alignment = -1;
pos = (494,266);
ref = pixel;
},
{
alignment = -1;
pos = (494,228);
ref = pixel;
},
{
alignment = -1;
pos = (494,190);
ref = pixel;
},
{
alignment = -1;
pos = (228,0);
ref = pixel;
},
{
alignment = -1;
pos = (266,0);
ref = pixel;
},
{
alignment = -1;
pos = (304,0);
ref = pixel;
},
{
alignment = -1;
pos = (342,0);
ref = pixel;
},
{
alignment = -1;
pos = (380,0);
ref = pixel;
},
{
alignment = -1;
pos = (152,38);
ref = pixel;
},
{
alignment = -1;
pos = (190,38);
ref = pixel;
},
{
alignment = -1;
pos = (228,38);
ref = pixel;
},
{
alignment = -1;
pos = (266,38);
ref = pixel;
},
{
alignment = -1;
pos = (304,38);
ref = pixel;
},
{
alignment = -1;
pos = (342,38);
ref = pixel;
},
{
alignment = -1;
pos = (380,38);
ref = pixel;
},
{
alignment = -1;
pos = (418,38);
ref = pixel;
},
{
alignment = -1;
pos = (456,76);
ref = pixel;
},
{
alignment = -1;
pos = (418,76);
ref = pixel;
},
{
alignment = -1;
pos = (152,76);
ref = pixel;
},
{
alignment = -1;
pos = (114,76);
ref = pixel;
},
{
alignment = -1;
pos = (114,114);
ref = pixel;
},
{
alignment = -1;
pos = (152,114);
ref = pixel;
},
{
alignment = -1;
pos = (456,114);
ref = pixel;
},
{
alignment = -1;
pos = (456,152);
ref = pixel;
},
{
alignment = -1;
pos = (114,152);
ref = pixel;
},
{
alignment = -1;
pos = (114,190);
ref = pixel;
},
{
alignment = -1;
pos = (76,152);
ref = pixel;
},
{
alignment = -1;
pos = (76,190);
ref = pixel;
},
{
alignment = -1;
pos = (190,0);
ref = pixel;
},
{
alignment = -1;
pos = (190,76);
ref = pixel;
},
{
alignment = -1;
pos = (380,76);
ref = pixel;
},
{
alignment = -1;
pos = (418,114);
ref = pixel;
},
{
alignment = -1;
pos = (494,152);
ref = pixel;
},
{
alignment = -1;
pos = (494,114);
ref = pixel;
}
);
width = 608;
}
);
unicode = 74;
}
{
color = 6;
glyphname = K;
kernLeft = H;
kernRight = X;
layers = (
{
anchors = (
{
name = bottom;
pos = (304,0);
},
{
name = top;
pos = (304,722);
}
);
background = {
shapes = (
{
closed = 1;
nodes = (
(157,0,l),
(157,237,l),
(249,338,l),
(499,0,l),
(604,0,l),
(307,402,l),
(585,710,l),
(476,710,l),
(157,357,l),
(157,710,l),
(71,710,l),
(71,0,l)
);
}
);
};
layerId = m01;
shapes = (
{
alignment = -1;
pos = (76,684);
ref = pixel;
},
{
alignment = -1;
pos = (76,646);
ref = pixel;
},
{
alignment = -1;
pos = (76,608);
ref = pixel;
},
{
alignment = -1;
pos = (76,570);
ref = pixel;
},
{
alignment = -1;
pos = (76,532);
ref = pixel;
},
{
alignment = -1;
pos = (76,494);
ref = pixel;
},
{
alignment = -1;
pos = (76,456);
ref = pixel;
},
{
alignment = -1;
pos = (76,418);
ref = pixel;
},
{
alignment = -1;
pos = (76,380);
ref = pixel;
},
{
alignment = -1;
pos = (76,342);
ref = pixel;
},
{
alignment = -1;
pos = (76,304);
ref = pixel;
},
{
alignment = -1;
pos = (76,266);
ref = pixel;
},
{
alignment = -1;
pos = (76,228);
ref = pixel;
},
{
alignment = -1;
pos = (76,76);
ref = pixel;
},
{
alignment = -1;
pos = (76,38);
ref = pixel;
},
{
alignment = -1;
pos = (76,0);
ref = pixel;
},
{
alignment = -1;
pos = (114,76);
ref = pixel;
},
{
alignment = -1;
pos = (114,152);
ref = pixel;
},
{
alignment = -1;
pos = (114,190);
ref = pixel;
},
{
alignment = -1;
pos = (114,228);
ref = pixel;
},
{
alignment = -1;
pos = (76,190);
ref = pixel;
},
{
alignment = -1;
pos = (76,152);
ref = pixel;
},
{
alignment = -1;
pos = (76,114);
ref = pixel;
},
{
alignment = -1;
pos = (114,0);
ref = pixel;
},
{
alignment = -1;
pos = (114,38);
ref = pixel;
},
{
alignment = -1;
pos = (114,114);
ref = pixel;
},
{
alignment = -1;
pos = (114,266);
ref = pixel;
},
{
alignment = -1;
pos = (114,304);
ref = pixel;
},
{
alignment = -1;
pos = (114,342);
ref = pixel;
},
{
alignment = -1;
pos = (114,380);
ref = pixel;
},
{
alignment = -1;
pos = (114,418);
ref = pixel;
},
{
alignment = -1;
pos = (114,456);
ref = pixel;
},
{
alignment = -1;
pos = (114,494);
ref = pixel;
},
{
alignment = -1;
pos = (114,532);
ref = pixel;
},
{
alignment = -1;
pos = (114,570);
ref = pixel;
},
{
alignment = -1;
pos = (114,608);
ref = pixel;
},
{
alignment = -1;
pos = (114,646);
ref = pixel;
},
{
alignment = -1;
pos = (114,684);
ref = pixel;
},
{
alignment = -1;
pos = (152,304);
ref = pixel;
},
{
alignment = -1;
pos = (190,342);
ref = pixel;
},
{
alignment = -1;
pos = (228,380);
ref = pixel;
},
{
alignment = -1;
pos = (266,418);
ref = pixel;
},
{
alignment = -1;
pos = (304,418);
ref = pixel;
},
{
alignment = -1;
pos = (304,456);
ref = pixel;
},
{
alignment = -1;
pos = (342,456);
ref = pixel;
},
{
alignment = -1;
pos = (342,494);
ref = pixel;
},
{
alignment = -1;
pos = (380,494);
ref = pixel;
},
{
alignment = -1;
pos = (380,532);
ref = pixel;
},
{
alignment = -1;
pos = (342,532);
ref = pixel;
},
{
alignment = -1;
pos = (380,570);
ref = pixel;
},
{
alignment = -1;
pos = (418,570);
ref = pixel;
},
{
alignment = -1;
pos = (418,532);
ref = pixel;
},
{
alignment = -1;
pos = (418,608);
ref = pixel;
},
{
alignment = -1;
pos = (456,608);
ref = pixel;
},
{
alignment = -1;
pos = (456,570);
ref = pixel;
},
{
alignment = -1;
pos = (456,646);
ref = pixel;
},
{
alignment = -1;
pos = (494,646);
ref = pixel;
},
{
alignment = -1;
pos = (494,608);
ref = pixel;
},
{
alignment = -1;
pos = (494,684);
ref = pixel;
},
{
alignment = -1;
pos = (532,684);
ref = pixel;
},
{
alignment = -1;
pos = (532,646);
ref = pixel;
},
{
alignment = -1;
pos = (304,494);
ref = pixel;
},
{
alignment = -1;
pos = (266,456);
ref = pixel;
},
{
alignment = -1;
pos = (228,418);
ref = pixel;
},
{
alignment = -1;
pos = (266,380);
ref = pixel;
},
{
alignment = -1;
pos = (228,342);
ref = pixel;
},
{
alignment = -1;
pos = (190,380);
ref = pixel;
},
{
alignment = -1;
pos = (266,342);
ref = pixel;
},
{
alignment = -1;
pos = (266,304);
ref = pixel;
},
{
alignment = -1;
pos = (304,304);
ref = pixel;
},
{
alignment = -1;
pos = (342,266);
ref = pixel;
},
{
alignment = -1;
pos = (342,228);
ref = pixel;
},
{
alignment = -1;
pos = (418,152);
ref = pixel;
},
{
alignment = -1;
pos = (456,114);
ref = pixel;
},
{
alignment = -1;
pos = (494,76);
ref = pixel;
},
{
alignment = -1;
pos = (494,38);
ref = pixel;
},
{
alignment = -1;
pos = (532,38);
ref = pixel;
},
{
alignment = -1;
pos = (532,0);
ref = pixel;
},
{
alignment = -1;
pos = (494,0);
ref = pixel;
},
{
alignment = -1;
pos = (418,190);
ref = pixel;
},
{
alignment = -1;
pos = (380,228);
ref = pixel;
},
{
alignment = -1;
pos = (304,266);
ref = pixel;
},
{
alignment = -1;
pos = (456,152);
ref = pixel;
},
{
alignment = -1;
pos = (494,114);
ref = pixel;
},
{
alignment = -1;
pos = (532,76);
ref = pixel;
},
{
alignment = -1;
pos = (228,304);
ref = pixel;
},
{
alignment = -1;
pos = (266,266);
ref = pixel;
},
{
alignment = -1;
pos = (304,228);
ref = pixel;
},
{
alignment = -1;
pos = (342,190);
ref = pixel;
},
{
alignment = -1;
pos = (380,190);
ref = pixel;
},
{
alignment = -1;
pos = (380,152);
ref = pixel;
},
{
alignment = -1;
pos = (418,114);
ref = pixel;
},
{
alignment = -1;
pos = (456,76);
ref = pixel;
},
{
alignment = -1;
pos = (190,304);
ref = pixel;
},
{
alignment = -1;
pos = (152,342);
ref = pixel;
},
{
alignment = -1;
pos = (152,266);
ref = pixel;
}
);
width = 608;
}
);
metricLeft = H;
metricRight = O;
unicode = 75;
}
{
glyphname = M;
kernLeft = b;
kernRight = d;
layers = (
{
anchors = (
{
name = bottom;
pos = (380,0);
},
{
name = top;
pos = (380,722);
}
);
background = {
shapes = (
{
closed = 1;
nodes = (
(100,0,l),
(100,550,l),
(303,0,l),
(418,0,l),
(621,550,l),
(621,0,l),
(707,0,l),
(707,710,l),
(587,710,l),
(361,94,l),
(134,710,l),
(14,710,l),
(14,0,l)
);
}
);
};
layerId = m01;
shapes = (
{
alignment = -1;
pos = (76,0);
ref = pixel;
},
{
alignment = -1;
pos = (114,0);
ref = pixel;
},
{
alignment = -1;
pos = (114,38);
ref = pixel;
},
{
alignment = -1;
pos = (114,76);
ref = pixel;
},
{
alignment = -1;
pos = (76,38);
ref = pixel;
},
{
alignment = -1;
pos = (76,76);
ref = pixel;
},
{
alignment = -1;
pos = (76,114);
ref = pixel;
},
{
alignment = -1;
pos = (76,152);
ref = pixel;
},
{
alignment = -1;
pos = (114,114);
ref = pixel;
},
{
alignment = -1;
pos = (114,152);
ref = pixel;
},
{
alignment = -1;
pos = (114,190);
ref = pixel;
},
{
alignment = -1;
pos = (76,190);
ref = pixel;
},
{
alignment = -1;
pos = (76,228);
ref = pixel;
},
{
alignment = -1;
pos = (114,266);
ref = pixel;
},
{
alignment = -1;
pos = (114,304);
ref = pixel;
},
{
alignment = -1;
pos = (114,228);
ref = pixel;
},
{
alignment = -1;
pos = (76,266);
ref = pixel;
},
{
alignment = -1;
pos = (76,304);
ref = pixel;
},
{
alignment = -1;
pos = (76,342);
ref = pixel;
},
{
alignment = -1;
pos = (76,380);
ref = pixel;
},
{
alignment = -1;
pos = (76,418);
ref = pixel;
},
{
alignment = -1;
pos = (76,456);
ref = pixel;
},
{
alignment = -1;
pos = (76,494);
ref = pixel;
},
{
alignment = -1;
pos = (76,532);
ref = pixel;
},
{
alignment = -1;
pos = (76,570);
ref = pixel;
},
{
alignment = -1;
pos = (76,608);
ref = pixel;
},
{
alignment = -1;
pos = (76,646);
ref = pixel;
},
{
alignment = -1;
pos = (76,684);
ref = pixel;
},
{
alignment = -1;
pos = (114,684);
ref = pixel;
},
{
alignment = -1;
pos = (114,646);
ref = pixel;
},
{
alignment = -1;
pos = (114,608);
ref = pixel;
},
{
alignment = -1;
pos = (114,532);
ref = pixel;
},
{
alignment = -1;
pos = (114,494);
ref = pixel;
},
{
alignment = -1;
pos = (114,456);
ref = pixel;
},
{
alignment = -1;
pos = (114,418);
ref = pixel;
},
{
alignment = -1;
pos = (114,380);
ref = pixel;
},
{
alignment = -1;
pos = (114,342);
ref = pixel;
},
{
alignment = -1;
pos = (266,304);
ref = pixel;
},
{
alignment = -1;
pos = (304,266);
ref = pixel;
},
{
alignment = -1;
pos = (304,228);
ref = pixel;
},
{
alignment = -1;
pos = (608,304);
ref = pixel;
},
{
alignment = -1;
pos = (608,342);
ref = pixel;
},
{
alignment = -1;
pos = (608,380);
ref = pixel;
},
{
alignment = -1;
pos = (608,418);
ref = pixel;
},
{
alignment = -1;
pos = (608,456);
ref = pixel;
},
{
alignment = -1;
pos = (608,494);
ref = pixel;
},
{
alignment = -1;
pos = (608,684);
ref = pixel;
},
{
alignment = -1;
pos = (608,646);
ref = pixel;
},
{
alignment = -1;
pos = (608,608);
ref = pixel;
},
{
alignment = -1;
pos = (608,570);
ref = pixel;
},
{
alignment = -1;
pos = (608,532);
ref = pixel;
},
{
alignment = -1;
pos = (266,266);
ref = pixel;
},
{
alignment = -1;
pos = (266,342);
ref = pixel;
},
{
alignment = -1;
pos = (114,570);
ref = pixel;
},
{
alignment = -1;
pos = (646,684);
ref = pixel;
},
{
alignment = -1;
pos = (646,646);
ref = pixel;
},
{
alignment = -1;
pos = (646,608);
ref = pixel;
},
{
alignment = -1;
pos = (646,570);
ref = pixel;
},
{
alignment = -1;
pos = (646,532);
ref = pixel;
},
{
alignment = -1;
pos = (646,494);
ref = pixel;
},
{
alignment = -1;
pos = (646,456);
ref = pixel;
},
{
alignment = -1;
pos = (646,418);
ref = pixel;
},
{
alignment = -1;
pos = (646,380);
ref = pixel;
},
{
alignment = -1;
pos = (646,342);
ref = pixel;
},
{
alignment = -1;
pos = (646,304);
ref = pixel;
},
{
alignment = -1;
pos = (608,266);
ref = pixel;
},
{
alignment = -1;
pos = (608,228);
ref = pixel;
},
{
alignment = -1;
pos = (608,190);
ref = pixel;
},
{
alignment = -1;
pos = (608,152);
ref = pixel;
},
{
alignment = -1;
pos = (608,114);
ref = pixel;
},
{
alignment = -1;
pos = (608,76);
ref = pixel;
},
{
alignment = -1;
pos = (608,38);
ref = pixel;
},
{
alignment = -1;
pos = (608,0);
ref = pixel;
},
{
alignment = -1;
pos = (342,152);
ref = pixel;
},
{
alignment = -1;
pos = (342,114);
ref = pixel;
},
{
alignment = -1;
pos = (304,114);
ref = pixel;
},
{
alignment = -1;
pos = (304,152);
ref = pixel;
},
{
alignment = -1;
pos = (266,228);
ref = pixel;
},
{
alignment = -1;
pos = (304,190);
ref = pixel;
},
{
alignment = -1;
pos = (228,418);
ref = pixel;
},
{
alignment = -1;
pos = (228,456);
ref = pixel;
},
{
alignment = -1;
pos = (228,494);
ref = pixel;
},
{
alignment = -1;
pos = (266,190);
ref = pixel;
},
{
alignment = -1;
pos = (152,608);
ref = pixel;
},
{
alignment = -1;
pos = (152,570);
ref = pixel;
},
{
alignment = -1;
pos = (152,532);
ref = pixel;
},
{
alignment = -1;
pos = (190,494);
ref = pixel;
},
{
alignment = -1;
pos = (190,456);
ref = pixel;
},
{
alignment = -1;
pos = (190,418);
ref = pixel;
},
{
alignment = -1;
pos = (266,380);
ref = pixel;
},
{
alignment = -1;
pos = (228,380);
ref = pixel;
},
{
alignment = -1;
pos = (228,342);
ref = pixel;
},
{
alignment = -1;
pos = (228,304);
ref = pixel;
},
{
alignment = -1;
pos = (418,152);
ref = pixel;
},
{
alignment = -1;
pos = (418,114);
ref = pixel;
},
{
alignment = -1;
pos = (418,190);
ref = pixel;
},
{
alignment = -1;
pos = (456,190);
ref = pixel;
},
{
alignment = -1;
pos = (418,228);
ref = pixel;
},
{
alignment = -1;
pos = (418,266);
ref = pixel;
},
{
alignment = -1;
pos = (456,266);
ref = pixel;
},
{
alignment = -1;
pos = (456,228);
ref = pixel;
},
{
alignment = -1;
pos = (456,304);
ref = pixel;
},
{
alignment = -1;
pos = (456,342);
ref = pixel;
},
{
alignment = -1;
pos = (456,380);
ref = pixel;
},
{
alignment = -1;
pos = (494,380);
ref = pixel;
},
{
alignment = -1;
pos = (494,342);
ref = pixel;
},
{
alignment = -1;
pos = (494,304);
ref = pixel;
},
{
alignment = -1;
pos = (494,418);
ref = pixel;
},
{
alignment = -1;
pos = (494,456);
ref = pixel;
},
{
alignment = -1;
pos = (532,456);
ref = pixel;
},
{
alignment = -1;
pos = (532,494);
ref = pixel;
},
{
alignment = -1;
pos = (494,494);
ref = pixel;
},
{
alignment = -1;
pos = (532,418);
ref = pixel;
},
{
alignment = -1;
pos = (570,532);
ref = pixel;
},
{
alignment = -1;
pos = (570,570);
ref = pixel;
},
{
alignment = -1;
pos = (570,608);
ref = pixel;
},
{
alignment = -1;
pos = (646,266);
ref = pixel;
},
{
alignment = -1;
pos = (646,228);
ref = pixel;
},
{
alignment = -1;
pos = (646,190);
ref = pixel;
},
{
alignment = -1;
pos = (646,152);
ref = pixel;
},
{
alignment = -1;
pos = (646,114);
ref = pixel;
},
{
alignment = -1;
pos = (646,76);
ref = pixel;
},
{
alignment = -1;
pos = (646,38);
ref = pixel;
},
{
alignment = -1;
pos = (646,0);
ref = pixel;
},
{
alignment = -1;
pos = (380,152);
ref = pixel;
},
{
alignment = -1;
pos = (380,114);
ref = pixel;
},
{
alignment = -1;
pos = (380,76);
ref = pixel;
},
{
alignment = -1;
pos = (380,38);
ref = pixel;
},
{
alignment = -1;
pos = (342,76);
ref = pixel;
},
{
alignment = -1;
pos = (342,38);
ref = pixel;
}
);
width = 760;
}
);
metricLeft = H;
metricRight = H;
unicode = 77;
}
{
glyphname = N;
kernLeft = b;
kernRight = d;
layers = (
{
anchors = (
{
name = bottom;
pos = (304,0);
},
{
name = top;
pos = (342,722);
}
);
background = {
shapes = (
{
closed = 1;
nodes = (
(165,0,l),
(165,653,l),
(149,649,l),
(444,0,l),
(579,0,l),
(579,710,l),
(484,710,l),
(484,58,l),
(501,61,l),
(206,710,l),
(71,710,l),
(71,0,l)
);
}
);
};
layerId = m01;
shapes = (
{
alignment = -1;
pos = (76,0);
ref = pixel;
},
{
alignment = -1;
pos = (114,0);
ref = pixel;
},
{
alignment = -1;
pos = (114,38);
ref = pixel;
},
{
alignment = -1;
pos = (76,38);
ref = pixel;
},
{
alignment = -1;
pos = (76,76);
ref = pixel;
},
{
alignment = -1;
pos = (114,76);
ref = pixel;
},
{
alignment = -1;
pos = (114,114);
ref = pixel;
},
{
alignment = -1;
pos = (76,114);
ref = pixel;
},
{
alignment = -1;
pos = (76,152);
ref = pixel;
},
{
alignment = -1;
pos = (114,152);
ref = pixel;
},
{
alignment = -1;
pos = (114,190);
ref = pixel;
},
{
alignment = -1;
pos = (114,228);
ref = pixel;
},
{
alignment = -1;
pos = (76,228);
ref = pixel;
},
{
alignment = -1;
pos = (76,190);
ref = pixel;
},
{
alignment = -1;
pos = (76,266);
ref = pixel;
},
{
alignment = -1;
pos = (76,304);
ref = pixel;
},
{
alignment = -1;
pos = (76,342);
ref = pixel;
},
{
alignment = -1;
pos = (76,380);
ref = pixel;
},
{
alignment = -1;
pos = (76,418);
ref = pixel;
},
{
alignment = -1;
pos = (76,456);
ref = pixel;
},
{
alignment = -1;
pos = (76,494);
ref = pixel;
},
{
alignment = -1;
pos = (76,532);
ref = pixel;
},
{
alignment = -1;
pos = (76,570);
ref = pixel;
},
{
alignment = -1;
pos = (76,608);
ref = pixel;
},
{
alignment = -1;
pos = (76,646);
ref = pixel;
},
{
alignment = -1;
pos = (76,684);
ref = pixel;
},
{
alignment = -1;
pos = (114,684);
ref = pixel;
},
{
alignment = -1;
pos = (114,646);
ref = pixel;
},
{
alignment = -1;
pos = (114,608);
ref = pixel;
},
{
alignment = -1;
pos = (114,570);
ref = pixel;
},
{
alignment = -1;
pos = (114,532);
ref = pixel;
},
{
alignment = -1;
pos = (114,494);
ref = pixel;
},
{
alignment = -1;
pos = (114,456);
ref = pixel;
},
{
alignment = -1;
pos = (114,418);
ref = pixel;
},
{
alignment = -1;
pos = (114,380);
ref = pixel;
},
{
alignment = -1;
pos = (114,342);
ref = pixel;
},
{
alignment = -1;
pos = (114,304);
ref = pixel;
},
{
alignment = -1;
pos = (114,266);
ref = pixel;
},
{
alignment = -1;
pos = (494,684);
ref = pixel;
},
{
alignment = -1;
pos = (494,646);
ref = pixel;
},
{
alignment = -1;
pos = (494,608);
ref = pixel;
},
{
alignment = -1;
pos = (494,570);
ref = pixel;
},
{
alignment = -1;
pos = (494,532);
ref = pixel;
},
{
alignment = -1;
pos = (494,494);
ref = pixel;
},
{
alignment = -1;
pos = (494,456);
ref = pixel;
},
{
alignment = -1;
pos = (494,418);
ref = pixel;
},
{
alignment = -1;
pos = (494,380);
ref = pixel;
},
{
alignment = -1;
pos = (266,456);
ref = pixel;
},
{
alignment = -1;
pos = (342,342);
ref = pixel;
},
{
alignment = -1;
pos = (494,342);
ref = pixel;
},
{
alignment = -1;
pos = (494,304);
ref = pixel;
},
{
alignment = -1;
pos = (494,266);
ref = pixel;
},
{
alignment = -1;
pos = (494,228);
ref = pixel;
},
{
alignment = -1;
pos = (494,190);
ref = pixel;
},
{
alignment = -1;
pos = (494,152);
ref = pixel;
},
{
alignment = -1;
pos = (494,114);
ref = pixel;
},
{
alignment = -1;
pos = (494,0);
ref = pixel;
},
{
alignment = -1;
pos = (228,570);
ref = pixel;
},
{
alignment = -1;
pos = (266,494);
ref = pixel;
},
{
alignment = -1;
pos = (228,532);
ref = pixel;
},
{
alignment = -1;
pos = (304,342);
ref = pixel;
},
{
alignment = -1;
pos = (304,304);
ref = pixel;
},
{
alignment = -1;
pos = (342,304);
ref = pixel;
},
{
alignment = -1;
pos = (380,228);
ref = pixel;
},
{
alignment = -1;
pos = (380,190);
ref = pixel;
},
{
alignment = -1;
pos = (342,266);
ref = pixel;
},
{
alignment = -1;
pos = (342,228);
ref = pixel;
},
{
alignment = -1;
pos = (152,684);
ref = pixel;
},
{
alignment = -1;
pos = (152,646);
ref = pixel;
},
{
alignment = -1;
pos = (380,266);
ref = pixel;
},
{
alignment = -1;
pos = (152,608);
ref = pixel;
},
{
alignment = -1;
pos = (190,570);
ref = pixel;
},
{
alignment = -1;
pos = (190,532);
ref = pixel;
},
{
alignment = -1;
pos = (228,494);
ref = pixel;
},
{
alignment = -1;
pos = (228,456);
ref = pixel;
},
{
alignment = -1;
pos = (304,418);
ref = pixel;
},
{
alignment = -1;
pos = (304,380);
ref = pixel;
},
{
alignment = -1;
pos = (266,380);
ref = pixel;
},
{
alignment = -1;
pos = (266,418);
ref = pixel;
},
{
alignment = -1;
pos = (456,114);
ref = pixel;
},
{
alignment = -1;
pos = (494,76);
ref = pixel;
},
{
alignment = -1;
pos = (494,38);
ref = pixel;
},
{
alignment = -1;
pos = (418,152);
ref = pixel;
},
{
alignment = -1;
pos = (418,190);
ref = pixel;
},
{
alignment = -1;
pos = (380,152);
ref = pixel;
},
{
alignment = -1;
pos = (532,684);
ref = pixel;
},
{
alignment = -1;
pos = (532,646);
ref = pixel;
},
{
alignment = -1;
pos = (532,608);
ref = pixel;
},
{
alignment = -1;
pos = (532,570);
ref = pixel;
},
{
alignment = -1;
pos = (532,532);
ref = pixel;
},
{
alignment = -1;
pos = (532,494);
ref = pixel;
},
{
alignment = -1;
pos = (532,456);
ref = pixel;
},
{
alignment = -1;
pos = (532,418);
ref = pixel;
},
{
alignment = -1;
pos = (532,380);
ref = pixel;
},
{
alignment = -1;
pos = (532,342);
ref = pixel;
},
{
alignment = -1;
pos = (532,304);
ref = pixel;
},
{
alignment = -1;
pos = (532,266);
ref = pixel;
},
{
alignment = -1;
pos = (532,228);
ref = pixel;
},
{
alignment = -1;
pos = (532,190);
ref = pixel;
},
{
alignment = -1;
pos = (532,152);
ref = pixel;
},
{
alignment = -1;
pos = (532,114);
ref = pixel;
},
{
alignment = -1;
pos = (532,76);
ref = pixel;
},
{
alignment = -1;
pos = (532,38);
ref = pixel;
},
{
alignment = -1;
pos = (532,0);
ref = pixel;
},
{
alignment = -1;
pos = (456,76);
ref = pixel;
},
{
alignment = -1;
pos = (190,608);
ref = pixel;
},
{
alignment = -1;
pos = (190,646);
ref = pixel;
}
);
width = 646;
},
{
associatedMasterId = m01;
background = {
shapes = (
{
closed = 1;
nodes = (
(165,0,l),
(165,653,l),
(149,649,l),
(444,0,l),
(579,0,l),
(579,710,l),
(484,710,l),
(484,58,l),
(501,61,l),
(206,710,l),
(71,710,l),
(71,0,l)
);
}
);
};
layerId = "38BB7F83-971C-40E0-89D2-814094273435";
name = "26 Nov 25 at 11:12";
shapes = (
{
alignment = -1;
pos = (76,0);
ref = pixel;
},
{
alignment = -1;
pos = (114,0);
ref = pixel;
},
{
alignment = -1;
pos = (114,38);
ref = pixel;
},
{
alignment = -1;
pos = (76,38);
ref = pixel;
},
{
alignment = -1;
pos = (76,76);
ref = pixel;
},
{
alignment = -1;
pos = (114,76);
ref = pixel;
},
{
alignment = -1;
pos = (114,114);
ref = pixel;
},
{
alignment = -1;
pos = (76,114);
ref = pixel;
},
{
alignment = -1;
pos = (76,152);
ref = pixel;
},
{
alignment = -1;
pos = (114,152);
ref = pixel;
},
{
alignment = -1;
pos = (114,190);
ref = pixel;
},
{
alignment = -1;
pos = (114,228);
ref = pixel;
},
{
alignment = -1;
pos = (76,228);
ref = pixel;
},
{
alignment = -1;
pos = (76,190);
ref = pixel;
},
{
alignment = -1;
pos = (76,266);
ref = pixel;
},
{
alignment = -1;
pos = (76,304);
ref = pixel;
},
{
alignment = -1;
pos = (76,342);
ref = pixel;
},
{
alignment = -1;
pos = (76,380);
ref = pixel;
},
{
alignment = -1;
pos = (76,418);
ref = pixel;
},
{
alignment = -1;
pos = (76,456);
ref = pixel;
},
{
alignment = -1;
pos = (76,494);
ref = pixel;
},
{
alignment = -1;
pos = (76,532);
ref = pixel;
},
{
alignment = -1;
pos = (76,570);
ref = pixel;
},
{
alignment = -1;
pos = (76,608);
ref = pixel;
},
{
alignment = -1;
pos = (76,646);
ref = pixel;
},
{
alignment = -1;
pos = (76,684);
ref = pixel;
},
{
alignment = -1;
pos = (114,684);
ref = pixel;
},
{
alignment = -1;
pos = (114,646);
ref = pixel;
},
{
alignment = -1;
pos = (114,608);
ref = pixel;
},
{
alignment = -1;
pos = (114,570);
ref = pixel;
},
{
alignment = -1;
pos = (114,532);
ref = pixel;
},
{
alignment = -1;
pos = (114,494);
ref = pixel;
},
{
alignment = -1;
pos = (114,456);
ref = pixel;
},
{
alignment = -1;
pos = (114,418);
ref = pixel;
},
{
alignment = -1;
pos = (114,380);
ref = pixel;
},
{
alignment = -1;
pos = (114,342);
ref = pixel;
},
{
alignment = -1;
pos = (114,304);
ref = pixel;
},
{
alignment = -1;
pos = (114,266);
ref = pixel;
},
{
alignment = -1;
pos = (494,684);
ref = pixel;
},
{
alignment = -1;
pos = (494,646);
ref = pixel;
},
{
alignment = -1;
pos = (494,608);
ref = pixel;
},
{
alignment = -1;
pos = (494,570);
ref = pixel;
},
{
alignment = -1;
pos = (494,532);
ref = pixel;
},
{
alignment = -1;
pos = (494,494);
ref = pixel;
},
{
alignment = -1;
pos = (494,456);
ref = pixel;
},
{
alignment = -1;
pos = (494,418);
ref = pixel;
},
{
alignment = -1;
pos = (494,380);
ref = pixel;
},
{
alignment = -1;
pos = (266,456);
ref = pixel;
},
{
alignment = -1;
pos = (342,342);
ref = pixel;
},
{
alignment = -1;
pos = (494,342);
ref = pixel;
},
{
alignment = -1;
pos = (494,304);
ref = pixel;
},
{
alignment = -1;
pos = (494,266);
ref = pixel;
},
{
alignment = -1;
pos = (494,228);
ref = pixel;
},
{
alignment = -1;
pos = (494,190);
ref = pixel;
},
{
alignment = -1;
pos = (494,152);
ref = pixel;
},
{
alignment = -1;
pos = (494,114);
ref = pixel;
},
{
alignment = -1;
pos = (494,0);
ref = pixel;
},
{
alignment = -1;
pos = (228,570);
ref = pixel;
},
{
alignment = -1;
pos = (266,494);
ref = pixel;
},
{
alignment = -1;
pos = (228,532);
ref = pixel;
},
{
alignment = -1;
pos = (304,342);
ref = pixel;
},
{
alignment = -1;
pos = (304,304);
ref = pixel;
},
{
alignment = -1;
pos = (342,304);
ref = pixel;
},
{
alignment = -1;
pos = (380,228);
ref = pixel;
},
{
alignment = -1;
pos = (380,190);
ref = pixel;
},
{
alignment = -1;
pos = (342,266);
ref = pixel;
},
{
alignment = -1;
pos = (342,228);
ref = pixel;
},
{
alignment = -1;
pos = (228,608);
ref = pixel;
},
{
alignment = -1;
pos = (152,684);
ref = pixel;
},
{
alignment = -1;
pos = (152,646);
ref = pixel;
},
{
alignment = -1;
pos = (380,266);
ref = pixel;
},
{
alignment = -1;
pos = (152,608);
ref = pixel;
},
{
alignment = -1;
pos = (190,608);
ref = pixel;
},
{
alignment = -1;
pos = (190,570);
ref = pixel;
},
{
alignment = -1;
pos = (190,532);
ref = pixel;
},
{
alignment = -1;
pos = (228,494);
ref = pixel;
},
{
alignment = -1;
pos = (228,456);
ref = pixel;
},
{
alignment = -1;
pos = (304,418);
ref = pixel;
},
{
alignment = -1;
pos = (304,380);
ref = pixel;
},
{
alignment = -1;
pos = (266,380);
ref = pixel;
},
{
alignment = -1;
pos = (266,418);
ref = pixel;
},
{
alignment = -1;
pos = (456,684);
ref = pixel;
},
{
alignment = -1;
pos = (456,646);
ref = pixel;
},
{
alignment = -1;
pos = (456,608);
ref = pixel;
},
{
alignment = -1;
pos = (456,570);
ref = pixel;
},
{
alignment = -1;
pos = (456,532);
ref = pixel;
},
{
alignment = -1;
pos = (456,494);
ref = pixel;
},
{
alignment = -1;
pos = (456,456);
ref = pixel;
},
{
alignment = -1;
pos = (456,418);
ref = pixel;
},
{
alignment = -1;
pos = (456,380);
ref = pixel;
},
{
alignment = -1;
pos = (456,342);
ref = pixel;
},
{
alignment = -1;
pos = (456,304);
ref = pixel;
},
{
alignment = -1;
pos = (456,266);
ref = pixel;
},
{
alignment = -1;
pos = (456,228);
ref = pixel;
},
{
alignment = -1;
pos = (456,190);
ref = pixel;
},
{
alignment = -1;
pos = (456,152);
ref = pixel;
},
{
alignment = -1;
pos = (456,114);
ref = pixel;
},
{
alignment = -1;
pos = (456,76);
ref = pixel;
},
{
alignment = -1;
pos = (456,38);
ref = pixel;
},
{
alignment = -1;
pos = (456,0);
ref = pixel;
},
{
alignment = -1;
pos = (494,76);
ref = pixel;
},
{
alignment = -1;
pos = (494,38);
ref = pixel;
},
{
alignment = -1;
pos = (418,152);
ref = pixel;
},
{
alignment = -1;
pos = (418,114);
ref = pixel;
},
{
alignment = -1;
pos = (418,190);
ref = pixel;
},
{
alignment = -1;
pos = (380,152);
ref = pixel;
}
);
width = 646;
}
);
unicode = 78;
}
{
color = 7;
glyphname = O;
kernLeft = O;
kernRight = O;
layers = (
{
anchors = (
{
name = bottom;
pos = (342,0);
},
{
name = center;
pos = (342,361);
},
{
name = ogonek;
pos = (616,10);
},
{
name = top;
pos = (342,722);
},
{
name = topleft;
pos = (20,722);
},
{
name = topright;
pos = (664,722);
}
);
layerId = m01;
shapes = (
{
alignment = -1;
pos = (190,646);
ref = pixel;
},
{
alignment = -1;
pos = (228,646);
ref = pixel;
},
{
alignment = -1;
pos = (266,646);
ref = pixel;
},
{
alignment = -1;
pos = (228,684);
ref = pixel;
},
{
alignment = -1;
pos = (190,608);
ref = pixel;
},
{
alignment = -1;
pos = (152,608);
ref = pixel;
},
{
alignment = -1;
pos = (152,570);
ref = pixel;
},
{
alignment = -1;
pos = (114,570);
ref = pixel;
},
{
alignment = -1;
pos = (114,532);
ref = pixel;
},
{
alignment = -1;
pos = (76,532);
ref = pixel;
},
{
alignment = -1;
pos = (114,494);
ref = pixel;
},
{
alignment = -1;
pos = (76,494);
ref = pixel;
},
{
alignment = -1;
pos = (76,456);
ref = pixel;
},
{
alignment = -1;
pos = (76,418);
ref = pixel;
},
{
alignment = -1;
pos = (76,380);
ref = pixel;
},
{
alignment = -1;
pos = (76,342);
ref = pixel;
},
{
alignment = -1;
pos = (76,304);
ref = pixel;
},
{
alignment = -1;
pos = (76,266);
ref = pixel;
},
{
alignment = -1;
pos = (76,228);
ref = pixel;
},
{
alignment = -1;
pos = (76,190);
ref = pixel;
},
{
alignment = -1;
pos = (76,152);
ref = pixel;
},
{
alignment = -1;
pos = (114,190);
ref = pixel;
},
{
alignment = -1;
pos = (114,152);
ref = pixel;
},
{
alignment = -1;
pos = (152,646);
ref = pixel;
},
{
alignment = -1;
pos = (114,608);
ref = pixel;
},
{
alignment = -1;
pos = (266,684);
ref = pixel;
},
{
alignment = -1;
pos = (114,114);
ref = pixel;
},
{
alignment = -1;
pos = (152,114);
ref = pixel;
},
{
alignment = -1;
pos = (152,76);
ref = pixel;
},
{
alignment = -1;
pos = (114,76);
ref = pixel;
},
{
alignment = -1;
pos = (152,38);
ref = pixel;
},
{
alignment = -1;
pos = (190,38);
ref = pixel;
},
{
alignment = -1;
pos = (190,76);
ref = pixel;
},
{
alignment = -1;
pos = (228,38);
ref = pixel;
},
{
alignment = -1;
pos = (228,0);
ref = pixel;
},
{
alignment = -1;
pos = (266,0);
ref = pixel;
},
{
alignment = -1;
pos = (266,38);
ref = pixel;
},
{
alignment = -1;
pos = (494,646);
ref = pixel;
},
{
alignment = -1;
pos = (456,646);
ref = pixel;
},
{
alignment = -1;
pos = (380,646);
ref = pixel;
},
{
alignment = -1;
pos = (342,684);
ref = pixel;
},
{
alignment = -1;
pos = (456,608);
ref = pixel;
},
{
alignment = -1;
pos = (494,608);
ref = pixel;
},
{
alignment = -1;
pos = (494,570);
ref = pixel;
},
{
alignment = -1;
pos = (532,570);
ref = pixel;
},
{
alignment = -1;
pos = (532,532);
ref = pixel;
},
{
alignment = -1;
pos = (570,532);
ref = pixel;
},
{
alignment = -1;
pos = (532,494);
ref = pixel;
},
{
alignment = -1;
pos = (570,494);
ref = pixel;
},
{
alignment = -1;
pos = (570,456);
ref = pixel;
},
{
alignment = -1;
pos = (570,418);
ref = pixel;
},
{
alignment = -1;
pos = (570,380);
ref = pixel;
},
{
alignment = -1;
pos = (570,342);
ref = pixel;
},
{
alignment = -1;
pos = (570,304);
ref = pixel;
},
{
alignment = -1;
pos = (570,266);
ref = pixel;
},
{
alignment = -1;
pos = (570,228);
ref = pixel;
},
{
alignment = -1;
pos = (570,190);
ref = pixel;
},
{
alignment = -1;
pos = (570,152);
ref = pixel;
},
{
alignment = -1;
pos = (532,190);
ref = pixel;
},
{
alignment = -1;
pos = (532,152);
ref = pixel;
},
{
alignment = -1;
pos = (342,646);
ref = pixel;
},
{
alignment = -1;
pos = (532,608);
ref = pixel;
},
{
alignment = -1;
pos = (380,684);
ref = pixel;
},
{
alignment = -1;
pos = (532,114);
ref = pixel;
},
{
alignment = -1;
pos = (494,114);
ref = pixel;
},
{
alignment = -1;
pos = (494,76);
ref = pixel;
},
{
alignment = -1;
pos = (532,76);
ref = pixel;
},
{
alignment = -1;
pos = (494,38);
ref = pixel;
},
{
alignment = -1;
pos = (342,38);
ref = pixel;
},
{
alignment = -1;
pos = (456,76);
ref = pixel;
},
{
alignment = -1;
pos = (456,38);
ref = pixel;
},
{
alignment = -1;
pos = (342,0);
ref = pixel;
},
{
alignment = -1;
pos = (380,0);
ref = pixel;
},
{
alignment = -1;
pos = (380,38);
ref = pixel;
},
{
alignment = -1;
pos = (304,646);
ref = pixel;
},
{
alignment = -1;
pos = (304,684);
ref = pixel;
},
{
alignment = -1;
pos = (304,38);
ref = pixel;
},
{
alignment = -1;
pos = (304,0);
ref = pixel;
},
{
alignment = -1;
pos = (38,456);
ref = pixel;
},
{
alignment = -1;
pos = (38,418);
ref = pixel;
},
{
alignment = -1;
pos = (38,380);
ref = pixel;
},
{
alignment = -1;
pos = (38,342);
ref = pixel;
},
{
alignment = -1;
pos = (38,304);
ref = pixel;
},
{
alignment = -1;
pos = (38,266);
ref = pixel;
},
{
alignment = -1;
pos = (38,228);
ref = pixel;
},
{
alignment = -1;
pos = (608,228);
ref = pixel;
},
{
alignment = -1;
pos = (608,266);
ref = pixel;
},
{
alignment = -1;
pos = (608,304);
ref = pixel;
},
{
alignment = -1;
pos = (608,342);
ref = pixel;
},
{
alignment = -1;
pos = (608,380);
ref = pixel;
},
{
alignment = -1;
pos = (608,418);
ref = pixel;
},
{
alignment = -1;
pos = (608,456);
ref = pixel;
},
{
alignment = -1;
pos = (418,646);
ref = pixel;
},
{
alignment = -1;
pos = (418,38);
ref = pixel;
},
{
alignment = -1;
pos = (418,0);
ref = pixel;
},
{
alignment = -1;
pos = (418,684);
ref = pixel;
}
);
width = 684;
},
{
associatedMasterId = m01;
background = {
shapes = (
{
closed = 1;
nodes = (
(536,-16,o),
(630,117,o),
(630,354,cs),
(630,593,o),
(536,726,o),
(368,726,cs),
(200,726,o),
(106,593,o),
(106,354,cs),
(106,117,o),
(200,-16,o),
(368,-16,cs)
);
},
{
closed = 1;
nodes = (
(258,68,o),
(196,168,o),
(196,354,cs),
(196,540,o),
(258,642,o),
(368,642,cs),
(478,642,o),
(540,540,o),
(540,354,cs),
(540,168,o),
(478,68,o),
(368,68,cs)
);
},
{
closed = 1;
nodes = (
(571,-16,o),
(693,124,o),
(693,354,cs),
(693,584,o),
(571,726,o),
(368,726,cs),
(166,726,o),
(44,584,o),
(44,354,cs),
(44,124,o),
(166,-16,o),
(368,-16,cs)
);
},
{
closed = 1;
nodes = (
(222,68,o),
(134,174,o),
(134,354,cs),
(134,534,o),
(222,642,o),
(368,642,cs),
(515,642,o),
(603,534,o),
(603,354,cs),
(603,174,o),
(515,68,o),
(368,68,cs)
);
}
);
};
layerId = "0739DE56-ACD3-4386-B476-7F2C31DF826E";
name = "25 Nov 25 at 17:40";
shapes = (
{
alignment = -1;
pos = (228,646);
ref = pixel;
},
{
alignment = -1;
pos = (266,646);
ref = pixel;
},
{
alignment = -1;
pos = (304,646);
ref = pixel;
},
{
alignment = -1;
pos = (266,684);
ref = pixel;
},
{
alignment = -1;
pos = (228,608);
ref = pixel;
},
{
alignment = -1;
pos = (190,608);
ref = pixel;
},
{
alignment = -1;
pos = (190,570);
ref = pixel;
},
{
alignment = -1;
pos = (152,570);
ref = pixel;
},
{
alignment = -1;
pos = (152,532);
ref = pixel;
},
{
alignment = -1;
pos = (114,532);
ref = pixel;
},
{
alignment = -1;
pos = (152,494);
ref = pixel;
},
{
alignment = -1;
pos = (114,494);
ref = pixel;
},
{
alignment = -1;
pos = (114,456);
ref = pixel;
},
{
alignment = -1;
pos = (114,418);
ref = pixel;
},
{
alignment = -1;
pos = (114,380);
ref = pixel;
},
{
alignment = -1;
pos = (114,342);
ref = pixel;
},
{
alignment = -1;
pos = (114,304);
ref = pixel;
},
{
alignment = -1;
pos = (114,266);
ref = pixel;
},
{
alignment = -1;
pos = (114,228);
ref = pixel;
},
{
alignment = -1;
pos = (114,190);
ref = pixel;
},
{
alignment = -1;
pos = (114,152);
ref = pixel;
},
{
alignment = -1;
pos = (152,190);
ref = pixel;
},
{
alignment = -1;
pos = (152,152);
ref = pixel;
},
{
alignment = -1;
pos = (190,646);
ref = pixel;
},
{
alignment = -1;
pos = (152,608);
ref = pixel;
},
{
alignment = -1;
pos = (304,684);
ref = pixel;
},
{
alignment = -1;
pos = (152,114);
ref = pixel;
},
{
alignment = -1;
pos = (190,114);
ref = pixel;
},
{
alignment = -1;
pos = (190,76);
ref = pixel;
},
{
alignment = -1;
pos = (152,76);
ref = pixel;
},
{
alignment = -1;
pos = (190,38);
ref = pixel;
},
{
alignment = -1;
pos = (228,38);
ref = pixel;
},
{
alignment = -1;
pos = (228,76);
ref = pixel;
},
{
alignment = -1;
pos = (266,38);
ref = pixel;
},
{
alignment = -1;
pos = (266,0);
ref = pixel;
},
{
alignment = -1;
pos = (304,0);
ref = pixel;
},
{
alignment = -1;
pos = (304,38);
ref = pixel;
},
{
alignment = -1;
pos = (494,646);
ref = pixel;
scale = (-1,1);
},
{
alignment = -1;
pos = (456,646);
ref = pixel;
scale = (-1,1);
},
{
alignment = -1;
pos = (418,646);
ref = pixel;
scale = (-1,1);
},
{
alignment = -1;
pos = (456,684);
ref = pixel;
scale = (-1,1);
},
{
alignment = -1;
pos = (494,608);
ref = pixel;
scale = (-1,1);
},
{
alignment = -1;
pos = (532,608);
ref = pixel;
scale = (-1,1);
},
{
alignment = -1;
pos = (532,570);
ref = pixel;
scale = (-1,1);
},
{
alignment = -1;
pos = (570,570);
ref = pixel;
scale = (-1,1);
},
{
alignment = -1;
pos = (570,532);
ref = pixel;
scale = (-1,1);
},
{
alignment = -1;
pos = (608,532);
ref = pixel;
scale = (-1,1);
},
{
alignment = -1;
pos = (570,494);
ref = pixel;
scale = (-1,1);
},
{
alignment = -1;
pos = (608,494);
ref = pixel;
scale = (-1,1);
},
{
alignment = -1;
pos = (608,456);
ref = pixel;
scale = (-1,1);
},
{
alignment = -1;
pos = (608,418);
ref = pixel;
scale = (-1,1);
},
{
alignment = -1;
pos = (608,380);
ref = pixel;
scale = (-1,1);
},
{
alignment = -1;
pos = (608,342);
ref = pixel;
scale = (-1,1);
},
{
alignment = -1;
pos = (608,304);
ref = pixel;
scale = (-1,1);
},
{
alignment = -1;
pos = (608,266);
ref = pixel;
scale = (-1,1);
},
{
alignment = -1;
pos = (608,228);
ref = pixel;
scale = (-1,1);
},
{
alignment = -1;
pos = (608,190);
ref = pixel;
scale = (-1,1);
},
{
alignment = -1;
pos = (608,152);
ref = pixel;
scale = (-1,1);
},
{
alignment = -1;
pos = (570,190);
ref = pixel;
scale = (-1,1);
},
{
alignment = -1;
pos = (570,152);
ref = pixel;
scale = (-1,1);
},
{
alignment = -1;
pos = (532,646);
ref = pixel;
scale = (-1,1);
},
{
alignment = -1;
pos = (570,608);
ref = pixel;
scale = (-1,1);
},
{
alignment = -1;
pos = (418,684);
ref = pixel;
scale = (-1,1);
},
{
alignment = -1;
pos = (570,114);
ref = pixel;
scale = (-1,1);
},
{
alignment = -1;
pos = (532,114);
ref = pixel;
scale = (-1,1);
},
{
alignment = -1;
pos = (532,76);
ref = pixel;
scale = (-1,1);
},
{
alignment = -1;
pos = (570,76);
ref = pixel;
scale = (-1,1);
},
{
alignment = -1;
pos = (532,38);
ref = pixel;
scale = (-1,1);
},
{
alignment = -1;
pos = (494,38);
ref = pixel;
scale = (-1,1);
},
{
alignment = -1;
pos = (494,76);
ref = pixel;
scale = (-1,1);
},
{
alignment = -1;
pos = (456,38);
ref = pixel;
scale = (-1,1);
},
{
alignment = -1;
pos = (456,0);
ref = pixel;
scale = (-1,1);
},
{
alignment = -1;
pos = (418,0);
ref = pixel;
scale = (-1,1);
},
{
alignment = -1;
pos = (418,38);
ref = pixel;
scale = (-1,1);
},
{
alignment = -1;
pos = (342,646);
ref = pixel;
},
{
alignment = -1;
pos = (342,684);
ref = pixel;
},
{
alignment = -1;
pos = (342,38);
ref = pixel;
},
{
alignment = -1;
pos = (342,0);
ref = pixel;
},
{
alignment = -1;
pos = (76,456);
ref = pixel;
},
{
alignment = -1;
pos = (76,418);
ref = pixel;
},
{
alignment = -1;
pos = (76,380);
ref = pixel;
},
{
alignment = -1;
pos = (76,342);
ref = pixel;
},
{
alignment = -1;
pos = (76,304);
ref = pixel;
},
{
alignment = -1;
pos = (76,266);
ref = pixel;
},
{
alignment = -1;
pos = (76,228);
ref = pixel;
},
{
alignment = -1;
pos = (608,228);
ref = pixel;
},
{
alignment = -1;
pos = (608,266);
ref = pixel;
},
{
alignment = -1;
pos = (608,304);
ref = pixel;
},
{
alignment = -1;
pos = (608,342);
ref = pixel;
},
{
alignment = -1;
pos = (608,380);
ref = pixel;
},
{
alignment = -1;
pos = (608,418);
ref = pixel;
},
{
alignment = -1;
pos = (608,456);
ref = pixel;
}
);
width = 760;
}
);
unicode = 79;
}
{
glyphname = P;
kernLeft = b;
kernRight = P;
layers = (
{
anchors = (
{
name = bottom;
pos = (304,0);
},
{
name = top;
pos = (304,722);
}
);
background = {
shapes = (
{
closed = 1;
nodes = (
(156,0,l),
(156,276,l),
(325,276,ls),
(483,276,o),
(576,358,o),
(576,495,cs),
(576,630,o),
(483,710,o),
(325,710,cs),
(70,710,l),
(70,0,l)
);
},
{
closed = 1;
nodes = (
(156,626,l),
(325,626,ls),
(432,626,o),
(486,582,o),
(486,495,cs),
(486,406,o),
(432,360,o),
(325,360,cs),
(156,360,l)
);
}
);
};
layerId = m01;
shapes = (
{
alignment = -1;
pos = (76,684);
ref = pixel;
},
{
alignment = -1;
pos = (76,646);
ref = pixel;
},
{
alignment = -1;
pos = (76,608);
ref = pixel;
},
{
alignment = -1;
pos = (76,570);
ref = pixel;
},
{
alignment = -1;
pos = (76,532);
ref = pixel;
},
{
alignment = -1;
pos = (76,494);
ref = pixel;
},
{
alignment = -1;
pos = (76,456);
ref = pixel;
},
{
alignment = -1;
pos = (76,418);
ref = pixel;
},
{
alignment = -1;
pos = (76,380);
ref = pixel;
},
{
alignment = -1;
pos = (76,342);
ref = pixel;
},
{
alignment = -1;
pos = (76,304);
ref = pixel;
},
{
alignment = -1;
pos = (76,266);
ref = pixel;
},
{
alignment = -1;
pos = (76,228);
ref = pixel;
},
{
alignment = -1;
pos = (76,190);
ref = pixel;
},
{
alignment = -1;
pos = (76,152);
ref = pixel;
},
{
alignment = -1;
pos = (76,114);
ref = pixel;
},
{
alignment = -1;
pos = (76,76);
ref = pixel;
},
{
alignment = -1;
pos = (76,38);
ref = pixel;
},
{
alignment = -1;
pos = (76,0);
ref = pixel;
},
{
alignment = -1;
pos = (114,684);
ref = pixel;
},
{
alignment = -1;
pos = (114,646);
ref = pixel;
},
{
alignment = -1;
pos = (114,608);
ref = pixel;
},
{
alignment = -1;
pos = (114,570);
ref = pixel;
},
{
alignment = -1;
pos = (114,532);
ref = pixel;
},
{
alignment = -1;
pos = (114,494);
ref = pixel;
},
{
alignment = -1;
pos = (114,456);
ref = pixel;
},
{
alignment = -1;
pos = (114,418);
ref = pixel;
},
{
alignment = -1;
pos = (114,380);
ref = pixel;
},
{
alignment = -1;
pos = (114,342);
ref = pixel;
},
{
alignment = -1;
pos = (114,304);
ref = pixel;
},
{
alignment = -1;
pos = (114,266);
ref = pixel;
},
{
alignment = -1;
pos = (114,228);
ref = pixel;
},
{
alignment = -1;
pos = (114,190);
ref = pixel;
},
{
alignment = -1;
pos = (114,152);
ref = pixel;
},
{
alignment = -1;
pos = (114,114);
ref = pixel;
},
{
alignment = -1;
pos = (114,76);
ref = pixel;
},
{
alignment = -1;
pos = (114,38);
ref = pixel;
},
{
alignment = -1;
pos = (114,0);
ref = pixel;
},
{
alignment = -1;
pos = (152,684);
ref = pixel;
},
{
alignment = -1;
pos = (152,646);
ref = pixel;
},
{
alignment = -1;
pos = (190,646);
ref = pixel;
},
{
alignment = -1;
pos = (190,684);
ref = pixel;
},
{
alignment = -1;
pos = (228,646);
ref = pixel;
},
{
alignment = -1;
pos = (228,684);
ref = pixel;
},
{
alignment = -1;
pos = (266,684);
ref = pixel;
},
{
alignment = -1;
pos = (266,646);
ref = pixel;
},
{
alignment = -1;
pos = (152,342);
ref = pixel;
},
{
alignment = -1;
pos = (152,304);
ref = pixel;
},
{
alignment = -1;
pos = (190,304);
ref = pixel;
},
{
alignment = -1;
pos = (190,342);
ref = pixel;
},
{
alignment = -1;
pos = (228,342);
ref = pixel;
},
{
alignment = -1;
pos = (228,304);
ref = pixel;
},
{
alignment = -1;
pos = (266,304);
ref = pixel;
},
{
alignment = -1;
pos = (266,342);
ref = pixel;
},
{
alignment = -1;
pos = (304,342);
ref = pixel;
},
{
alignment = -1;
pos = (304,304);
ref = pixel;
},
{
alignment = -1;
pos = (304,684);
ref = pixel;
},
{
alignment = -1;
pos = (304,646);
ref = pixel;
},
{
alignment = -1;
pos = (342,646);
ref = pixel;
},
{
alignment = -1;
pos = (380,646);
ref = pixel;
},
{
alignment = -1;
pos = (418,646);
ref = pixel;
},
{
alignment = -1;
pos = (418,608);
ref = pixel;
},
{
alignment = -1;
pos = (342,342);
ref = pixel;
},
{
alignment = -1;
pos = (380,342);
ref = pixel;
},
{
alignment = -1;
pos = (418,380);
ref = pixel;
},
{
alignment = -1;
pos = (418,342);
ref = pixel;
},
{
alignment = -1;
pos = (456,646);
ref = pixel;
},
{
alignment = -1;
pos = (456,608);
ref = pixel;
},
{
alignment = -1;
pos = (456,380);
ref = pixel;
},
{
alignment = -1;
pos = (456,342);
ref = pixel;
},
{
alignment = -1;
pos = (532,532);
ref = pixel;
},
{
alignment = -1;
pos = (532,494);
ref = pixel;
},
{
alignment = -1;
pos = (532,456);
ref = pixel;
},
{
alignment = -1;
pos = (494,570);
ref = pixel;
},
{
alignment = -1;
pos = (456,570);
ref = pixel;
},
{
alignment = -1;
pos = (494,418);
ref = pixel;
},
{
alignment = -1;
pos = (456,418);
ref = pixel;
},
{
alignment = -1;
pos = (494,380);
ref = pixel;
},
{
alignment = -1;
pos = (494,608);
ref = pixel;
},
{
alignment = -1;
pos = (494,532);
ref = pixel;
},
{
alignment = -1;
pos = (494,494);
ref = pixel;
},
{
alignment = -1;
pos = (494,456);
ref = pixel;
},
{
alignment = -1;
pos = (342,684);
ref = pixel;
},
{
alignment = -1;
pos = (380,684);
ref = pixel;
},
{
alignment = -1;
pos = (342,304);
ref = pixel;
},
{
alignment = -1;
pos = (380,304);
ref = pixel;
}
);
width = 608;
}
);
metricLeft = H;
metricRight = O;
unicode = 80;
}
{
glyphname = R;
kernLeft = b;
kernRight = R;
layers = (
{
anchors = (
{
name = bottom;
pos = (304,0);
},
{
name = top;
pos = (304,722);
}
);
background = {
shapes = (
{
closed = 1;
nodes = (
(156,0,l),
(156,286,l),
(304,286,ls),
(396,286,o),
(425,259,o),
(431,193,cs),
(448,0,l),
(534,0,l),
(516,204,ls),
(508,294,o),
(463,330,o),
(368,336,c),
(372,324,l),
(448,329,o),
(528,398,o),
(528,498,cs),
(528,630,o),
(435,710,o),
(286,710,cs),
(70,710,l),
(70,0,l)
);
},
{
closed = 1;
nodes = (
(156,626,l),
(286,626,ls),
(384,626,o),
(438,580,o),
(438,498,cs),
(438,416,o),
(384,370,o),
(286,370,cs),
(156,370,l)
);
},
{
closed = 1;
nodes = (
(156,0,l),
(156,286,l),
(362,286,ls),
(444,286,o),
(478,259,o),
(483,200,cs),
(501,0,l),
(588,0,l),
(568,209,ls),
(560,297,o),
(508,335,o),
(422,335,c),
(428,326,l),
(503,330,o),
(581,399,o),
(581,495,cs),
(581,627,o),
(488,710,o),
(339,710,cs),
(70,710,l),
(70,0,l)
);
},
{
closed = 1;
nodes = (
(156,626,l),
(339,626,ls),
(437,626,o),
(491,579,o),
(491,497,cs),
(491,415,o),
(436,370,o),
(350,370,cs),
(156,370,l)
);
}
);
};
layerId = m01;
shapes = (
{
alignment = -1;
pos = (76,684);
ref = pixel;
},
{
alignment = -1;
pos = (76,646);
ref = pixel;
},
{
alignment = -1;
pos = (76,608);
ref = pixel;
},
{
alignment = -1;
pos = (76,570);
ref = pixel;
},
{
alignment = -1;
pos = (76,532);
ref = pixel;
},
{
alignment = -1;
pos = (76,494);
ref = pixel;
},
{
alignment = -1;
pos = (76,456);
ref = pixel;
},
{
alignment = -1;
pos = (76,418);
ref = pixel;
},
{
alignment = -1;
pos = (76,380);
ref = pixel;
},
{
alignment = -1;
pos = (76,342);
ref = pixel;
},
{
alignment = -1;
pos = (76,304);
ref = pixel;
},
{
alignment = -1;
pos = (76,266);
ref = pixel;
},
{
alignment = -1;
pos = (76,228);
ref = pixel;
},
{
alignment = -1;
pos = (76,190);
ref = pixel;
},
{
alignment = -1;
pos = (76,152);
ref = pixel;
},
{
alignment = -1;
pos = (76,114);
ref = pixel;
},
{
alignment = -1;
pos = (76,76);
ref = pixel;
},
{
alignment = -1;
pos = (76,38);
ref = pixel;
},
{
alignment = -1;
pos = (76,0);
ref = pixel;
},
{
alignment = -1;
pos = (114,684);
ref = pixel;
},
{
alignment = -1;
pos = (114,646);
ref = pixel;
},
{
alignment = -1;
pos = (114,608);
ref = pixel;
},
{
alignment = -1;
pos = (114,570);
ref = pixel;
},
{
alignment = -1;
pos = (114,532);
ref = pixel;
},
{
alignment = -1;
pos = (114,494);
ref = pixel;
},
{
alignment = -1;
pos = (114,456);
ref = pixel;
},
{
alignment = -1;
pos = (114,418);
ref = pixel;
},
{
alignment = -1;
pos = (114,380);
ref = pixel;
},
{
alignment = -1;
pos = (114,342);
ref = pixel;
},
{
alignment = -1;
pos = (114,304);
ref = pixel;
},
{
alignment = -1;
pos = (114,266);
ref = pixel;
},
{
alignment = -1;
pos = (114,228);
ref = pixel;
},
{
alignment = -1;
pos = (114,190);
ref = pixel;
},
{
alignment = -1;
pos = (114,152);
ref = pixel;
},
{
alignment = -1;
pos = (114,114);
ref = pixel;
},
{
alignment = -1;
pos = (114,76);
ref = pixel;
},
{
alignment = -1;
pos = (114,38);
ref = pixel;
},
{
alignment = -1;
pos = (114,0);
ref = pixel;
},
{
alignment = -1;
pos = (152,684);
ref = pixel;
},
{
alignment = -1;
pos = (152,646);
ref = pixel;
},
{
alignment = -1;
pos = (190,646);
ref = pixel;
},
{
alignment = -1;
pos = (190,684);
ref = pixel;
},
{
alignment = -1;
pos = (228,646);
ref = pixel;
},
{
alignment = -1;
pos = (228,684);
ref = pixel;
},
{
alignment = -1;
pos = (266,684);
ref = pixel;
},
{
alignment = -1;
pos = (266,646);
ref = pixel;
},
{
alignment = -1;
pos = (152,342);
ref = pixel;
},
{
alignment = -1;
pos = (152,304);
ref = pixel;
},
{
alignment = -1;
pos = (190,304);
ref = pixel;
},
{
alignment = -1;
pos = (190,342);
ref = pixel;
},
{
alignment = -1;
pos = (228,342);
ref = pixel;
},
{
alignment = -1;
pos = (228,304);
ref = pixel;
},
{
alignment = -1;
pos = (266,304);
ref = pixel;
},
{
alignment = -1;
pos = (266,342);
ref = pixel;
},
{
alignment = -1;
pos = (304,342);
ref = pixel;
},
{
alignment = -1;
pos = (304,304);
ref = pixel;
},
{
alignment = -1;
pos = (304,646);
ref = pixel;
},
{
alignment = -1;
pos = (342,342);
ref = pixel;
},
{
alignment = -1;
pos = (380,342);
ref = pixel;
},
{
alignment = -1;
pos = (456,380);
ref = pixel;
},
{
alignment = -1;
pos = (532,570);
ref = pixel;
},
{
alignment = -1;
pos = (532,532);
ref = pixel;
},
{
alignment = -1;
pos = (532,494);
ref = pixel;
},
{
alignment = -1;
pos = (532,456);
ref = pixel;
},
{
alignment = -1;
pos = (342,304);
ref = pixel;
},
{
alignment = -1;
pos = (380,304);
ref = pixel;
},
{
alignment = -1;
pos = (456,266);
ref = pixel;
},
{
alignment = -1;
pos = (494,228);
ref = pixel;
},
{
alignment = -1;
pos = (494,190);
ref = pixel;
},
{
alignment = -1;
pos = (418,304);
ref = pixel;
},
{
alignment = -1;
pos = (494,152);
ref = pixel;
},
{
alignment = -1;
pos = (494,114);
ref = pixel;
},
{
alignment = -1;
pos = (494,76);
ref = pixel;
},
{
alignment = -1;
pos = (494,38);
ref = pixel;
},
{
alignment = -1;
pos = (494,0);
ref = pixel;
},
{
alignment = -1;
pos = (456,228);
ref = pixel;
},
{
alignment = -1;
pos = (494,418);
ref = pixel;
},
{
alignment = -1;
pos = (456,646);
ref = pixel;
},
{
alignment = -1;
pos = (456,608);
ref = pixel;
},
{
alignment = -1;
pos = (494,570);
ref = pixel;
},
{
alignment = -1;
pos = (418,646);
ref = pixel;
},
{
alignment = -1;
pos = (418,608);
ref = pixel;
},
{
alignment = -1;
pos = (494,532);
ref = pixel;
},
{
alignment = -1;
pos = (494,494);
ref = pixel;
},
{
alignment = -1;
pos = (494,456);
ref = pixel;
},
{
alignment = -1;
pos = (456,418);
ref = pixel;
},
{
alignment = -1;
pos = (418,266);
ref = pixel;
},
{
alignment = -1;
pos = (494,608);
ref = pixel;
},
{
alignment = -1;
pos = (456,570);
ref = pixel;
},
{
alignment = -1;
pos = (304,684);
ref = pixel;
},
{
alignment = -1;
pos = (342,684);
ref = pixel;
},
{
alignment = -1;
pos = (342,646);
ref = pixel;
},
{
alignment = -1;
pos = (418,380);
ref = pixel;
},
{
alignment = -1;
pos = (380,684);
ref = pixel;
},
{
alignment = -1;
pos = (380,646);
ref = pixel;
},
{
alignment = -1;
pos = (532,228);
ref = pixel;
},
{
alignment = -1;
pos = (532,190);
ref = pixel;
},
{
alignment = -1;
pos = (532,152);
ref = pixel;
},
{
alignment = -1;
pos = (532,114);
ref = pixel;
},
{
alignment = -1;
pos = (532,76);
ref = pixel;
},
{
alignment = -1;
pos = (532,38);
ref = pixel;
},
{
alignment = -1;
pos = (532,0);
ref = pixel;
},
{
alignment = -1;
pos = (494,266);
ref = pixel;
},
{
alignment = -1;
pos = (456,304);
ref = pixel;
}
);
width = 646;
}
);
metricLeft = H;
metricRight = H;
unicode = 82;
}
